<svg width="16" height="16" viewBox="0 0 16 16" fill="none" xmlns="http://www.w3.org/2000/svg">
<g opacity="0.5">
<path d="M14.4 6.4C15.2837 6.4 16 7.11634 16 8C16 8.88366 15.2837 9.6 14.4 9.6L1.6 9.6C0.716345 9.6 -3.86258e-08 8.88366 0 8C3.86258e-08 7.11634 0.716345 6.4 1.6 6.4L14.4 6.4Z" fill="#373737"/>
<path d="M9.6 14.4C9.6 15.2837 8.88366 16 8 16C7.11634 16 6.4 15.2837 6.4 14.4L6.4 1.6C6.4 0.716345 7.11635 -7.72516e-08 8 0C8.88366 7.72516e-08 9.6 0.716345 9.6 1.6L9.6 14.4Z" fill="#373737"/>
</g>
</svg>
