<svg width="52" height="52" viewBox="0 0 52 52" fill="none" xmlns="http://www.w3.org/2000/svg">
<g filter="url(#filter0_d)">
<circle cx="21" cy="21" r="11" fill="white"/>
</g>
<g opacity="0.5">
<path d="M25 20C25.5523 20 26 20.4477 26 21C26 21.5523 25.5523 22 25 22L17 22C16.4477 22 16 21.5523 16 21C16 20.4477 16.4477 20 17 20L25 20Z" fill="#373737"/>
<path d="M22 25C22 25.5523 21.5523 26 21 26C20.4477 26 20 25.5523 20 25L20 17C20 16.4477 20.4477 16 21 16C21.5523 16 22 16.4477 22 17L22 25Z" fill="#373737"/>
</g>
<defs>
<filter id="filter0_d" x="0" y="0" width="52" height="52" filterUnits="userSpaceOnUse" color-interpolation-filters="sRGB">
<feFlood flood-opacity="0" result="BackgroundImageFix"/>
<feColorMatrix in="SourceAlpha" type="matrix" values="0 0 0 0 0 0 0 0 0 0 0 0 0 0 0 0 0 0 127 0" result="hardAlpha"/>
<feOffset dx="5" dy="5"/>
<feGaussianBlur stdDeviation="7.5"/>
<feColorMatrix type="matrix" values="0 0 0 0 0.196078 0 0 0 0 0.196078 0 0 0 0 0.196078 0 0 0 0.15 0"/>
<feBlend mode="normal" in2="BackgroundImageFix" result="effect1_dropShadow"/>
<feBlend mode="normal" in="SourceGraphic" in2="effect1_dropShadow" result="shape"/>
</filter>
</defs>
</svg>
