<svg width="36" height="36" viewBox="0 0 36 36" fill="none" xmlns="http://www.w3.org/2000/svg">
<g clip-path="url(#clip0)">
<path d="M8.99703 33.8203C8.48234 33.8203 8.22078 33.5531 8.11109 33.3928C7.97047 33.1875 7.84109 32.8359 8.03515 32.3156C8.21234 31.8488 11.2892 24.3563 12.4227 21.6H4.78109L2.91078 25.1944C2.5789 25.8441 2.19359 25.9116 1.44547 25.92H0.933591C0.638279 25.92 0.371091 25.7991 0.199529 25.5853C0.0251539 25.3744 -0.0367211 25.0959 0.0279664 24.8034C0.0898414 24.5025 1.22328 18.9788 1.42297 18.0028C0.984217 15.9272 0.0448414 11.4469 0.013904 11.1122C-0.0198461 10.7353 0.117967 10.4963 0.241717 10.3612C0.410467 10.1756 0.643904 10.08 0.933591 10.08H1.43984C1.75484 10.0884 2.54797 10.1081 2.91078 10.8056L4.78109 14.4H12.4227C11.2892 11.6438 8.21234 4.15125 8.03515 3.68438C7.84109 3.16688 7.96765 2.8125 8.11109 2.61C8.22078 2.44969 8.48515 2.17969 8.99703 2.17969L9.12922 2.18531C9.39078 2.20781 10.198 2.28656 10.8223 2.35688C11.5873 2.44125 11.908 2.84625 12.0823 3.06563C12.2483 3.26813 19.5777 12.6197 20.9727 14.4H31.4886C34.6583 14.4 35.9998 16.9763 35.9998 18C35.9998 19.0238 34.6583 21.6 31.4886 21.6H20.9727C19.4061 23.5997 12.2511 32.7291 12.1133 32.8978C11.9108 33.1538 11.5873 33.5588 10.8223 33.6431C10.198 33.7134 9.38797 33.7922 9.12922 33.8147L8.99703 33.8203ZM8.99703 32.3859L8.99984 33.1003L9.00265 32.3803C8.99984 32.3803 8.99703 32.3803 8.99703 32.3803V32.3859Z" fill="#F23F34"/>
</g>
<defs>
<clipPath id="clip0">
<rect width="36" height="36" fill="white"/>
</clipPath>
</defs>
</svg>
