<svg width="36" height="36" viewBox="0 0 36 36" fill="none" xmlns="http://www.w3.org/2000/svg">
<g clip-path="url(#clip0)">
<path d="M8.91007 2.18245C8.67944 2.1937 8.41788 2.2612 8.19007 2.51995C7.8835 2.86307 7.906 3.34963 8.03257 3.68995C8.11132 3.90088 8.42913 4.63776 8.88757 5.75995C9.346 6.88213 9.92257 8.33901 10.5076 9.76495C11.4723 12.1162 12.1163 13.6631 12.4201 14.3999H4.77007C4.48882 13.8599 3.17538 11.3231 2.90257 10.7999C2.74788 10.5018 2.46944 10.2881 2.20507 10.1924C1.94069 10.0968 1.696 10.0856 1.46257 10.0799H0.945066C0.900066 10.0799 0.646941 10.049 0.360066 10.2599C0.0731911 10.4709 6.57565e-05 10.8618 0.0225658 11.1149C0.0394408 11.2978 0.0478783 11.3709 0.0900658 11.5874C0.132253 11.804 0.202566 12.0853 0.270066 12.4199C0.405066 13.0893 0.565378 13.9556 0.742566 14.8049C1.08288 16.4334 1.41475 17.8987 1.44007 18.0224C1.381 18.3065 0.0816281 24.5053 0.0225658 24.7949C-0.0364968 25.0762 0.0844411 25.5206 0.337566 25.7174C0.590691 25.9143 0.810066 25.9199 0.945066 25.9199H1.44007C1.80569 25.9171 2.03069 25.9424 2.36257 25.7849C2.5285 25.7062 2.68882 25.5628 2.76757 25.4474C2.84632 25.3321 2.87163 25.259 2.90257 25.1999C3.17538 24.6768 4.48882 22.1399 4.77007 21.5999H12.4201C12.1163 22.3368 11.4723 23.8837 10.5076 26.2349C9.92257 27.6609 9.346 29.1178 8.88757 30.2399C8.42913 31.3621 8.11132 32.099 8.03257 32.3099C7.906 32.6503 7.8835 33.1368 8.19007 33.4799C8.49663 33.8231 8.87069 33.8399 9.13507 33.8174C9.41069 33.7949 10.1954 33.7078 10.8226 33.6374C11.5426 33.5587 12.0038 33.0215 12.1051 32.8949C12.1641 32.8218 12.2963 32.6615 12.5551 32.3324C12.8138 32.0034 13.1626 31.5506 13.5901 31.0049C14.4479 29.9109 15.5926 28.4793 16.7176 27.0449C18.8607 24.3084 20.7985 21.8474 20.9926 21.5999H31.5001C33.0498 21.5999 34.1973 20.9587 34.9201 20.2049C35.2829 19.8281 35.5529 19.4287 35.7301 19.0574C35.9073 18.6862 36.0001 18.3599 36.0001 17.9999C36.0001 17.6371 35.8848 17.3137 35.7076 16.9424C35.5304 16.5712 35.2829 16.1718 34.9201 15.7949C34.1944 15.044 33.0216 14.3999 31.4776 14.3999H20.9926C20.7985 14.1524 18.8607 11.6915 16.7176 8.95495C15.5926 7.52057 14.4479 6.08901 13.5901 4.99495C13.1626 4.44932 12.8138 3.99651 12.5551 3.66745C12.2963 3.33838 12.1641 3.17807 12.1051 3.10495C12.0038 2.97838 11.5426 2.4412 10.8226 2.36245C10.1954 2.29213 9.41069 2.20495 9.13507 2.18245C9.06757 2.17682 8.986 2.17963 8.91007 2.18245ZM9.58507 3.66745C9.93944 3.7012 10.2685 3.73495 10.6651 3.77995C10.9435 3.81088 10.8282 3.80526 10.9801 4.00495H11.0026C10.9801 3.97682 11.1713 4.21588 11.4301 4.54495C11.6888 4.87401 12.0376 5.32682 12.4651 5.87245C13.3229 6.9637 14.4451 8.42057 15.5701 9.85495C17.8201 12.7237 20.0476 15.5699 20.0476 15.5699L20.2726 15.8399H31.4776C32.6335 15.8399 33.3901 16.2928 33.8851 16.8074C34.1326 17.0634 34.3126 17.339 34.4251 17.5724C34.5376 17.8059 34.5601 18.014 34.5601 17.9999C34.5601 17.9887 34.5348 18.194 34.4251 18.4274C34.3154 18.6609 34.1326 18.9365 33.8851 19.1924C33.3929 19.7043 32.6616 20.1599 31.5001 20.1599H20.2726L20.0476 20.4299C20.0476 20.4299 17.8201 23.2762 15.5701 26.1449C14.4451 27.5793 13.3229 29.0362 12.4651 30.1274C12.0376 30.6731 11.6888 31.1259 11.4301 31.4549C11.1713 31.784 10.9801 32.0231 11.0026 31.9949L10.9801 32.0174C10.8479 32.1946 10.9351 32.189 10.6651 32.2199C10.2685 32.2649 9.93944 32.2987 9.58507 32.3324C9.71163 32.0174 9.86632 31.6293 10.2151 30.7799C10.6735 29.6578 11.2726 28.2234 11.8576 26.7974C13.0276 23.9456 14.1751 21.1499 14.1751 21.1499L14.5801 20.1599H3.91507L3.71257 20.5424C3.71257 20.5424 1.99694 23.8387 1.66507 24.4799C1.66225 24.4771 1.61725 24.4743 1.57507 24.4799C1.83382 23.2171 2.85757 18.1349 2.85757 18.1349L2.90257 17.9999L2.85757 17.8424C2.85757 17.8424 2.51444 16.2084 2.16007 14.5124C1.98288 13.6659 1.80007 12.7912 1.66507 12.1274C1.61444 11.8771 1.58913 11.7028 1.55257 11.5199C1.59475 11.5256 1.64819 11.5396 1.66507 11.5424C2.00819 12.2034 3.71257 15.4574 3.71257 15.4574L3.91507 15.8399H14.5801L14.1751 14.8499C14.1751 14.8499 13.0276 12.0543 11.8576 9.20245C11.2726 7.77651 10.6735 6.34213 10.2151 5.21995C9.86632 4.37057 9.71163 3.98245 9.58507 3.66745Z" fill="#F23F34"/>
</g>
<defs>
<clipPath id="clip0">
<rect width="36" height="36" fill="white"/>
</clipPath>
</defs>
</svg>
