<svg width="22" height="22" viewBox="0 0 22 22" fill="none" xmlns="http://www.w3.org/2000/svg">
<g opacity="0.5">
<path d="M8.71789 5.76342C8.62164 5.78061 8.5357 5.82874 8.47039 5.90092L3.67164 10.6859L3.36914 11.0022L3.67164 11.3184L8.47039 16.1034C8.57695 16.2341 8.74711 16.2942 8.91211 16.2564C9.07539 16.2186 9.2043 16.0897 9.24211 15.9264C9.27992 15.7614 9.21976 15.5912 9.08914 15.4847L5.04664 11.4422H18.0404C18.1985 11.4439 18.3463 11.3614 18.4271 11.2239C18.5062 11.0864 18.5062 10.918 18.4271 10.7805C18.3463 10.643 18.1985 10.5605 18.0404 10.5622H5.04664L9.08914 6.51967C9.2318 6.38733 9.26961 6.17764 9.18367 6.00405C9.09945 5.82874 8.90867 5.73249 8.71789 5.76342Z" fill="#373737"/>
</g>
</svg>
