<svg width="102" height="81" viewBox="0 0 102 81" fill="none" xmlns="http://www.w3.org/2000/svg">
<path opacity="0.08" d="M33.8922 37.9949C37.8089 39.7182 40.8639 42.3032 43.0572 45.7499C45.2505 49.1966 46.3472 53.2699 46.3472 57.9699C46.3472 64.7066 44.2322 70.1899 40.0022 74.4199C35.7722 78.4932 30.3672 80.5299 23.7872 80.5299C17.2072 80.5299 11.7239 78.4149 7.33719 74.1849C3.10719 69.9549 0.992188 64.5499 0.992188 57.9699C0.992188 54.8366 1.38385 51.7032 2.16719 48.5699C2.95052 45.4366 4.67385 40.7366 7.33719 34.4699L20.9672 0.629883H44.2322L33.8922 37.9949ZM89.3522 37.9949C93.2689 39.7182 96.3239 42.3032 98.5172 45.7499C100.711 49.1966 101.807 53.2699 101.807 57.9699C101.807 64.7066 99.6922 70.1899 95.4622 74.4199C91.2322 78.4932 85.8272 80.5299 79.2472 80.5299C72.6672 80.5299 67.1839 78.4149 62.7972 74.1849C58.5672 69.9549 56.4522 64.5499 56.4522 57.9699C56.4522 54.8366 56.8439 51.7032 57.6272 48.5699C58.4105 45.4366 60.1339 40.7366 62.7972 34.4699L76.4272 0.629883H99.6922L89.3522 37.9949Z" fill="#323232"/>
</svg>
