<svg width="26" height="26" viewBox="0 0 26 26" fill="none" xmlns="http://www.w3.org/2000/svg">
<g clip-path="url(#clip0)">
<path d="M4.6797 3.12012C4.48262 3.12012 4.30294 3.23126 4.21454 3.40754L0.574542 10.6875C0.446102 10.9444 0.55024 11.2568 0.80712 11.3853C1.06452 11.5127 1.37641 11.4091 1.50485 11.1527L4.1597 5.84301V22.3601C4.1597 22.6477 4.39266 22.8801 4.6797 22.8801H14.0397C13.7059 22.0793 13.5197 21.2016 13.5197 20.2801C13.5197 16.5465 16.5461 13.5201 20.2797 13.5201C20.8174 13.5201 21.3379 13.5894 21.8397 13.708V5.84301L24.4945 11.1527C24.5861 11.3352 24.7699 11.4401 24.9607 11.4401C25.0387 11.4401 25.1179 11.4222 25.1923 11.3853C25.4492 11.2563 25.5533 10.9444 25.4249 10.6875L21.7849 3.40754C21.6965 3.23126 21.5168 3.12012 21.3197 3.12012H4.6797ZM10.3997 6.76012H15.5997C15.8867 6.76012 16.1197 6.99256 16.1197 7.28012C16.1197 7.56768 15.8867 7.80012 15.5997 7.80012H10.3997C10.1127 7.80012 9.8797 7.56768 9.8797 7.28012C9.8797 6.99256 10.1127 6.76012 10.3997 6.76012ZM19.2397 14.5601L18.9279 16.2237C18.7719 16.2757 18.5639 16.3279 18.4079 16.4319L17.0033 15.4437L15.4433 17.0037L16.3797 18.3037C16.3277 18.5117 16.2235 18.6685 16.1715 18.8765L14.5597 19.1365V21.3201L16.1715 21.5801C16.2235 21.7361 16.2757 21.9441 16.3797 22.1001L15.4433 23.5037L17.0033 25.0637L18.4079 24.1283C18.6159 24.2323 18.7717 24.2845 18.9797 24.3365L19.2397 26.0001H21.3715L21.6833 24.3883C21.8393 24.3363 21.9953 24.2841 22.2033 24.1801L23.6079 25.1165L25.1679 23.5565L24.1797 22.2037C24.2837 21.9957 24.3359 21.7879 24.3879 21.6319L25.9997 21.3201V19.1365L24.3361 18.8765C24.2841 18.7205 24.2319 18.5125 24.1279 18.3565L25.0633 16.9519L23.5561 15.4437L22.2033 16.4319C22.0473 16.3279 21.8393 16.2757 21.6833 16.2237L21.4233 14.5601H19.2397ZM20.1233 15.6001H20.5397L20.7479 17.0037L21.0597 17.1083C21.3717 17.2123 21.6833 17.3159 21.9433 17.4719L22.2561 17.6801L23.4515 16.7965L23.7115 17.0565L22.8797 18.2519L23.0361 18.5119C23.1921 18.8239 23.2957 19.1363 23.3997 19.4483L23.5033 19.7601L24.9597 19.9683V20.3837L23.5561 20.6965L23.4515 21.0083C23.3475 21.3203 23.2439 21.6319 23.0879 21.8919L22.8797 22.2037L23.7633 23.4001L23.4515 23.7119L22.2561 22.8801L21.9961 23.0365C21.6841 23.1925 21.3717 23.2961 21.0597 23.4001L20.7479 23.5037L20.4879 24.9601H20.0715L19.8633 23.5565L19.5515 23.4519C19.2395 23.3479 18.9279 23.2443 18.6679 23.0883L18.3561 22.8801L17.1079 23.7119L16.7961 23.4001L17.6279 22.2037L17.4715 21.9437C17.3155 21.6317 17.2119 21.2683 17.1079 21.0083L17.0033 20.6965L15.5997 20.4365V20.0201L17.0561 19.7601L17.1079 19.3965C17.1599 19.1365 17.2637 18.8237 17.4197 18.5637L17.6279 18.3037L16.7961 17.1083L17.1079 16.7965L18.3033 17.6283L18.5633 17.5237C18.9273 17.3677 19.2395 17.2123 19.5515 17.1083L19.8633 17.0565L20.1233 15.6001ZM20.2797 18.1483C19.1357 18.1483 18.1997 19.0843 18.1997 20.2283C18.1997 21.3723 19.1357 22.3083 20.2797 22.3083C21.4237 22.3083 22.3597 21.4243 22.3597 20.2283C22.3597 19.0843 21.4237 18.1483 20.2797 18.1483ZM20.2797 19.2401C20.8517 19.2401 21.3197 19.6561 21.3197 20.2801C21.3197 20.8521 20.8517 21.3201 20.2797 21.3201C19.7077 21.3201 19.2397 20.8521 19.2397 20.2801C19.2397 19.7081 19.7077 19.2401 20.2797 19.2401Z" fill="#F23F34"/>
</g>
<defs>
<clipPath id="clip0">
<rect width="26" height="26" fill="white"/>
</clipPath>
</defs>
</svg>
