<svg width="32" height="32" viewBox="0 0 32 32" fill="none" xmlns="http://www.w3.org/2000/svg">
<path d="M8.96006 2.56006C5.43281 2.56006 2.56006 5.43281 2.56006 8.96006V23.0401C2.56006 26.5673 5.43281 29.4401 8.96006 29.4401H23.0401C26.5673 29.4401 29.4401 26.5673 29.4401 23.0401V8.96006C29.4401 5.43281 26.5673 2.56006 23.0401 2.56006H8.96006ZM11.5201 6.40006H20.4801C21.8938 6.40006 23.0401 7.5463 23.0401 8.96006V23.0401C23.0401 24.4538 21.8938 25.6001 20.4801 25.6001H11.5201C10.1063 25.6001 8.96006 24.4538 8.96006 23.0401V8.96006C8.96006 7.5463 10.1063 6.40006 11.5201 6.40006ZM11.5201 8.32006C11.1668 8.32006 10.8801 8.60678 10.8801 8.96006V11.5201C10.8801 11.8733 11.1668 12.1601 11.5201 12.1601H20.4801C20.8333 12.1601 21.1201 11.8733 21.1201 11.5201V8.96006C21.1201 8.60678 20.8333 8.32006 20.4801 8.32006H11.5201ZM12.1601 13.4401C11.8206 13.4401 11.495 13.5749 11.255 13.815C11.0149 14.055 10.8801 14.3806 10.8801 14.7201C10.8801 15.0595 11.0149 15.3851 11.255 15.6252C11.495 15.8652 11.8206 16.0001 12.1601 16.0001C12.4995 16.0001 12.8251 15.8652 13.0652 15.6252C13.3052 15.3851 13.4401 15.0595 13.4401 14.7201C13.4401 14.3806 13.3052 14.055 13.0652 13.815C12.8251 13.5749 12.4995 13.4401 12.1601 13.4401ZM16.0001 13.4401C15.6606 13.4401 15.335 13.5749 15.095 13.815C14.8549 14.055 14.7201 14.3806 14.7201 14.7201C14.7201 15.0595 14.8549 15.3851 15.095 15.6252C15.335 15.8652 15.6606 16.0001 16.0001 16.0001C16.3395 16.0001 16.6651 15.8652 16.9052 15.6252C17.1452 15.3851 17.2801 15.0595 17.2801 14.7201C17.2801 14.3806 17.1452 14.055 16.9052 13.815C16.6651 13.5749 16.3395 13.4401 16.0001 13.4401ZM19.8401 13.4401C19.5006 13.4401 19.175 13.5749 18.935 13.815C18.6949 14.055 18.5601 14.3806 18.5601 14.7201C18.5601 15.0595 18.6949 15.3851 18.935 15.6252C19.175 15.8652 19.5006 16.0001 19.8401 16.0001C20.1795 16.0001 20.5051 15.8652 20.7452 15.6252C20.9852 15.3851 21.1201 15.0595 21.1201 14.7201C21.1201 14.3806 20.9852 14.055 20.7452 13.815C20.5051 13.5749 20.1795 13.4401 19.8401 13.4401ZM12.1601 17.2801C11.8206 17.2801 11.495 17.4149 11.255 17.655C11.0149 17.895 10.8801 18.2206 10.8801 18.5601C10.8801 18.8995 11.0149 19.2251 11.255 19.4652C11.495 19.7052 11.8206 19.8401 12.1601 19.8401C12.4995 19.8401 12.8251 19.7052 13.0652 19.4652C13.3052 19.2251 13.4401 18.8995 13.4401 18.5601C13.4401 18.2206 13.3052 17.895 13.0652 17.655C12.8251 17.4149 12.4995 17.2801 12.1601 17.2801ZM16.0001 17.2801C15.6606 17.2801 15.335 17.4149 15.095 17.655C14.8549 17.895 14.7201 18.2206 14.7201 18.5601C14.7201 18.8995 14.8549 19.2251 15.095 19.4652C15.335 19.7052 15.6606 19.8401 16.0001 19.8401C16.3395 19.8401 16.6651 19.7052 16.9052 19.4652C17.1452 19.2251 17.2801 18.8995 17.2801 18.5601C17.2801 18.2206 17.1452 17.895 16.9052 17.655C16.6651 17.4149 16.3395 17.2801 16.0001 17.2801ZM19.8401 17.2801C19.5006 17.2801 19.175 17.4149 18.935 17.655C18.6949 17.895 18.5601 18.2206 18.5601 18.5601C18.5601 18.8995 18.6949 19.2251 18.935 19.4652C19.175 19.7052 19.5006 19.8401 19.8401 19.8401C20.1795 19.8401 20.5051 19.7052 20.7452 19.4652C20.9852 19.2251 21.1201 18.8995 21.1201 18.5601C21.1201 18.2206 20.9852 17.895 20.7452 17.655C20.5051 17.4149 20.1795 17.2801 19.8401 17.2801ZM12.1601 21.1201C11.4529 21.1201 10.8801 21.6929 10.8801 22.4001C10.8801 23.1073 11.4529 23.6801 12.1601 23.6801H16.0001C16.7073 23.6801 17.2801 23.1073 17.2801 22.4001C17.2801 21.6929 16.7073 21.1201 16.0001 21.1201H12.1601ZM19.8401 21.1201C19.5006 21.1201 19.175 21.2549 18.935 21.495C18.6949 21.735 18.5601 22.0606 18.5601 22.4001C18.5601 22.7395 18.6949 23.0651 18.935 23.3052C19.175 23.5452 19.5006 23.6801 19.8401 23.6801C20.1795 23.6801 20.5051 23.5452 20.7452 23.3052C20.9852 23.0651 21.1201 22.7395 21.1201 22.4001C21.1201 22.0606 20.9852 21.735 20.7452 21.495C20.5051 21.2549 20.1795 21.1201 19.8401 21.1201Z" fill="#F23F34"/>
</svg>
