<svg width="26" height="26" viewBox="0 0 26 26" fill="none" xmlns="http://www.w3.org/2000/svg">
<g clip-path="url(#clip0)">
<path d="M10.7238 4.67993C10.5166 4.67993 10.3237 4.7104 10.1388 4.76118C9.99461 4.79978 9.84633 4.84243 9.71633 4.90743C9.71023 4.90946 9.70617 4.91962 9.70008 4.92368C9.55992 4.99681 9.43195 5.08821 9.31008 5.18368C9.30398 5.18774 9.29992 5.19587 9.29383 5.19993C9.17398 5.29743 9.06836 5.39493 8.96883 5.50868C8.96476 5.51478 8.95664 5.51884 8.95258 5.52493C8.84695 5.64681 8.75555 5.7829 8.67633 5.91493C8.42648 5.81946 8.17664 5.76462 7.94508 5.75243C7.56117 5.73415 7.21789 5.81743 6.92133 5.97993C6.33023 6.30493 5.91383 6.79853 5.47508 7.16618C5.02617 7.54196 3.68351 8.52915 2.48508 9.39243C1.28664 10.2557 0.226327 11.0174 0.226327 11.0174C0.0414832 11.1068 -0.0722669 11.2957 -0.066173 11.5009C-0.0600792 11.706 0.0658581 11.8888 0.254765 11.966C0.445702 12.0452 0.663046 12.0046 0.811327 11.8624C0.811327 11.8624 1.90008 11.1048 3.10258 10.2374C4.30508 9.37009 5.6193 8.41337 6.15758 7.96243C6.67961 7.52368 7.0818 7.07884 7.42508 6.88993C7.70742 6.73556 7.9268 6.69087 8.33508 6.88993C8.32695 6.96103 8.31883 7.03212 8.31883 7.10118V13.2924L7.60383 13.6174C7.41289 13.6763 7.27273 13.8429 7.2443 14.0399C7.21586 14.239 7.30523 14.436 7.4718 14.5477C7.63836 14.6574 7.85367 14.6635 8.02633 14.5599L12.8363 12.3499H12.8526C13.5371 11.9843 14.2541 11.6491 14.8026 11.5374C15.351 11.4257 15.6252 11.4724 15.8588 11.7812C16.133 12.1427 16.196 12.5409 16.0701 12.9837C15.9441 13.4265 15.609 13.9079 15.0301 14.3162C13.8174 15.1734 11.9426 15.8112 11.9426 15.8112L11.8451 15.8437L11.7638 15.9087C10.799 16.7293 10.2404 17.5093 9.53758 18.0374C8.83476 18.5656 7.96539 18.9149 6.17383 18.9149H6.14133L0.486327 19.2399C0.199921 19.2582 -0.0194543 19.506 -0.00117305 19.7924C0.0171082 20.0788 0.264921 20.2982 0.551327 20.2799L6.17383 19.9549C6.18601 19.9549 6.19414 19.9549 6.20633 19.9549C7.53476 19.9509 8.49961 19.7315 9.26133 19.3862C9.39336 19.7762 9.66555 20.1093 10.0901 20.2474C10.6873 20.4404 11.2763 20.3835 11.7476 20.1824C11.9568 20.0931 12.1477 19.9712 12.3163 19.8412C12.4809 20.219 12.7754 20.5724 13.2263 20.7349C13.6996 20.9056 14.1709 20.9441 14.5913 20.8324C15.0118 20.7207 15.3551 20.4831 15.6801 20.1824C15.7349 20.1316 15.7715 20.0931 15.8101 20.0524C15.9198 20.1276 16.0457 20.1784 16.1838 20.2149C16.8582 20.3916 17.6463 20.1987 18.2476 19.5974C18.7757 19.0693 19.0926 18.2588 19.2063 17.1599H23.7401C23.8965 17.1599 24.0468 17.1416 24.1951 17.1112C24.9304 16.9588 25.5337 16.4429 25.8201 15.7624C25.877 15.6263 25.9196 15.4882 25.9501 15.3399C25.9805 15.1916 25.9988 15.0413 25.9988 14.8849V7.05243C25.9988 6.97321 25.9907 6.90212 25.9826 6.82493C25.9562 6.5954 25.8993 6.36993 25.8038 6.15868C25.7409 6.0104 25.6677 5.88446 25.5763 5.75243C25.5743 5.74837 25.5784 5.74024 25.5763 5.73618C25.2188 5.22634 24.6684 4.85259 24.0488 4.72868C23.8965 4.69618 23.7523 4.67993 23.5938 4.67993H10.7238ZM9.35883 7.27993H24.9588V9.35993H9.35883V7.27993ZM11.9588 17.1599H12.3163C12.2859 17.5256 12.233 18.076 12.1701 18.4274C12.162 18.4701 12.1599 18.5127 12.1538 18.5574C12.1254 18.5757 12.097 18.5981 12.0726 18.6224C11.8491 18.8885 11.5912 19.1099 11.3251 19.2237C11.059 19.3374 10.7929 19.3781 10.4151 19.2562C10.3216 19.2257 10.216 19.0754 10.2038 18.8337C10.8741 18.3218 11.3677 17.7409 11.9588 17.1599ZM13.3726 17.1599H15.3226C15.286 17.4016 15.2535 17.6779 15.2251 17.9562C15.1905 18.2954 15.1601 18.7016 15.2413 19.1099C15.2129 19.1485 15.2007 19.1566 15.1601 19.2074C15.0748 19.3151 14.9245 19.4715 14.9813 19.4187C14.7274 19.6543 14.5101 19.7884 14.3151 19.8412C14.1201 19.894 13.9149 19.8798 13.5838 19.7599C13.4071 19.697 13.3157 19.5832 13.2426 19.3699C13.1695 19.1566 13.1491 18.854 13.1938 18.6062C13.2832 18.1146 13.3462 17.487 13.3726 17.1599ZM16.3788 17.1599H18.1501C18.0445 18.0354 17.8027 18.5798 17.5163 18.8662C17.1304 19.2521 16.8034 19.3009 16.4438 19.2074C16.324 19.1749 16.3138 19.1465 16.2651 18.9312C16.2163 18.7159 16.2163 18.3787 16.2488 18.0699C16.2834 17.7368 16.3341 17.4138 16.3788 17.1599Z" fill="#F23F34"/>
</g>
<defs>
<clipPath id="clip0">
<rect width="26" height="26" fill="white"/>
</clipPath>
</defs>
</svg>
