<svg width="80" height="80" viewBox="0 0 80 80" fill="none" xmlns="http://www.w3.org/2000/svg">
<path d="M43.2012 13.6002C43.0952 13.5987 42.99 13.6183 42.8916 13.6578C42.7932 13.6973 42.7037 13.756 42.6282 13.8304C42.5527 13.9049 42.4927 13.9936 42.4518 14.0914C42.4109 14.1892 42.3898 14.2942 42.3898 14.4002C42.3898 14.5062 42.4109 14.6112 42.4518 14.709C42.4927 14.8068 42.5527 14.8955 42.6282 14.9699C42.7037 15.0443 42.7932 15.103 42.8916 15.1426C42.99 15.1821 43.0952 15.2017 43.2012 15.2002H50.07L40.7356 24.533L38.4731 22.2705C38.3229 22.1207 38.1193 22.0368 37.9072 22.0371C37.695 22.0373 37.4917 22.1219 37.3419 22.2721L25.4622 34.1502L23.1997 31.8877C23.1251 31.8132 23.0366 31.7541 22.9391 31.7139C22.8417 31.6737 22.7373 31.6532 22.6318 31.6535C22.5264 31.6537 22.4221 31.6749 22.3249 31.7156C22.2277 31.7563 22.1394 31.8159 22.0653 31.8908L9.83249 44.2377C9.75621 44.3118 9.6955 44.4005 9.65389 44.4984C9.61228 44.5963 9.59062 44.7015 9.59016 44.8079C9.58971 44.9143 9.61048 45.0197 9.65125 45.1179C9.69203 45.2162 9.75199 45.3054 9.82763 45.3802C9.90327 45.455 9.99307 45.5139 10.0918 45.5536C10.1905 45.5933 10.2961 45.6129 10.4025 45.6113C10.5089 45.6097 10.6138 45.5868 10.7113 45.5441C10.8087 45.5015 10.8967 45.4398 10.97 45.3627L22.6372 33.5877L24.8966 35.8471C25.0466 35.997 25.25 36.0813 25.4622 36.0813C25.6743 36.0813 25.8778 35.997 26.0278 35.8471L37.9075 23.9689L40.1716 26.2314C40.3216 26.3814 40.525 26.4656 40.7372 26.4656C40.9493 26.4656 41.1528 26.3814 41.3028 26.2314L51.2012 16.3314V23.2002C51.1997 23.3062 51.2193 23.4114 51.2589 23.5098C51.2984 23.6082 51.3571 23.6977 51.4315 23.7732C51.5059 23.8487 51.5946 23.9087 51.6925 23.9496C51.7903 23.9905 51.8952 24.0116 52.0012 24.0116C52.1073 24.0116 52.2122 23.9905 52.31 23.9496C52.4078 23.9087 52.4965 23.8487 52.571 23.7732C52.6454 23.6977 52.7041 23.6082 52.7436 23.5098C52.7832 23.4114 52.8027 23.3062 52.8012 23.2002V14.4002C52.8012 14.188 52.7169 13.9845 52.5669 13.8345C52.4169 13.6845 52.2134 13.6002 52.0012 13.6002H43.2012ZM56.8012 13.6002C56.5891 13.6002 56.3856 13.6845 56.2356 13.8345C56.0856 13.9845 56.0013 14.188 56.0012 14.4002V65.6002H52.8012V28.8002C52.8012 28.588 52.7169 28.3845 52.5669 28.2345C52.4169 28.0845 52.2134 28.0002 52.0012 28.0002H42.4012C42.1891 28.0002 41.9856 28.0845 41.8356 28.2345C41.6856 28.3845 41.6013 28.588 41.6012 28.8002V65.6002H38.4012V41.6002C38.4012 41.388 38.3169 41.1845 38.1669 41.0345C38.0169 40.8845 37.8134 40.8002 37.6012 40.8002H28.0012C27.7891 40.8002 27.5856 40.8845 27.4356 41.0345C27.2856 41.1845 27.2013 41.388 27.2012 41.6002V65.6002H24.0012V52.8002C24.0012 52.588 23.9169 52.3845 23.7669 52.2345C23.6169 52.0845 23.4134 52.0002 23.2012 52.0002H13.6012C13.3891 52.0002 13.1856 52.0845 13.0356 52.2345C12.8856 52.3845 12.8013 52.588 12.8012 52.8002V65.6002H10.4012C10.2952 65.5987 10.19 65.6183 10.0916 65.6578C9.99323 65.6973 9.90369 65.756 9.8282 65.8305C9.7527 65.9049 9.69275 65.9936 9.65183 66.0914C9.61092 66.1892 9.58984 66.2942 9.58984 66.4002C9.58984 66.5062 9.61092 66.6112 9.65183 66.709C9.69275 66.8068 9.7527 66.8955 9.8282 66.9699C9.90369 67.0443 9.99323 67.103 10.0916 67.1426C10.19 67.1821 10.2952 67.2017 10.4012 67.2002H13.6012H23.2012H28.0012H37.6012H42.4012H52.0012H56.8012H66.4012H69.6012C69.7072 67.2017 69.8125 67.1821 69.9109 67.1426C70.0093 67.103 70.0988 67.0443 70.1743 66.9699C70.2498 66.8955 70.3097 66.8068 70.3506 66.709C70.3916 66.6112 70.4126 66.5062 70.4126 66.4002C70.4126 66.2942 70.3916 66.1892 70.3506 66.0914C70.3097 65.9936 70.2498 65.9049 70.1743 65.8305C70.0988 65.756 70.0093 65.6973 69.9109 65.6578C69.8125 65.6183 69.7072 65.5987 69.6012 65.6002H67.2012V14.4002C67.2012 14.188 67.1169 13.9845 66.9669 13.8345C66.8169 13.6845 66.6134 13.6002 66.4012 13.6002H56.8012ZM57.6012 15.2002H65.6012V65.6002H57.6012V15.2002ZM59.595 16.7939C59.5425 16.7947 59.4906 16.8059 59.4424 16.8268C59.3942 16.8476 59.3505 16.8778 59.314 16.9155C59.2774 16.9532 59.2486 16.9978 59.2293 17.0466C59.2099 17.0955 59.2004 17.1476 59.2012 17.2002V18.8002C59.2005 18.8532 59.2103 18.9058 59.23 18.955C59.2498 19.0042 59.2792 19.049 59.3164 19.0867C59.3536 19.1244 59.3979 19.1544 59.4468 19.1749C59.4957 19.1953 59.5482 19.2059 59.6012 19.2059C59.6543 19.2059 59.7067 19.1953 59.7556 19.1749C59.8045 19.1544 59.8489 19.1244 59.8861 19.0867C59.9233 19.049 59.9527 19.0042 59.9724 18.955C59.9922 18.9058 60.002 18.8532 60.0012 18.8002V17.2002C60.0021 17.1466 59.9921 17.0934 59.972 17.0437C59.9519 16.9941 59.922 16.9489 59.8841 16.911C59.8462 16.8732 59.8011 16.8433 59.7514 16.8231C59.7018 16.803 59.6486 16.7931 59.595 16.7939ZM59.595 20.7939C59.5425 20.7947 59.4906 20.8059 59.4424 20.8268C59.3942 20.8476 59.3505 20.8778 59.314 20.9155C59.2774 20.9532 59.2486 20.9978 59.2293 21.0466C59.2099 21.0955 59.2004 21.1476 59.2012 21.2002V24.4002C59.2005 24.4532 59.2103 24.5058 59.23 24.555C59.2498 24.6042 59.2792 24.649 59.3164 24.6867C59.3536 24.7244 59.3979 24.7544 59.4468 24.7749C59.4957 24.7953 59.5482 24.8059 59.6012 24.8059C59.6543 24.8059 59.7067 24.7953 59.7556 24.7749C59.8045 24.7544 59.8489 24.7244 59.8861 24.6867C59.9233 24.649 59.9527 24.6042 59.9724 24.555C59.9922 24.5058 60.002 24.4532 60.0012 24.4002V21.2002C60.0021 21.1466 59.9921 21.0934 59.972 21.0437C59.9519 20.9941 59.922 20.9489 59.8841 20.911C59.8462 20.8732 59.8011 20.8433 59.7514 20.8231C59.7018 20.803 59.6486 20.7931 59.595 20.7939ZM59.595 26.3939C59.5425 26.3947 59.4906 26.4059 59.4424 26.4268C59.3942 26.4476 59.3505 26.4778 59.314 26.5155C59.2774 26.5532 59.2486 26.5978 59.2293 26.6466C59.2099 26.6955 59.2004 26.7476 59.2012 26.8002V63.6002C59.2005 63.6532 59.2103 63.7058 59.23 63.755C59.2498 63.8042 59.2792 63.849 59.3164 63.8867C59.3536 63.9244 59.3979 63.9544 59.4468 63.9749C59.4957 63.9953 59.5482 64.0059 59.6012 64.0059C59.6543 64.0059 59.7067 63.9953 59.7556 63.9749C59.8045 63.9544 59.8489 63.9244 59.8861 63.8867C59.9233 63.849 59.9527 63.8042 59.9724 63.755C59.9922 63.7058 60.002 63.6532 60.0012 63.6002V26.8002C60.0021 26.7466 59.9921 26.6934 59.972 26.6437C59.9519 26.5941 59.922 26.5489 59.8841 26.511C59.8462 26.4732 59.8011 26.4433 59.7514 26.4231C59.7018 26.403 59.6486 26.3931 59.595 26.3939ZM43.2012 29.6002H51.2012V65.6002H43.2012V29.6002ZM45.195 31.1939C45.1425 31.1947 45.0906 31.2059 45.0424 31.2268C44.9942 31.2476 44.9505 31.2778 44.914 31.3155C44.8774 31.3532 44.8486 31.3978 44.8293 31.4466C44.8099 31.4955 44.8004 31.5476 44.8012 31.6002V33.2002C44.8005 33.2532 44.8103 33.3058 44.83 33.355C44.8498 33.4042 44.8792 33.4489 44.9164 33.4867C44.9536 33.5244 44.9979 33.5544 45.0468 33.5749C45.0957 33.5953 45.1482 33.6059 45.2012 33.6059C45.2542 33.6059 45.3067 33.5953 45.3556 33.5749C45.4045 33.5544 45.4489 33.5244 45.4861 33.4867C45.5233 33.4489 45.5527 33.4042 45.5724 33.355C45.5922 33.3058 45.602 33.2532 45.6012 33.2002V31.6002C45.6021 31.5466 45.5921 31.4934 45.572 31.4437C45.5519 31.3941 45.522 31.3489 45.4841 31.311C45.4462 31.2732 45.4011 31.2433 45.3514 31.2231C45.3018 31.203 45.2486 31.1931 45.195 31.1939ZM45.195 35.1939C45.1425 35.1947 45.0906 35.2059 45.0424 35.2268C44.9942 35.2476 44.9505 35.2778 44.914 35.3155C44.8774 35.3532 44.8486 35.3978 44.8293 35.4466C44.8099 35.4955 44.8004 35.5476 44.8012 35.6002V38.8002C44.8005 38.8532 44.8103 38.9058 44.83 38.955C44.8498 39.0042 44.8792 39.049 44.9164 39.0867C44.9536 39.1244 44.9979 39.1544 45.0468 39.1749C45.0957 39.1953 45.1482 39.2059 45.2012 39.2059C45.2542 39.2059 45.3067 39.1953 45.3556 39.1749C45.4045 39.1544 45.4489 39.1244 45.4861 39.0867C45.5233 39.049 45.5527 39.0042 45.5724 38.955C45.5922 38.9058 45.602 38.8532 45.6012 38.8002V35.6002C45.6021 35.5466 45.5921 35.4934 45.572 35.4437C45.5519 35.3941 45.522 35.3489 45.4841 35.311C45.4462 35.2732 45.4011 35.2433 45.3514 35.2231C45.3018 35.203 45.2486 35.1931 45.195 35.1939ZM45.195 40.7939C45.1425 40.7947 45.0906 40.8059 45.0424 40.8268C44.9942 40.8476 44.9505 40.8778 44.914 40.9155C44.8774 40.9532 44.8486 40.9978 44.8293 41.0466C44.8099 41.0955 44.8004 41.1476 44.8012 41.2002V63.6002C44.8005 63.6532 44.8103 63.7058 44.83 63.755C44.8498 63.8042 44.8792 63.849 44.9164 63.8867C44.9536 63.9244 44.9979 63.9544 45.0468 63.9749C45.0957 63.9953 45.1482 64.0059 45.2012 64.0059C45.2542 64.0059 45.3067 63.9953 45.3556 63.9749C45.4045 63.9544 45.4489 63.9244 45.4861 63.8867C45.5233 63.849 45.5527 63.8042 45.5724 63.755C45.5922 63.7058 45.602 63.6532 45.6012 63.6002V41.2002C45.6021 41.1466 45.5921 41.0934 45.572 41.0437C45.5519 40.9941 45.522 40.9489 45.4841 40.911C45.4462 40.8732 45.4011 40.8433 45.3514 40.8231C45.3018 40.803 45.2486 40.7931 45.195 40.7939ZM28.8012 42.4002H36.8012V65.6002H28.8012V42.4002ZM30.795 43.9939C30.7425 43.9947 30.6906 44.0059 30.6424 44.0268C30.5942 44.0476 30.5505 44.0778 30.514 44.1155C30.4774 44.1532 30.4486 44.1978 30.4293 44.2466C30.41 44.2955 30.4004 44.3476 30.4012 44.4002V46.0002C30.4005 46.0532 30.4103 46.1058 30.43 46.155C30.4498 46.2042 30.4792 46.249 30.5164 46.2867C30.5536 46.3244 30.5979 46.3544 30.6468 46.3749C30.6957 46.3953 30.7482 46.4059 30.8012 46.4059C30.8542 46.4059 30.9067 46.3953 30.9556 46.3749C31.0045 46.3544 31.0489 46.3244 31.0861 46.2867C31.1233 46.249 31.1527 46.2042 31.1724 46.155C31.1922 46.1058 31.202 46.0532 31.2012 46.0002V44.4002C31.2021 44.3466 31.1921 44.2934 31.172 44.2437C31.1519 44.1941 31.122 44.1489 31.0841 44.111C31.0462 44.0732 31.0011 44.0433 30.9514 44.0231C30.9018 44.003 30.8486 43.9931 30.795 43.9939ZM30.795 47.9939C30.7425 47.9947 30.6906 48.0059 30.6424 48.0268C30.5942 48.0476 30.5505 48.0778 30.514 48.1155C30.4774 48.1532 30.4486 48.1978 30.4293 48.2466C30.41 48.2955 30.4004 48.3476 30.4012 48.4002V63.6002C30.4005 63.6532 30.4103 63.7058 30.43 63.755C30.4498 63.8042 30.4792 63.849 30.5164 63.8867C30.5536 63.9244 30.5979 63.9544 30.6468 63.9749C30.6957 63.9953 30.7482 64.0059 30.8012 64.0059C30.8542 64.0059 30.9067 63.9953 30.9556 63.9749C31.0045 63.9544 31.0489 63.9244 31.0861 63.8867C31.1233 63.849 31.1527 63.8042 31.1724 63.755C31.1922 63.7058 31.202 63.6532 31.2012 63.6002V48.4002C31.2021 48.3466 31.1921 48.2934 31.172 48.2437C31.1519 48.1941 31.122 48.1489 31.0841 48.111C31.0462 48.0732 31.0011 48.0433 30.9514 48.0231C30.9018 48.003 30.8486 47.9931 30.795 47.9939ZM14.4012 53.6002H22.4012V65.6002H14.4012V53.6002ZM16.395 55.1939C16.3425 55.1947 16.2906 55.2059 16.2424 55.2268C16.1942 55.2476 16.1505 55.2778 16.114 55.3155C16.0774 55.3532 16.0486 55.3978 16.0293 55.4466C16.0099 55.4955 16.0004 55.5476 16.0012 55.6002V57.2002C16.0005 57.2532 16.0103 57.3058 16.03 57.355C16.0498 57.4042 16.0792 57.449 16.1164 57.4867C16.1536 57.5244 16.1979 57.5544 16.2468 57.5749C16.2957 57.5953 16.3482 57.6059 16.4012 57.6059C16.4542 57.6059 16.5067 57.5953 16.5556 57.5749C16.6045 57.5544 16.6489 57.5244 16.6861 57.4867C16.7233 57.449 16.7527 57.4042 16.7724 57.355C16.7922 57.3058 16.802 57.2532 16.8012 57.2002V55.6002C16.8021 55.5466 16.7921 55.4934 16.772 55.4437C16.7519 55.3941 16.722 55.3489 16.6841 55.311C16.6462 55.2732 16.6011 55.2433 16.5514 55.2231C16.5018 55.203 16.4486 55.1931 16.395 55.1939ZM16.395 59.1939C16.3425 59.1947 16.2906 59.2059 16.2424 59.2268C16.1942 59.2476 16.1505 59.2778 16.114 59.3155C16.0774 59.3532 16.0486 59.3978 16.0293 59.4466C16.0099 59.4955 16.0004 59.5476 16.0012 59.6002V64.4002C16.0005 64.4532 16.0103 64.5058 16.03 64.555C16.0498 64.6042 16.0792 64.649 16.1164 64.6867C16.1536 64.7244 16.1979 64.7544 16.2468 64.7749C16.2957 64.7953 16.3482 64.8059 16.4012 64.8059C16.4542 64.8059 16.5067 64.7953 16.5556 64.7749C16.6045 64.7544 16.6489 64.7244 16.6861 64.6867C16.7233 64.649 16.7527 64.6042 16.7724 64.555C16.7922 64.5058 16.802 64.4532 16.8012 64.4002V59.6002C16.8021 59.5466 16.7921 59.4934 16.772 59.4437C16.7519 59.3941 16.722 59.3489 16.6841 59.311C16.6462 59.2732 16.6011 59.2433 16.5514 59.2231C16.5018 59.203 16.4486 59.1931 16.395 59.1939Z" fill="#F23F34"/>
</svg>
