<svg width="80" height="80" viewBox="0 0 80 80" fill="none" xmlns="http://www.w3.org/2000/svg">
<path d="M44.794 8.80486C44.5585 8.79795 44.3222 8.80789 44.0862 8.83455C43.4568 8.90564 42.8317 9.09824 42.2455 9.42049L41.6393 9.7533C40.6173 10.3164 39.38 10.3164 38.358 9.7533L37.7533 9.42205C35.4088 8.13303 32.4446 8.92616 31.0596 11.2158L30.7002 11.8064C30.0941 12.8064 29.0244 13.4255 27.858 13.4502L27.1658 13.4658C24.4907 13.5207 22.3199 15.6911 22.2658 18.3674L22.2502 19.058C22.2262 20.2256 21.6064 21.2977 20.608 21.9002L20.0158 22.2596C17.7272 23.6455 16.933 26.6101 18.2221 28.9549L18.5549 29.5611C19.1181 30.5831 19.1181 31.8204 18.5549 32.8424L18.2221 33.4471C16.9332 35.7914 17.7261 38.7566 20.0174 40.1424L20.608 40.5017C21.608 41.1078 22.2256 42.1776 22.2502 43.3439L22.2658 44.0361C22.299 45.65 23.1056 47.0763 24.3252 47.9689L17.6549 65.3127C17.6033 65.4469 17.5888 65.5927 17.613 65.7345C17.6371 65.8763 17.6991 66.0089 17.7924 66.1185C17.8856 66.2281 18.0067 66.3104 18.1428 66.357C18.2789 66.4035 18.4251 66.4125 18.5658 66.383L25.644 64.8924L29.7424 70.8533C29.8249 70.9734 29.9387 71.0688 30.0714 71.129C30.2041 71.1892 30.3508 71.212 30.4955 71.195C30.6403 71.1779 30.7776 71.1217 30.8927 71.0323C31.0078 70.9428 31.0963 70.8237 31.1487 70.6877L38.0127 52.8392L38.3612 52.6471C39.3831 52.0839 40.622 52.0839 41.644 52.6471L41.9909 52.8377L48.8549 70.6877C48.9072 70.8237 48.9957 70.9428 49.1109 71.0323C49.226 71.1217 49.3633 71.1779 49.508 71.195C49.6528 71.212 49.7994 71.1892 49.9322 71.129C50.0649 71.0688 50.1787 70.9734 50.2612 70.8533L54.3596 64.8924L61.4377 66.383C61.5785 66.4125 61.7247 66.4035 61.8608 66.357C61.9969 66.3104 62.118 66.2281 62.2112 66.1185C62.3045 66.0089 62.3664 65.8763 62.3906 65.7345C62.4148 65.5927 62.4003 65.4469 62.3487 65.3127L55.6784 47.9705C56.8991 47.078 57.7061 45.6514 57.7393 44.0361V44.0346L57.7549 43.3439C57.7789 42.1763 58.3972 41.1042 59.3955 40.5017H59.3971L59.9877 40.1424C62.2764 38.7565 63.0722 35.7918 61.783 33.4471L61.7815 33.4439L61.444 32.8392C60.8825 31.8179 60.8829 30.5805 61.4455 29.5596L61.7784 28.9549C63.0671 26.6109 62.2751 23.644 59.9846 22.258H59.983L59.394 21.9002C58.394 21.2941 57.7749 20.2228 57.7502 19.0564L57.7346 18.3658V18.3642C57.6797 15.6896 55.5097 13.5201 52.8346 13.4642H52.833L52.1424 13.4486C50.9748 13.4246 49.9027 12.8063 49.3002 11.808V11.8064L48.9409 11.2158C48.0314 9.71278 46.442 8.85328 44.794 8.80486ZM35.2455 10.3986C35.4055 10.3943 35.5662 10.4019 35.7268 10.4205C36.155 10.4701 36.5812 10.6027 36.983 10.8236L37.5846 11.1549C39.0858 11.9821 40.9099 11.9821 42.4112 11.1549L43.0159 10.8221C44.6234 9.93823 46.6219 10.4735 47.5721 12.0439L47.9299 12.6346C48.8151 14.1014 50.3947 15.0129 52.108 15.0486L52.8002 15.0642C54.6358 15.102 56.0991 16.5641 56.1362 18.3986V18.4002L56.1502 19.0908C56.1864 20.8029 57.0987 22.3806 58.5643 23.2689L59.1549 23.6267H59.1565C60.7276 24.5769 61.2607 26.5753 60.3768 28.183L60.044 28.7877C59.2167 30.2889 59.2167 32.113 60.044 33.6142L60.0455 33.6158V33.6174L60.383 34.2221C61.2632 35.8285 60.7271 37.8244 59.1596 38.7736L58.569 39.1314C57.1022 40.0167 56.1906 41.5962 56.1549 43.3096L56.1393 44.0017C56.1145 45.2285 55.4452 46.2784 54.4612 46.858C54.3524 46.8901 54.2518 46.945 54.1659 47.0189C53.7502 47.2109 53.293 47.3278 52.8049 47.3377H52.8034L52.1127 47.3517C50.4007 47.3879 48.8229 48.3002 47.9346 49.7658L47.5768 50.3564V50.358C46.6266 51.9291 44.6282 52.4622 43.0205 51.5783L42.4158 51.2455C40.9146 50.4182 39.0905 50.4182 37.5893 51.2455L36.9846 51.5783C35.3774 52.462 33.3784 51.9254 32.4283 50.3564L32.0705 49.7674C31.185 48.3001 29.6064 47.387 27.8924 47.3517L27.2018 47.3377H27.2002C26.71 47.3276 26.2499 47.2092 25.833 47.0158C25.752 46.9469 25.6579 46.8948 25.5565 46.8627C24.5656 46.2846 23.8907 45.2332 23.8658 44.0017L23.8502 43.3111V43.3096C23.8135 41.5981 22.9029 40.021 21.4377 39.133L20.8455 38.7736C19.2744 37.8234 18.7398 35.825 19.6237 34.2174L19.9565 33.6158V33.6142C20.783 32.1133 20.7835 30.29 19.9565 28.7892L19.6237 28.1846C18.74 26.5773 19.2766 24.5784 20.8455 23.6283L21.4346 23.2705L21.4362 23.2689C22.9018 22.3835 23.8145 20.805 23.8502 19.0924V19.0908L23.8643 18.4002C23.9014 16.5649 25.3657 15.1013 27.2002 15.0642L27.8908 15.0502C29.6029 15.014 31.1807 14.1017 32.069 12.6361L32.4283 12.0455V12.0439C33.0514 11.0139 34.1261 10.429 35.2455 10.3986ZM40.0018 14.4002C30.728 14.4002 23.2018 21.9264 23.2018 31.2002C23.2018 40.4739 30.728 48.0002 40.0018 48.0002C49.1372 48.0002 56.5619 40.6931 56.7815 31.6096C56.7839 31.5035 56.7442 31.4008 56.6709 31.324C56.5977 31.2473 56.4969 31.2028 56.3909 31.2003C56.2848 31.1978 56.1821 31.2376 56.1053 31.3108C56.0285 31.384 55.984 31.4847 55.9815 31.5908C55.7722 40.2496 48.7111 47.2002 40.0018 47.2002C31.1604 47.2002 24.0018 40.0416 24.0018 31.2002C24.0018 22.3587 31.1604 15.2002 40.0018 15.2002C42.6803 15.2002 45.1978 15.865 47.4159 17.0283C47.4625 17.055 47.5141 17.072 47.5674 17.0784C47.6208 17.0847 47.6749 17.0802 47.7265 17.0652C47.7781 17.0502 47.8262 17.0249 47.8678 16.9909C47.9094 16.9568 47.9437 16.9148 47.9687 16.8672C47.9937 16.8196 48.0089 16.7675 48.0133 16.7139C48.0177 16.6603 48.0113 16.6064 47.9944 16.5554C47.9775 16.5044 47.9505 16.4573 47.915 16.4169C47.8795 16.3765 47.8362 16.3438 47.7877 16.3205C45.4602 15.0998 42.8129 14.4002 40.0018 14.4002ZM49.6799 17.5971C49.597 17.6012 49.5174 17.6311 49.4522 17.6825C49.387 17.734 49.3395 17.8044 49.3161 17.8841C49.2928 17.9637 49.2948 18.0487 49.3219 18.1272C49.349 18.2057 49.3999 18.2738 49.4674 18.3221C50.6738 19.2106 51.7489 20.2593 52.6627 21.4439C52.6946 21.486 52.7344 21.5214 52.78 21.5481C52.8256 21.5747 52.876 21.592 52.9283 21.5991C52.9807 21.6062 53.0339 21.6028 53.0849 21.5892C53.1359 21.5756 53.1837 21.552 53.2256 21.5199C53.2674 21.4877 53.3025 21.4475 53.3288 21.4017C53.3551 21.356 53.372 21.3054 53.3787 21.253C53.3853 21.2007 53.3815 21.1475 53.3675 21.0966C53.3535 21.0457 53.3296 20.998 53.2971 20.9564C52.3373 19.7123 51.2081 18.6105 49.9424 17.6783C49.8673 17.6211 49.7743 17.5923 49.6799 17.5971ZM54.5252 23.1955C54.4559 23.1955 54.3878 23.2135 54.3276 23.2478C54.2674 23.2821 54.2171 23.3314 54.1816 23.3909C54.1462 23.4505 54.1268 23.5182 54.1254 23.5875C54.124 23.6567 54.1407 23.7252 54.1737 23.7861C54.565 24.5329 54.8955 25.3148 55.1674 26.1267C55.1819 26.1791 55.2069 26.2279 55.2408 26.2703C55.2748 26.3127 55.317 26.3477 55.3649 26.3732C55.4129 26.3988 55.4655 26.4143 55.5196 26.4188C55.5737 26.4233 55.6282 26.4168 55.6797 26.3996C55.7312 26.3824 55.7787 26.3549 55.8192 26.3187C55.8598 26.2826 55.8925 26.2386 55.9155 26.1894C55.9385 26.1401 55.9512 26.0868 55.9528 26.0325C55.9545 25.9782 55.9451 25.9241 55.9252 25.8736C55.6404 25.0231 55.2934 24.2003 54.8815 23.4142C54.848 23.3485 54.7971 23.2932 54.7342 23.2546C54.6713 23.216 54.599 23.1956 54.5252 23.1955ZM49.0893 24.8064C48.5774 24.8356 48.0772 25.0575 47.7112 25.4674C47.7112 25.4679 47.7112 25.4684 47.7112 25.4689L39.2549 34.9392L34.7393 29.5205C34.0351 28.6758 32.7667 28.561 31.9221 29.2642C31.0781 29.9689 30.9621 31.2363 31.6658 32.0814L37.6658 39.2814C38.0378 39.7284 38.5861 39.9902 39.1674 40.0002C39.17 40.0002 39.1726 40.0002 39.1752 40.0002H39.2018C39.7709 40.0002 40.3137 39.7572 40.694 39.333C40.694 39.3325 40.694 39.3319 40.694 39.3314L50.694 28.133V28.1314C51.4258 27.3109 51.3549 26.0397 50.5346 25.308C50.1243 24.9415 49.6012 24.7773 49.0893 24.8064ZM49.1346 25.6002C49.4405 25.5827 49.7529 25.6826 50.0018 25.9049C50.4995 26.3488 50.5418 27.1008 50.0971 27.5986L40.0971 38.7986C39.8679 39.0537 39.5426 39.2002 39.2018 39.2002H39.1815C38.8316 39.1942 38.5031 39.0371 38.2799 38.7689L32.2799 31.5689C31.8525 31.0557 31.9218 30.3065 32.4346 29.8783C32.9467 29.4531 33.697 29.5213 34.1237 30.033L38.9362 35.808C38.973 35.8522 39.019 35.8879 39.071 35.9127C39.1229 35.9375 39.1796 35.9508 39.2371 35.9517C39.2947 35.9526 39.3518 35.941 39.4044 35.9179C39.4571 35.8947 39.5042 35.8604 39.5424 35.8174L48.308 26.0017C48.53 25.7532 48.8287 25.6176 49.1346 25.6002ZM25.758 48.7017C26.204 48.8438 26.6761 48.9259 27.1658 48.9361L27.858 48.9517H27.8596C29.0273 48.9757 30.0977 49.5956 30.7002 50.5939H30.7018L31.0596 51.1861C31.6581 52.1744 32.5522 52.8823 33.5627 53.2658L32.7205 55.4564C32.6824 55.5555 32.6852 55.6656 32.7283 55.7626C32.7713 55.8596 32.8512 55.9355 32.9502 55.9736C33.0493 56.0117 33.1594 56.009 33.2564 55.9659C33.3534 55.9228 33.4293 55.843 33.4674 55.7439L34.3346 53.4877C34.8871 53.6019 35.4598 53.6212 36.0268 53.5455L30.2002 68.6955L26.6612 63.5471C26.5717 63.417 26.4458 63.3163 26.2993 63.2577C26.1528 63.199 25.9922 63.185 25.8377 63.2174L19.6768 64.5142L25.758 48.7017ZM54.2455 48.7033L60.3268 64.5142L54.1659 63.2174C54.0114 63.185 53.8508 63.199 53.7043 63.2577C53.5577 63.3163 53.4318 63.417 53.3424 63.5471L49.8034 68.6955L43.9768 53.5471C45.9008 53.8095 47.8855 52.9389 48.9455 51.1861L49.3034 50.5955C49.9094 49.5955 50.9808 48.9764 52.1471 48.9517L52.8377 48.9361C53.3275 48.9262 53.7994 48.8451 54.2455 48.7033ZM52.9159 50.3939C52.9023 50.3938 52.8887 50.3943 52.8752 50.3955C52.8127 50.4005 52.7521 50.4202 52.6986 50.4529C52.645 50.4856 52.5999 50.5305 52.5669 50.5839C52.5339 50.6373 52.5139 50.6977 52.5086 50.7602C52.5032 50.8228 52.5127 50.8857 52.5362 50.9439L54.383 55.7439C54.4019 55.793 54.4303 55.8378 54.4665 55.8759C54.5027 55.914 54.546 55.9446 54.5941 55.9659C54.6421 55.9872 54.6938 55.9989 54.7464 56.0002C54.7989 56.0015 54.8512 55.9925 54.9002 55.9736C54.9493 55.9547 54.9941 55.9264 55.0322 55.8902C55.0703 55.854 55.1009 55.8106 55.1222 55.7626C55.1435 55.7146 55.1552 55.6628 55.1565 55.6103C55.1578 55.5577 55.1488 55.5055 55.1299 55.4564L53.283 50.6564C53.2554 50.5808 53.2055 50.5153 53.14 50.4684C53.0745 50.4216 52.9964 50.3956 52.9159 50.3939ZM32.4612 56.7955C32.3827 56.7992 32.3071 56.826 32.2438 56.8724C32.1804 56.9188 32.1321 56.9828 32.1049 57.0564L31.183 59.4564C31.1642 59.5055 31.1551 59.5577 31.1565 59.6103C31.1578 59.6628 31.1694 59.7146 31.1908 59.7626C31.2121 59.8106 31.2427 59.854 31.2808 59.8902C31.3188 59.9264 31.3637 59.9547 31.4127 59.9736C31.4618 59.9925 31.514 60.0015 31.5666 60.0002C31.6191 59.9989 31.6709 59.9872 31.7189 59.9659C31.7669 59.9446 31.8103 59.914 31.8465 59.8759C31.8827 59.8378 31.911 59.793 31.9299 59.7439L32.8518 57.3439C32.8767 57.2817 32.8856 57.2142 32.8777 57.1477C32.8698 57.0811 32.8452 57.0176 32.8063 56.963C32.7674 56.9084 32.7154 56.8644 32.6551 56.8352C32.5948 56.8059 32.5281 56.7923 32.4612 56.7955ZM55.6846 57.5939C55.671 57.5938 55.6575 57.5943 55.644 57.5955C55.5814 57.6005 55.5209 57.6202 55.4673 57.6529C55.4138 57.6856 55.3686 57.7305 55.3356 57.7839C55.3026 57.8373 55.2826 57.8977 55.2773 57.9602C55.272 58.0228 55.2814 58.0857 55.3049 58.1439L56.5362 61.3439C56.5743 61.443 56.6502 61.5228 56.7472 61.5659C56.8442 61.609 56.9543 61.6117 57.0534 61.5736C57.1524 61.5355 57.2322 61.4596 57.2753 61.3626C57.3184 61.2656 57.3212 61.1555 57.283 61.0564L56.0518 57.8564C56.0241 57.7808 55.9743 57.7153 55.9088 57.6684C55.8432 57.6216 55.7651 57.5956 55.6846 57.5939ZM30.6158 61.5955C30.5374 61.5992 30.4618 61.6259 30.3985 61.6724C30.3351 61.7188 30.2868 61.7828 30.2596 61.8564L29.644 63.4564C29.6251 63.5055 29.6161 63.5577 29.6174 63.6103C29.6187 63.6628 29.6304 63.7146 29.6517 63.7626C29.673 63.8106 29.7036 63.854 29.7417 63.8902C29.7798 63.9264 29.8246 63.9547 29.8737 63.9736C29.9227 63.9925 29.975 64.0015 30.0275 64.0002C30.08 63.9989 30.1318 63.9872 30.1798 63.9659C30.2279 63.9446 30.2712 63.914 30.3074 63.8759C30.3436 63.8378 30.372 63.793 30.3908 63.7439L31.0065 62.1439C31.0314 62.0817 31.0403 62.0142 31.0324 61.9477C31.0244 61.8811 30.9999 61.8176 30.961 61.763C30.9221 61.7084 30.8701 61.6644 30.8098 61.6352C30.7495 61.6059 30.6828 61.5923 30.6158 61.5955Z" fill="#F23F34"/>
</svg>
