<svg width="32" height="32" viewBox="0 0 32 32" fill="none" xmlns="http://www.w3.org/2000/svg">
<g clip-path="url(#clip0)">
<path fill-rule="evenodd" clip-rule="evenodd" d="M22.055 28.5667C23.027 28.5667 23.9265 28.2816 24.6891 27.7973L28.2464 31.3547L29.4774 30.1236L25.9654 26.6206C26.5967 25.7924 26.9792 24.7662 26.9792 23.6426C26.9792 23.2796 26.94 22.9258 26.8657 22.5852C26.4486 20.6745 24.9243 19.1807 22.9971 18.8082C22.6922 18.7493 22.3773 18.7185 22.055 18.7185C21.9414 18.7185 21.8287 18.7223 21.7171 18.7298C19.1528 18.9031 17.1309 21.0339 17.1309 23.6426C17.1309 25.4172 18.0665 26.9706 19.472 27.8371C20.2226 28.2999 21.1073 28.5667 22.055 28.5667ZM18.3994 24.5526C18.3276 24.2614 18.2895 23.9566 18.2895 23.6426C18.2895 23.1203 18.3949 22.6235 18.5856 22.1721C19.1149 20.9196 20.3014 20.0169 21.7171 19.8919C21.8284 19.8821 21.9411 19.8771 22.055 19.8771C22.3805 19.8771 22.6962 19.918 22.9971 19.9951C24.6239 20.4115 25.8205 21.8828 25.8205 23.6426C25.8205 23.7241 25.818 23.8049 25.8129 23.885C25.8066 23.9853 25.7964 24.0845 25.7824 24.1825C25.5729 25.6521 24.5204 26.8436 23.1275 27.2543C23.0843 27.267 23.0409 27.2789 22.9971 27.2901C22.6962 27.3672 22.3805 27.4081 22.055 27.4081C21.9411 27.4081 21.8284 27.4031 21.7171 27.3933C20.0979 27.2504 18.7786 26.0901 18.3994 24.5526Z" fill="#F23F34"/>
<path fill-rule="evenodd" clip-rule="evenodd" d="M2.51709 9.91709V27.1971C2.51709 27.5521 2.80459 27.8371 3.15709 27.8371H18.27C17.1255 26.8038 16.4067 25.308 16.4067 23.6426C16.4067 20.6338 18.7525 18.1787 21.7171 18.0042V9.91709H2.51709ZM15.9571 12.4771H9.55709C9.20459 12.4771 8.91709 12.7646 8.91709 13.1171C8.91709 13.4696 9.20459 13.7571 9.55709 13.7571H15.9571C16.3121 13.7571 16.5971 13.4696 16.5971 13.1171C16.5971 12.7646 16.3121 12.4771 15.9571 12.4771Z" fill="#F23F34"/>
<path d="M20.2771 3.51709L14.4571 8.63709H22.0971L27.2371 3.51709H20.2771Z" fill="#F23F34"/>
<path d="M9.85709 3.51709C9.71709 3.51709 9.56959 3.57209 9.45709 3.65709L2.93709 8.63709H12.5171L18.3371 3.51709H9.85709Z" fill="#F23F34"/>
<path d="M28.1171 4.45709L22.9971 9.53709V18.0723C25.0847 18.422 26.7821 19.9146 27.4254 21.8861L27.9771 21.1971C28.0671 21.0821 28.1171 20.9421 28.1171 20.7971V4.45709Z" fill="#F23F34"/>
</g>
<defs>
<clipPath id="clip0">
<rect width="32" height="32" fill="white"/>
</clipPath>
</defs>
</svg>
