<svg width="80" height="80" viewBox="0 0 80 80" fill="none" xmlns="http://www.w3.org/2000/svg">
<path d="M37.2008 10.3999C23.7348 10.3999 12.8008 21.3339 12.8008 34.7999C12.8008 36.0676 12.9025 37.3098 13.0883 38.5218C13.1019 38.6074 13.1293 38.6903 13.1695 38.7671C13.7305 42.1964 14.9682 45.401 16.8055 48.1921C16.806 48.1921 16.8065 48.1921 16.807 48.1921C19.3642 52.0741 20.8008 56.5696 20.8008 61.1983V69.5999C20.7993 69.7059 20.8189 69.8112 20.8584 69.9095C20.8979 70.0079 20.9566 70.0974 21.0311 70.1729C21.1055 70.2484 21.1942 70.3084 21.292 70.3493C21.3898 70.3902 21.4948 70.4113 21.6008 70.4113C21.7068 70.4113 21.8118 70.3902 21.9096 70.3493C22.0074 70.3084 22.0961 70.2484 22.1705 70.1729C22.2449 70.0974 22.3036 70.0079 22.3432 69.9095C22.3827 69.8112 22.4023 69.7059 22.4008 69.5999V61.1983C22.4008 56.2383 20.861 51.4384 18.143 47.3124C16.386 44.6434 15.1894 41.5787 14.6852 38.2796C14.6797 38.2442 14.6719 38.2092 14.6617 38.1749C14.4972 37.0704 14.4008 35.9468 14.4008 34.7999C14.4008 22.1987 24.5996 11.9999 37.2008 11.9999C48.7307 11.9999 58.2424 20.5466 59.7789 31.6452C59.8454 32.124 59.9919 32.5998 60.2352 33.0405C60.2392 33.0479 60.2434 33.0552 60.2477 33.0624L65.4539 41.8233C65.7802 42.3728 65.5649 43.0511 64.9805 43.3108L59.6758 45.6687C59.5344 45.7315 59.4142 45.8341 59.3299 45.9639C59.2456 46.0937 59.2007 46.2451 59.2008 46.3999V52.7999C59.2008 56.786 55.9869 59.9999 52.0008 59.9999H47.6289H47.6008H47.2008H40.4008C40.3478 59.9992 40.2951 60.0089 40.246 60.0287C40.1968 60.0485 40.152 60.0778 40.1143 60.115C40.0765 60.1523 40.0465 60.1966 40.0261 60.2455C40.0056 60.2944 39.9951 60.3469 39.9951 60.3999C39.9951 60.4529 40.0056 60.5054 40.0261 60.5543C40.0465 60.6032 40.0765 60.6475 40.1143 60.6848C40.152 60.722 40.1968 60.7513 40.246 60.7711C40.2951 60.7909 40.3478 60.8007 40.4008 60.7999H46.4008V69.5999C46.3993 69.7059 46.4189 69.8112 46.4584 69.9095C46.4979 70.0079 46.5566 70.0974 46.6311 70.1729C46.7055 70.2484 46.7942 70.3084 46.892 70.3493C46.9898 70.3902 47.0948 70.4113 47.2008 70.4113C47.3068 70.4113 47.4118 70.3902 47.5096 70.3493C47.6074 70.3084 47.6961 70.2484 47.7705 70.1729C47.8449 70.0974 47.9036 70.0079 47.9432 69.9095C47.9827 69.8112 48.0023 69.7059 48.0008 69.5999V61.5999H52.0008C56.8515 61.5999 60.8008 57.6506 60.8008 52.7999V46.9202L65.6305 44.7733C67.0653 44.1355 67.6306 42.3559 66.8289 41.0062L61.6367 32.2671V32.2655C61.498 32.0139 61.4071 31.7296 61.3648 31.4249C59.7257 19.5851 49.5837 10.4685 37.3148 10.4108C37.2771 10.4045 37.239 10.4008 37.2008 10.3999ZM37.5945 20.8124C36.8734 20.8125 36.1568 20.871 35.4508 20.9874C34.866 21.085 34.4493 21.6033 34.4789 22.1905C34.5261 23.2313 34.1936 23.8231 33.3664 24.1687C32.532 24.5207 31.8751 24.3397 31.1727 23.5733C30.7703 23.1213 30.101 23.0541 29.6242 23.4093C28.4514 24.2589 27.4282 25.2865 26.5898 26.4577C26.2362 26.9369 26.3031 27.6015 26.7383 27.9983C27.4815 28.6895 27.6637 29.3294 27.3477 30.1374C27.0157 30.9846 26.4126 31.339 25.3742 31.3046C24.7878 31.2758 24.2826 31.7091 24.1914 32.2843C23.9634 33.6947 23.9664 35.1404 24.2008 36.5812C24.2936 37.1524 24.8118 37.5857 25.3742 37.5593C26.379 37.5281 26.9615 37.8679 27.3023 38.6671C27.6503 39.4903 27.4821 40.1443 26.7477 40.8483C26.3285 41.2435 26.2647 41.8965 26.6039 42.3749C27.4623 43.5557 28.4861 44.5772 29.6477 45.4108L29.6492 45.4093L29.8648 45.5312C30.2784 45.704 30.7841 45.6176 31.0617 45.3624C31.1217 45.3184 31.2087 45.2494 31.2383 45.2062C31.8079 44.6094 32.5856 44.409 33.2664 44.6858L33.3711 44.728H33.3727C34.0599 45.0496 34.4448 45.6887 34.432 46.5015C34.4296 47.2159 34.8873 47.7436 35.5945 47.8452C36.2505 47.9444 36.9154 47.9937 37.5898 47.9937C38.2354 47.9937 38.8899 47.9474 39.5539 47.853L39.732 47.8187C40.2912 47.7235 40.6961 47.2387 40.6961 46.6499C40.6777 45.7131 40.9657 45.1636 41.6633 44.814C42.5305 44.3756 43.2334 44.5265 44.007 45.3249C44.4046 45.7321 45.0532 45.7889 45.5148 45.4577C46.694 44.6185 47.7231 43.603 48.5727 42.439L48.5758 42.4343C48.9118 41.9663 48.852 41.3124 48.4352 40.9124C47.704 40.2124 47.5262 39.5725 47.8414 38.7733C48.1758 37.9293 48.7588 37.5765 49.818 37.6093C50.3436 37.6213 50.8192 37.2858 50.9648 36.7874C51.2744 35.7786 51.2821 33.0414 50.9773 32.139C50.8125 31.6502 50.3362 31.3267 49.8258 31.3483C48.7914 31.3875 48.2197 31.0552 47.8773 30.2296C47.5309 29.3976 47.7153 28.7371 48.4977 28.0187C48.9305 27.6179 48.9994 26.9571 48.657 26.4843C47.7994 25.2883 46.7726 24.257 45.6102 23.4202C45.1278 23.0674 44.4594 23.1362 44.057 23.5858C43.2282 24.5138 42.5017 24.4114 42.0273 24.253C41.0841 23.9354 40.7012 23.318 40.7492 22.1812C40.7716 21.5836 40.344 21.0682 39.7664 20.9858C39.0408 20.8698 38.3156 20.8123 37.5945 20.8124ZM37.6039 22.4124C38.1156 22.4126 38.6308 22.4472 39.1492 22.514C39.2092 24.5548 40.4507 25.4118 41.5195 25.7718C42.4139 26.0702 43.7134 26.1485 44.9742 24.9405C45.7798 25.5613 46.5047 26.2907 47.1367 27.1171C45.8359 28.5011 46.0048 29.8941 46.3992 30.8437C46.792 31.7901 47.6507 32.8931 49.5227 32.9499C49.6275 33.6803 49.6319 35.2036 49.5023 36.014C47.5903 36.0924 46.7347 37.2202 46.3523 38.1858C45.9923 39.0994 45.8442 40.441 47.0586 41.789C46.4282 42.597 45.6966 43.3189 44.8758 43.9421C43.387 42.6069 41.9293 42.8891 40.9461 43.3843C39.7893 43.9643 39.1695 44.9502 39.1023 46.303C38.0727 46.4302 37.0449 46.4249 36.0289 46.2905C35.9737 44.8937 35.194 43.7554 33.9164 43.2202L33.7602 43.1608C32.5906 42.7336 31.3152 42.9991 30.2992 43.9015C29.4864 43.2815 28.7563 42.5512 28.1227 41.7312C29.3587 40.356 29.1733 38.9813 28.7773 38.0437C28.3877 37.1293 27.5465 36.0607 25.7305 35.9671C25.5937 34.9383 25.5899 33.9118 25.7211 32.903C27.6139 32.815 28.4606 31.6866 28.8398 30.7218C29.2006 29.7986 29.347 28.4486 28.107 27.1062C28.7294 26.2902 29.4512 25.5608 30.2664 24.9296C31.6464 26.2248 33.0395 26.0437 33.9883 25.6437C34.9323 25.2493 36.0292 24.3892 36.0836 22.5124C36.5848 22.4464 37.0922 22.4122 37.6039 22.4124ZM37.6008 27.9999C35.2216 27.9999 33.0526 29.3076 31.9398 31.4124C31.8366 31.6076 31.9118 31.8498 32.107 31.953C32.1662 31.9842 32.2298 31.9999 32.293 31.9999C32.4362 31.9999 32.5757 31.9218 32.6477 31.7858C33.0953 30.9391 33.7435 30.2491 34.5102 29.7405L35.1055 32.4202C34.6709 32.9666 34.4008 33.6489 34.4008 34.3999C34.4008 35.2497 34.7384 36.0186 35.2805 36.5921L33.4008 38.0968C32.7689 37.3819 32.3125 36.5025 32.1133 35.5202C32.0693 35.3034 31.8598 35.1653 31.6414 35.2077C31.4246 35.2517 31.2849 35.4628 31.3289 35.6796C31.9305 38.646 34.5688 40.7999 37.6008 40.7999C38.4904 40.7999 39.3506 40.6207 40.1602 40.2671C40.3626 40.1791 40.4544 39.9429 40.3664 39.7405C40.2784 39.5373 40.0438 39.4455 39.8414 39.5343C39.1334 39.8431 38.38 39.9999 37.6008 39.9999C37.2213 39.9999 36.8494 39.9579 36.4883 39.8843L37.9664 37.5624C39.3309 37.4045 40.4373 36.3994 40.7242 35.078L43.0211 35.7749C42.7489 36.8443 42.1715 37.8244 41.3352 38.5733C41.1704 38.7205 41.1551 38.9742 41.3023 39.139C41.3823 39.2278 41.4912 39.2718 41.6008 39.2718C41.696 39.2718 41.7912 39.239 41.868 39.1702C43.224 37.9574 44.0023 36.2175 44.0023 34.3999C44.0023 33.0023 43.5587 31.6737 42.7211 30.5593C42.5891 30.3817 42.3385 30.3476 42.1617 30.4796C41.9841 30.6124 41.9492 30.8637 42.082 31.0405C42.814 32.0157 43.2008 33.1767 43.2008 34.3999C43.2008 34.5961 43.1899 34.7909 43.1695 34.9843L40.7867 34.2608C40.7134 32.5915 39.3644 31.2556 37.6883 31.2093L37.9539 28.8171C38.2121 28.8332 38.4688 28.8613 38.7211 28.9124C38.9387 28.9564 39.149 28.8151 39.193 28.5983C39.2362 28.3823 39.0973 28.172 38.8805 28.128C38.4613 28.0432 38.0312 27.9999 37.6008 27.9999ZM40.4352 28.6937C40.2796 28.6801 40.1241 28.7576 40.0461 28.9046C39.9429 29.0998 40.0189 29.342 40.2133 29.4452C40.4765 29.5836 40.7266 29.7427 40.9602 29.9187C41.0322 29.9731 41.1168 29.9999 41.2008 29.9999C41.3216 29.9999 41.4411 29.9453 41.5195 29.8405C41.6523 29.6637 41.6182 29.4124 41.4414 29.2796C41.1742 29.0788 40.8875 28.8974 40.5883 28.739C40.5393 28.7134 40.487 28.6982 40.4352 28.6937ZM37.1477 28.8312L36.8742 31.2905C36.4767 31.3836 36.1075 31.5472 35.782 31.7733L35.2383 29.3296C35.8324 29.0529 36.4767 28.8854 37.1477 28.8312ZM37.6008 32.7999C38.4832 32.7999 39.2008 33.5175 39.2008 34.3999C39.2008 35.2823 38.4832 35.9999 37.6008 35.9999C36.7184 35.9999 36.0008 35.2823 36.0008 34.3999C36.0008 33.5175 36.7184 32.7999 37.6008 32.7999ZM35.9164 37.1093C36.2524 37.319 36.6268 37.4689 37.0305 37.5421L35.6836 39.6593C35.0565 39.4295 34.484 39.0854 33.9805 38.6577L35.9164 37.1093ZM30.1008 44.0858C30.0784 44.109 30.0552 44.1322 30.032 44.1562C30.056 44.1271 30.0718 44.1098 30.0742 44.1062C30.0831 44.0992 30.0918 44.092 30.1008 44.0858ZM37.2008 59.9999C37.1478 59.9992 37.0951 60.0089 37.046 60.0287C36.9968 60.0485 36.952 60.0778 36.9143 60.115C36.8765 60.1523 36.8465 60.1966 36.8261 60.2455C36.8056 60.2944 36.7951 60.3469 36.7951 60.3999C36.7951 60.4529 36.8056 60.5054 36.8261 60.5543C36.8465 60.6032 36.8765 60.6475 36.9143 60.6848C36.952 60.722 36.9968 60.7513 37.046 60.7711C37.0951 60.7909 37.1478 60.8007 37.2008 60.7999H38.8008C38.8538 60.8007 38.9064 60.7909 38.9556 60.7711C39.0048 60.7513 39.0496 60.722 39.0873 60.6848C39.125 60.6475 39.155 60.6032 39.1755 60.5543C39.1959 60.5054 39.2065 60.4529 39.2065 60.3999C39.2065 60.3469 39.1959 60.2944 39.1755 60.2455C39.155 60.1966 39.125 60.1523 39.0873 60.115C39.0496 60.0778 39.0048 60.0485 38.9556 60.0287C38.9064 60.0089 38.8538 59.9992 38.8008 59.9999H37.2008Z" fill="#F23F34"/>
</svg>
