<svg width="18" height="18" viewBox="0 0 18 18" fill="none" xmlns="http://www.w3.org/2000/svg">
<path d="M9.00026 0.199951C5.62546 0.199951 2.11523 0.960498 2.11523 0.960498L2.11237 0.963362C1.78021 1.02985 1.48131 1.20927 1.26643 1.47115C1.05156 1.73302 0.933951 2.0612 0.933594 2.39995V6.79995C0.933594 14.4251 8.28268 17.6123 8.28268 17.6123C8.50185 17.7353 8.74894 17.7999 9.00026 17.7999C9.25061 17.7994 9.49665 17.7348 9.71497 17.6123H9.71784C9.71857 17.6123 17.0669 14.4251 17.0669 6.79995V2.39995C17.0671 2.06031 16.9494 1.73113 16.7339 1.46861C16.5184 1.20609 16.2185 1.0265 15.8853 0.960498C15.8853 0.960498 12.3751 0.199951 9.00026 0.199951ZM13.4003 4.59995C13.5878 4.59995 13.7754 4.67143 13.9188 4.81479C14.2055 5.10153 14.2055 5.56504 13.9188 5.85177L8.37435 11.3962C8.23648 11.534 8.05019 11.611 7.85586 11.611C7.66153 11.611 7.4745 11.534 7.33737 11.3962L4.80508 8.86388C4.51835 8.57715 4.51835 8.11364 4.80508 7.8269C5.09181 7.54017 5.55532 7.54017 5.84206 7.8269L7.85586 9.8407L12.8818 4.81479C13.0251 4.67143 13.2127 4.59995 13.4003 4.59995Z" fill="#F23F34"/>
</svg>
