<svg width="36" height="36" viewBox="0 0 36 36" fill="none" xmlns="http://www.w3.org/2000/svg">
<path d="M5.75988 1.43994V4.31994H2.87988V34.5599H10.7999V28.0799H13.6799V34.5599H21.5999V4.31994H18.7199V1.43994H5.75988ZM7.19988 7.19994H8.63988V8.63994H7.19988V7.19994ZM10.0799 7.19994H11.5199V8.63994H10.0799V7.19994ZM12.9599 7.19994H14.3999V8.63994H12.9599V7.19994ZM15.8399 7.19994H17.2799V8.63994H15.8399V7.19994ZM23.0399 10.0799V12.9599H24.4799V14.3999H23.0399V15.8399H24.4799V17.2799H23.0399V18.7199H24.4799V20.1599H23.0399V21.5999H24.4799V23.0399H23.0399V24.4799H24.4799V25.9199H23.0399V27.3599H24.4799V28.7999H23.0399V30.2399H24.4799V31.6799H23.0399V34.5599H33.1199V10.0799H23.0399ZM7.19988 10.7999H8.63988V13.6799H7.19988V10.7999ZM10.0799 10.7999H11.5199V13.6799H10.0799V10.7999ZM12.9599 10.7999H14.3999V13.6799H12.9599V10.7999ZM15.8399 10.7999H17.2799V13.6799H15.8399V10.7999ZM25.9199 12.9599H27.3599V14.3999H25.9199V12.9599ZM28.7999 12.9599H30.2399V14.3999H28.7999V12.9599ZM7.19988 15.1199H8.63988V17.9999H7.19988V15.1199ZM10.0799 15.1199H11.5199V17.9999H10.0799V15.1199ZM12.9599 15.1199H14.3999V17.9999H12.9599V15.1199ZM15.8399 15.1199H17.2799V17.9999H15.8399V15.1199ZM25.9199 15.8399H27.3599V17.2799H25.9199V15.8399ZM28.7999 15.8399H30.2399V17.2799H28.7999V15.8399ZM25.9199 18.7199H27.3599V20.1599H25.9199V18.7199ZM28.7999 18.7199H30.2399V20.1599H28.7999V18.7199ZM7.19988 19.4399H8.63988V22.3199H7.19988V19.4399ZM10.0799 19.4399H11.5199V22.3199H10.0799V19.4399ZM12.9599 19.4399H14.3999V22.3199H12.9599V19.4399ZM15.8399 19.4399H17.2799V22.3199H15.8399V19.4399ZM25.9199 21.5999H27.3599V23.0399H25.9199V21.5999ZM28.7999 21.5999H30.2399V23.0399H28.7999V21.5999ZM7.19988 23.7599H8.63988V26.6399H7.19988V23.7599ZM10.0799 23.7599H11.5199V26.6399H10.0799V23.7599ZM12.9599 23.7599H14.3999V26.6399H12.9599V23.7599ZM15.8399 23.7599H17.2799V26.6399H15.8399V23.7599ZM25.9199 24.4799H27.3599V25.9199H25.9199V24.4799ZM28.7999 24.4799H30.2399V25.9199H28.7999V24.4799ZM25.9199 27.3599H27.3599V28.7999H25.9199V27.3599ZM28.7999 27.3599H30.2399V28.7999H28.7999V27.3599ZM7.19988 28.0799H8.63988V31.6799H7.19988V28.0799ZM15.8399 28.0799H17.2799V31.6799H15.8399V28.0799ZM25.9199 30.2399H27.3599V31.6799H25.9199V30.2399ZM28.7999 30.2399H30.2399V31.6799H28.7999V30.2399Z" fill="#F23F34"/>
</svg>
