<svg width="22" height="22" viewBox="0 0 22 22" fill="none" xmlns="http://www.w3.org/2000/svg">
<path d="M10.9989 1.31995C10.5125 1.31995 10.1189 1.71354 10.1189 2.19995C10.1189 2.68635 10.5125 3.07995 10.9989 3.07995C11.4853 3.07995 11.8789 2.68635 11.8789 2.19995C11.8789 1.71354 11.4853 1.31995 10.9989 1.31995ZM10.9989 3.95995C10.5125 3.95995 10.1189 4.35354 10.1189 4.83995C10.1189 5.32635 10.5125 5.71995 10.9989 5.71995C11.4853 5.71995 11.8789 5.32635 11.8789 4.83995C11.8789 4.35354 11.4853 3.95995 10.9989 3.95995ZM10.9027 6.5862C10.4489 6.63604 10.1086 7.02448 10.1189 7.47995V15.0424L8.53766 13.4612C8.37266 13.2876 8.14406 13.1879 7.90516 13.1862C7.54766 13.1896 7.22797 13.4079 7.09562 13.7396C6.96156 14.0714 7.04406 14.4495 7.30016 14.6987L10.2702 17.6549C10.2822 17.679 10.2959 17.7014 10.3114 17.7237L10.3802 17.7787C10.5675 17.9678 10.8287 18.0606 11.0934 18.0348C11.3581 18.0073 11.5953 17.8629 11.7414 17.6412L14.6977 14.6987C14.9606 14.4873 15.0792 14.1453 15.0036 13.817C14.928 13.487 14.6719 13.2309 14.3419 13.1553C14.0136 13.0796 13.6716 13.1982 13.4602 13.4612L11.8789 15.0424V7.47995C11.8823 7.24104 11.7895 7.01245 11.6211 6.84401C11.4527 6.67557 11.2241 6.58276 10.9852 6.5862C10.9577 6.58448 10.9302 6.58448 10.9027 6.5862ZM0.878906 14.5199V19.7587C0.878906 20.4995 1.49937 21.1199 2.24016 21.1199H19.7577C20.4984 21.1199 21.1189 20.4995 21.1189 19.7587V14.5199H19.3589V19.3599H2.63891V14.5199H0.878906Z" fill="#F23F34"/>
</svg>
