<svg width="18" height="18" viewBox="0 0 18 18" fill="none" xmlns="http://www.w3.org/2000/svg">
<path d="M16.7674 1.2335C16.4256 0.891778 15.977 0.720215 15.5285 0.720215C15.0799 0.720215 14.6313 0.891778 14.2895 1.2335C14.2895 1.2335 14.2642 1.2574 14.2319 1.29115C14.2291 1.29396 14.2249 1.29537 14.222 1.29818L1.54892 13.9699C1.50533 14.0149 1.47298 14.0697 1.45611 14.1316L0.733294 16.8274C0.699544 16.9512 0.7347 17.0833 0.826106 17.1747C0.895012 17.2437 0.986419 17.2802 1.08064 17.2802C1.11158 17.2802 1.14251 17.276 1.17345 17.2676L3.86923 16.5447C3.93111 16.5279 3.98595 16.4955 4.03095 16.4505L16.7027 3.78021C16.7069 3.776 16.7083 3.77037 16.7111 3.76615C16.7435 3.73381 16.766 3.71131 16.766 3.71131C17.4522 3.02646 17.4522 1.91693 16.7674 1.2335ZM16.2583 1.74256C16.6605 2.14475 16.6605 2.80006 16.2583 3.20225C16.1388 3.32037 16.0375 3.42303 15.9503 3.51021L14.4906 2.05053C14.6566 1.88459 14.7986 1.74256 14.7986 1.74256C14.9927 1.54709 15.2528 1.44021 15.5285 1.44021C15.8041 1.44021 16.0628 1.5485 16.2583 1.74256ZM2.01861 14.8151L3.18579 15.9822L1.5897 16.4111L2.01861 14.8151Z" fill="#1E97DB"/>
</svg>
