<svg width="18" height="18" viewBox="0 0 18 18" fill="none" xmlns="http://www.w3.org/2000/svg">
<path d="M8.99973 0.720215C4.42665 0.720215 0.719727 4.42713 0.719727 9.00021C0.719727 13.5733 4.42665 17.2802 8.99973 17.2802C13.5728 17.2802 17.2797 13.5733 17.2797 9.00021C17.2797 4.42713 13.5728 0.720215 8.99973 0.720215ZM8.99973 3.96021C9.59625 3.96021 10.0797 4.44369 10.0797 5.04021C10.0797 5.63673 9.59625 6.12021 8.99973 6.12021C8.40321 6.12021 7.91973 5.63673 7.91973 5.04021C7.91973 4.44369 8.40321 3.96021 8.99973 3.96021ZM10.4397 13.6802H9.71973H8.27973H7.55973V12.9602H8.27973V8.28021H7.55973V7.56021H8.27973H9.71973V8.28021V12.9602H10.4397V13.6802Z" fill="#F4A812"/>
</svg>
