<svg width="22" height="22" viewBox="0 0 22 22" fill="none" xmlns="http://www.w3.org/2000/svg">
<path d="M14.0798 4.84H16.2798C16.5227 4.84 16.7198 4.64288 16.7198 4.4V1.43572C16.7198 1.20516 16.5425 1.01332 16.3128 0.997045C15.6127 0.947325 14.2452 0.880005 13.2618 0.880005C10.5598 0.880005 8.79979 2.4992 8.79979 5.44193V8.36H5.71979C5.47691 8.36 5.27979 8.55712 5.27979 8.8V11.88C5.27979 12.1229 5.47691 12.32 5.71979 12.32H8.79979V20.68C8.79979 20.9229 8.99691 21.12 9.23979 21.12H12.3198C12.5627 21.12 12.7598 20.9229 12.7598 20.68V12.32H15.9375C16.1619 12.32 16.3502 12.1515 16.3748 11.9284L16.7171 8.8484C16.7462 8.58792 16.542 8.36 16.2798 8.36H12.7598V6.16C12.7598 5.43092 13.3507 4.84 14.0798 4.84Z" fill="white"/>
</svg>
