<svg width="36" height="36" viewBox="0 0 36 36" fill="none" xmlns="http://www.w3.org/2000/svg">
<g clip-path="url(#clip0)">
<path d="M28.8675 0C27.7369 0 26.8622 0.846562 26.865 1.8675L24.48 26.64V16.56C24.48 16.56 24.48 15.84 23.76 15.84V11.52C23.76 11.2725 23.6306 11.0447 23.4225 10.9125C23.2144 10.7803 22.95 10.7634 22.725 10.8675L12.24 15.7725V12.24C12.24 11.9869 12.0966 11.7619 11.88 11.6325C11.6634 11.5031 11.4075 11.4919 11.1825 11.61L0.3825 17.37C0.149062 17.4966 0 17.7356 0 18V35.28C0 35.6794 0.323438 36 0.72 36H35.28C35.4769 36 35.6597 35.9184 35.7975 35.775C35.9325 35.6316 36.0112 35.4319 36 35.235L33.975 1.935C33.8653 0.84375 32.9906 0 31.9725 0H28.8675ZM5.04 19.44H7.2V23.04H5.04V19.44ZM11.52 19.44H13.68V23.04H11.52V19.44ZM18 19.44H20.16V23.04H18V19.44ZM5.04 25.92H7.2V29.52H5.04V25.92ZM11.52 25.92H13.68V29.52H11.52V25.92ZM18 25.92H20.16V29.52H18V25.92Z" fill="#F23F34"/>
</g>
<defs>
<clipPath id="clip0">
<rect width="36" height="36" fill="white"/>
</clipPath>
</defs>
</svg>
