<svg width="22" height="22" viewBox="0 0 22 22" fill="none" xmlns="http://www.w3.org/2000/svg">
<path d="M11.0009 0.439941C7.12 0.439941 3.96094 3.599 3.96094 7.47994C3.96094 13.6898 10.3977 21.0959 10.6709 21.4087C10.7552 21.5049 10.8738 21.5599 11.0009 21.5599C11.1367 21.5513 11.2467 21.5049 11.3309 21.4087C11.6042 21.0907 18.0409 13.5574 18.0409 7.47994C18.0409 3.599 14.8819 0.439941 11.0009 0.439941ZM11.0009 5.27994C12.4584 5.27994 13.6409 6.46244 13.6409 7.91994C13.6409 9.37744 12.4584 10.5599 11.0009 10.5599C9.54344 10.5599 8.36094 9.37744 8.36094 7.91994C8.36094 6.46244 9.54344 5.27994 11.0009 5.27994Z" fill="#F23F34"/>
</svg>
