<svg width="56" height="56" viewBox="0 0 56 56" fill="none" xmlns="http://www.w3.org/2000/svg">
<path d="M0 5C0 2.23858 2.23858 0 5 0H56V56H5C2.23858 56 0 53.7614 0 51V5Z" fill="#F23F34"/>
<path d="M23.3202 19C22.9265 19 22.6002 19.3262 22.6002 19.72V20.44H20.4402C20.0226 20.44 19.7202 20.7423 19.7202 21.16V23.68H36.2802V21.16C36.2802 20.7423 35.9779 20.44 35.5602 20.44H33.4002V19.72C33.4002 19.3262 33.074 19 32.6802 19H31.9602C31.5665 19 31.2402 19.3262 31.2402 19.72V20.44H24.7602V19.72C24.7602 19.3262 24.434 19 24.0402 19H23.3202ZM23.3202 19.72H24.0402V21.88H23.3202V19.72ZM31.9602 19.72H32.6802V21.88H31.9602V19.72ZM19.7202 24.4V35.56C19.7202 35.9777 20.0226 36.28 20.4402 36.28H35.5602C35.9779 36.28 36.2802 35.9777 36.2802 35.56V24.4H19.7202ZM23.3202 26.56H25.1202V28.36H23.3202V26.56ZM25.8402 26.56H27.6402V28.36H25.8402V26.56ZM28.3602 26.56H30.1602V28.36H28.3602V26.56ZM30.8802 26.56H32.6802V28.36H30.8802V26.56ZM23.3202 29.08H25.1202V30.88H23.3202V29.08ZM25.8402 29.08H27.6402V30.88H25.8402V29.08ZM28.3602 29.08H30.1602V30.88H28.3602V29.08ZM30.8802 29.08H32.6802V30.88H30.8802V29.08ZM23.3202 31.6H25.1202V33.4H23.3202V31.6ZM25.8402 31.6H27.6402V33.4H25.8402V31.6ZM28.3602 31.6H30.1602V33.4H28.3602V31.6ZM30.8802 31.6H32.6802V33.4H30.8802V31.6Z" fill="white"/>
</svg>
