<svg width="154" height="54" viewBox="0 0 154 54" fill="none" xmlns="http://www.w3.org/2000/svg">
<path d="M145.3 25H142.9V37.7L151.5 29.8V37.1H153.9V24.4L145.3 32.3V25ZM131.5 25V37.1H134.1V31.6L138.6 37.1H141.6L136.4 30.7L141.4 25H138.5L134.2 29.9V25H131.5ZM120.4 25H118V37.7L126.6 29.8V37.1H129V24.4L120.4 32.3V25ZM107.6 27.2H110.8V37H113.3V27.2H116.6V25H107.6V27.2ZM99.3 31C99.3 28.6 101.1 27.1 103.2 27.1C104.9 27.1 106.1 27.8 106.9 28.8V26C105.9 25.2 104.9 24.8 103.1 24.8C99.4 24.8 96.6 27.4 96.6 31.1C96.6 34.8 99.3 37.4 103.1 37.4C104.9 37.4 105.9 37 106.9 36.2V33.4C106.1 34.3 104.9 35.1 103.2 35.1C101.1 34.9 99.3 33.4 99.3 31ZM86.1 25H83.7V37.7L92.3 29.8V37.1H94.7V24.4L86.1 32.3V25ZM75.5 25V37.1H78V27.3H82.3V25.1H75.5V25ZM63.3 31C63.3 28.7 64.8 27 67.1 27C69.4 27 70.9 28.7 70.9 31C70.9 33.3 69.4 35 67.1 35C64.8 35 63.3 33.3 63.3 31ZM60.7 31C60.7 34.7 63.4 37.3 67.1 37.3C70.8 37.3 73.5 34.6 73.5 31C73.5 27.4 70.8 24.7 67.1 24.7C63.5 24.7 60.7 27.4 60.7 31ZM109.6 9.1L111.1 12.5H108.1L109.6 9.1ZM112.9 17.3H115.7L109.6 4.5L103.5 17.3H106.3L107.5 14.6H111.6L112.9 17.3ZM93.4 5.2V17.3H96V11.8L100.5 17.3H103.5L98.3 10.9L103.3 5.2H100.4L96.1 10.1V5.2H93.4ZM92.2 5.2H89.6L86.9 11.3L84.5 5.2H81.7L85.7 13.6L84.1 17.2H86.7L92.2 5.2ZM76.7 11.9C77.9 11.9 78.7 12.5 78.7 13.6C78.7 14.7 77.9 15.2 76.7 15.2H74.9V11.9H76.7ZM72.4 5.2V17.3H77.2C79.5 17.3 81.3 15.8 81.3 13.6C81.3 11.4 79.5 9.9 77.2 9.9H74.9V7.4H80.4V5.3H72.4V5.2ZM65.7 17.5C68.8 17.5 70.4 16.1 70.4 14C70.4 12.4 69.4 11.4 67.8 10.9C69.2 10.4 70.1 9.5 70.1 8.3C70.1 6.5 68.5 5 65.7 5C62.9 5 61.3 6.5 61.3 8.6H63.6C63.6 7.7 64.4 7 65.8 7C67.1 7 67.7 7.6 67.7 8.5C67.7 9.4 66.8 10.2 65 10.2V11.9C67 11.9 68 12.6 68 13.8C68 14.9 67.2 15.5 65.7 15.5C64.2 15.5 63.3 14.8 63.2 13.7H60.8C60.7 15.7 62.3 17.5 65.7 17.5ZM53.7 9.1L55.2 12.5H52.2L53.7 9.1ZM57 17.3H59.8L53.7 4.5L47.6 17.3H50.4L51.6 14.6H55.7L57 17.3ZM58.7 25H49.3V32.3C49.3 33.9 48.6 35 47.5 35V37.1C50.4 37.1 51.7 35.4 51.7 32.3V27.3H56.1V37.1H58.6V25H58.7Z" fill="#373737"/>
<path fill-rule="evenodd" clip-rule="evenodd" d="M13.5 23L20.8 6.1L21.9 10L24.6 8.9L21.8 0L13.4 4L14.5 6.7L18.1 4.9L10.2 23H13.5ZM6 40.3L10.5 30H7.2L3.2 39.2L6 40.3ZM28 29.9L33.6 48.2L30.2 46L28.8 48.6L36.7 53.5L40.5 45L37.9 43.6L36.3 47.3L31 29.8H28V29.9ZM0 28H37.2L34.1 30.6L36.2 32.7L43.2 26.6L36.2 20.5L34.1 22.6L37.2 25.2H0V28ZM22.7 12.8L25.8 23.1H28.9L25.5 11.9L22.7 12.8Z" fill="#F23F34"/>
</svg>
