<svg width="117" height="41" viewBox="0 0 117 41" fill="none" xmlns="http://www.w3.org/2000/svg">
<path d="M110.39 19.1103H108.567V28.759L115.101 22.7571V28.3032H116.924V18.6545L110.39 24.6564V19.1103ZM99.9061 19.1103V28.3032H101.881V24.1246L105.3 28.3032H107.579L103.629 23.4408L107.427 19.1103H105.224L101.957 22.833V19.1103H99.9061ZM91.4729 19.1103H89.6496V28.759L96.1833 22.7571V28.3032H98.0067V18.6545L91.4729 24.6564V19.1103ZM81.7483 20.7817H84.1795V28.2272H86.0788V20.7817H88.5859V19.1103H81.7483V20.7817ZM75.4424 23.6688C75.4424 21.8454 76.81 20.7058 78.4054 20.7058C79.697 20.7058 80.6087 21.2376 81.2165 21.9973V19.8701C80.4567 19.2623 79.697 18.9584 78.3294 18.9584C75.5184 18.9584 73.3911 20.9337 73.3911 23.7447C73.3911 26.5558 75.4424 28.5311 78.3294 28.5311C79.697 28.5311 80.4567 28.2272 81.2165 27.6194V25.4921C80.6087 26.1759 79.697 26.7837 78.4054 26.7837C76.81 26.6317 75.4424 25.4921 75.4424 23.6688ZM65.4139 19.1103H63.5905V28.759L70.1243 22.7571V28.3032H71.9476V18.6545L65.4139 24.6564V19.1103ZM57.3606 19.1103V28.3032H59.26V20.8577H62.5269V19.1863H57.3606V19.1103ZM48.0918 23.6688C48.0918 21.9214 49.2314 20.6298 50.9788 20.6298C52.7262 20.6298 53.8658 21.9214 53.8658 23.6688C53.8658 25.4162 52.7262 26.7077 50.9788 26.7077C49.2314 26.7077 48.0918 25.4162 48.0918 23.6688ZM46.1165 23.6688C46.1165 26.4798 48.1678 28.4551 50.9788 28.4551C53.7898 28.4551 55.8411 26.4038 55.8411 23.6688C55.8411 20.9337 53.7898 18.8824 50.9788 18.8824C48.2437 18.8824 46.1165 20.9337 46.1165 23.6688ZM83.2678 7.03045L84.4074 9.61357H82.1281L83.2678 7.03045ZM85.7749 13.2603H87.9022L83.2678 3.53564L78.6333 13.2603H80.7606L81.6723 11.209H84.7872L85.7749 13.2603ZM70.96 4.06746V13.2603H72.9353V9.08175L76.3541 13.2603H78.6333L74.6827 8.39798L78.4814 4.06746H76.2781L73.0113 7.79019V4.06746H70.96ZM70.0483 4.06746H68.0729L66.0217 8.70188L64.1983 4.06746H62.071L65.11 10.4493L63.8944 13.1843H65.8697L70.0483 4.06746ZM58.2723 9.15772C59.184 9.15772 59.7918 9.61357 59.7918 10.4493C59.7918 11.285 59.184 11.6649 58.2723 11.6649H56.9048V9.15772H58.2723ZM55.0054 4.06746V13.2603H58.6522C60.3996 13.2603 61.7671 12.1207 61.7671 10.4493C61.7671 8.77785 60.3996 7.63824 58.6522 7.63824H56.9048V5.73889H61.0833V4.14344H55.0054V4.06746ZM49.9152 13.4123C52.2704 13.4123 53.4859 12.3486 53.4859 10.7532C53.4859 9.53759 52.7262 8.77785 51.5106 8.39798C52.5743 8.01811 53.258 7.33435 53.258 6.42266C53.258 5.05513 52.0424 3.91551 49.9152 3.91551C47.7879 3.91551 46.5723 5.05512 46.5723 6.65058H48.3197C48.3197 5.96681 48.9275 5.435 49.9911 5.435C50.9788 5.435 51.4346 5.89084 51.4346 6.57461C51.4346 7.25837 50.7509 7.86616 49.3833 7.86616V9.15772C50.9028 9.15772 51.6626 9.68954 51.6626 10.6012C51.6626 11.4369 51.0548 11.8928 49.9152 11.8928C48.7755 11.8928 48.0918 11.361 48.0158 10.5253H46.1924C46.1165 12.0447 47.332 13.4123 49.9152 13.4123ZM40.7983 7.03045L41.9379 9.61357H39.6587L40.7983 7.03045ZM43.3054 13.2603H45.4327L40.7983 3.53564L36.1639 13.2603H38.2911L39.2028 11.209H42.3178L43.3054 13.2603ZM44.597 19.1103H37.4554V24.6564C37.4554 25.872 36.9236 26.7077 36.0879 26.7077V28.3032C38.2911 28.3032 39.2788 27.0116 39.2788 24.6564V20.8577H42.6217V28.3032H44.521V19.1103H44.597Z" fill="white"/>
<path fill-rule="evenodd" clip-rule="evenodd" d="M10.2565 17.5907L15.8026 4.75111L16.6383 7.7141L18.6896 6.87839L16.5623 0.116699L10.1805 3.15566L11.0162 5.20696L13.7513 3.83943L7.74935 17.5907H10.2565ZM4.55844 30.7342L7.97727 22.9089H5.47013L2.43117 29.8985L4.55844 30.7342ZM21.2727 22.8329L25.5273 36.7362L22.9442 35.0648L21.8805 37.0401L27.8825 40.7628L30.7695 34.305L28.7942 33.2414L27.5786 36.0524L23.5519 22.757H21.2727V22.8329ZM0 21.3894H28.2623L25.9071 23.3647L27.5026 24.9602L32.8208 20.3258L27.5026 15.6914L25.9071 17.2868L28.2623 19.2622H0V21.3894ZM17.2461 9.84138L19.6013 17.6667H21.9565L19.3734 9.15761L17.2461 9.84138Z" fill="#F23F34"/>
</svg>
