<svg width="22" height="22" viewBox="0 0 22 22" fill="none" xmlns="http://www.w3.org/2000/svg">
<path d="M11.0002 2.19995C6.14878 2.19995 2.2002 6.14853 2.2002 10.9999C2.2002 15.8514 6.14878 19.7999 11.0002 19.7999C15.8516 19.7999 19.8002 15.8514 19.8002 10.9999C19.8002 6.14853 15.8516 2.19995 11.0002 2.19995ZM11.0002 3.66662C15.059 3.66662 18.3335 6.94118 18.3335 10.9999C18.3335 15.0587 15.059 18.3333 11.0002 18.3333C6.94142 18.3333 3.66686 15.0587 3.66686 10.9999C3.66686 6.94118 6.94142 3.66662 11.0002 3.66662ZM7.7002 9.53328C7.40846 9.53328 7.12867 9.64918 6.92238 9.85547C6.71609 10.0618 6.6002 10.3415 6.6002 10.6333C6.6002 10.925 6.71609 11.2048 6.92238 11.4111C7.12867 11.6174 7.40846 11.7333 7.7002 11.7333C7.99193 11.7333 8.27172 11.6174 8.47801 11.4111C8.6843 11.2048 8.8002 10.925 8.8002 10.6333C8.8002 10.3415 8.6843 10.0618 8.47801 9.85547C8.27172 9.64918 7.99193 9.53328 7.7002 9.53328ZM14.3002 9.53328C14.0085 9.53328 13.7287 9.64918 13.5224 9.85547C13.3161 10.0618 13.2002 10.3415 13.2002 10.6333C13.2002 10.925 13.3161 11.2048 13.5224 11.4111C13.7287 11.6174 14.0085 11.7333 14.3002 11.7333C14.5919 11.7333 14.8717 11.6174 15.078 11.4111C15.2843 11.2048 15.4002 10.925 15.4002 10.6333C15.4002 10.3415 15.2843 10.0618 15.078 9.85547C14.8717 9.64918 14.5919 9.53328 14.3002 9.53328ZM8.7959 13.9276C8.64382 13.9361 8.49818 13.9918 8.37918 14.0868C8.26019 14.1819 8.17375 14.3117 8.13186 14.4581C8.08997 14.6046 8.09472 14.7604 8.14544 14.904C8.19617 15.0477 8.29035 15.1719 8.41491 15.2596C9.00473 15.6882 9.88797 16.1333 11.0002 16.1333C12.1124 16.1333 12.996 15.6886 13.5855 15.2596C13.6634 15.2029 13.7294 15.1314 13.7796 15.0492C13.8299 14.967 13.8635 14.8757 13.8785 14.7805C13.8934 14.6854 13.8895 14.5882 13.8669 14.4945C13.8443 14.4008 13.8035 14.3125 13.7468 14.2346C13.6901 14.1568 13.6186 14.0908 13.5364 14.0406C13.4541 13.9903 13.3628 13.9568 13.2677 13.9418C13.1725 13.9269 13.0753 13.9308 12.9816 13.9534C12.888 13.9761 12.7997 14.0169 12.7218 14.0736C12.3037 14.378 11.7213 14.6666 11.0002 14.6666C10.2791 14.6666 9.69639 14.3783 9.27715 14.0736C9.15891 13.9849 9.01663 13.934 8.86895 13.9276C8.84461 13.9263 8.82023 13.9263 8.7959 13.9276Z" fill="#1BBA02"/>
</svg>
