<svg width="16" height="16" viewBox="0 0 16 16" fill="none" xmlns="http://www.w3.org/2000/svg">
<path d="M8.00014 0.640137C3.93911 0.640137 0.640137 3.93911 0.640137 8.00014C0.640137 12.0612 3.93911 15.3601 8.00014 15.3601C12.0612 15.3601 15.3601 12.0612 15.3601 8.00014C15.3601 3.93911 12.0612 0.640137 8.00014 0.640137ZM8.00014 1.28014C11.7153 1.28014 14.7201 4.28499 14.7201 8.00014C14.7201 11.7153 11.7153 14.7201 8.00014 14.7201C4.28499 14.7201 1.28014 11.7153 1.28014 8.00014C1.28014 4.28499 4.28499 1.28014 8.00014 1.28014Z" fill="#F8F8F8"/>
<path d="M8.00014 1.28014C11.7153 1.28014 14.7201 4.28499 14.7201 8.00014C14.7201 11.7153 11.7153 14.7201 8.00014 14.7201C4.28499 14.7201 1.28014 11.7153 1.28014 8.00014C1.28014 4.28499 4.28499 1.28014 8.00014 1.28014Z" fill="#F8F8F8"/>
<path d="M8.00014 0.640137C3.93911 0.640137 0.640137 3.93911 0.640137 8.00014C0.640137 12.0612 3.93911 15.3601 8.00014 15.3601C12.0612 15.3601 15.3601 12.0612 15.3601 8.00014C15.3601 3.93911 12.0612 0.640137 8.00014 0.640137ZM8.00014 1.28014C11.7153 1.28014 14.7201 4.28499 14.7201 8.00014C14.7201 11.7153 11.7153 14.7201 8.00014 14.7201C4.28499 14.7201 1.28014 11.7153 1.28014 8.00014C1.28014 4.28499 4.28499 1.28014 8.00014 1.28014Z" fill="#323232" fill-opacity="0.3"/>
<path d="M8.09271 4.00244C6.89911 4.00244 6.10769 4.72568 5.93521 5.82744C5.92401 5.89656 5.95796 5.94217 6.02708 5.95369L6.75021 6.08057C6.81933 6.09209 6.86494 6.05749 6.87646 5.98869C7.01406 5.28853 7.42702 4.89807 8.06958 4.89807C8.72398 4.89807 9.18271 5.31149 9.18271 5.96557C9.18271 6.35597 9.04524 6.61985 8.64396 7.17057L7.87458 8.22619C7.63362 8.55931 7.53083 8.80042 7.53083 9.25994V9.72994C7.53083 9.79874 7.57641 9.84497 7.64521 9.84369H8.40271C8.47151 9.84369 8.51708 9.79812 8.51708 9.72932V9.36244C8.51708 8.97236 8.58639 8.81158 8.81583 8.50182L9.58458 7.44557C9.97498 6.90605 10.1696 6.50473 10.1696 5.95369C10.1696 4.81737 9.33175 4.00244 8.09271 4.00244ZM7.58833 10.7174C7.51921 10.7174 7.47333 10.7636 7.47333 10.8324V11.8193C7.47333 11.8881 7.51889 11.9337 7.58833 11.9337H8.46083C8.52931 11.9337 8.57521 11.8884 8.57521 11.8193V10.8324C8.57521 10.764 8.52963 10.7174 8.46083 10.7174H7.58833Z" fill="black"/>
</svg>
