<svg width="24" height="24" viewBox="0 0 24 24" fill="none" xmlns="http://www.w3.org/2000/svg">
<path d="M12 0.0400391C5.39448 0.0400391 0.0400391 5.39448 0.0400391 12C0.0400391 18.6056 5.39448 23.96 12 23.96C18.6056 23.96 23.96 18.6056 23.96 12C23.96 5.39448 18.6056 0.0400391 12 0.0400391ZM12 4.72004C12.8617 4.72004 13.56 5.4184 13.56 6.28004C13.56 7.14168 12.8617 7.84004 12 7.84004C11.1384 7.84004 10.44 7.14168 10.44 6.28004C10.44 5.4184 11.1384 4.72004 12 4.72004ZM14.08 18.76H13.04H10.96H9.92004V17.72H10.96V10.96H9.92004V9.92004H10.96H13.04V10.96V17.72H14.08V18.76Z" fill="#F23F34"/>
</svg>
