<svg width="18" height="18" viewBox="0 0 18 18" fill="none" xmlns="http://www.w3.org/2000/svg">
<path d="M9.0007 0.720215C4.42762 0.720215 0.720703 4.42713 0.720703 9.00021C0.720703 13.5733 4.42762 17.2802 9.0007 17.2802C13.5738 17.2802 17.2807 13.5733 17.2807 9.00021C17.2807 4.42713 13.5738 0.720215 9.0007 0.720215ZM9.0007 3.96021C9.59722 3.96021 10.0807 4.44369 10.0807 5.04021C10.0807 5.63673 9.59722 6.12021 9.0007 6.12021C8.40418 6.12021 7.9207 5.63673 7.9207 5.04021C7.9207 4.44369 8.40418 3.96021 9.0007 3.96021ZM10.4407 13.6802H9.7207H8.2807H7.5607V12.9602H8.2807V8.28021H7.5607V7.56021H8.2807H9.7207V8.28021V12.9602H10.4407V13.6802Z" fill="#F23F34"/>
</svg>
