<svg width="22" height="22" viewBox="0 0 22 22" fill="none" xmlns="http://www.w3.org/2000/svg">
<path d="M6.56348 1.375C3.70606 1.375 1.375 3.70606 1.375 6.56348V14.0669C1.375 16.9189 3.70606 19.25 6.56348 19.25H14.0669C16.9189 19.25 19.25 16.9189 19.25 14.0615V6.56348C19.25 3.70606 16.9189 1.375 14.0615 1.375H6.56348ZM6.56348 2.75H14.0615C16.1777 2.75 17.875 4.44727 17.875 6.56348V14.0615C17.875 16.1777 16.1777 17.875 14.0669 17.875H6.56348C4.44727 17.875 2.75 16.1777 2.75 14.0669V6.56348C2.75 4.44727 4.44727 2.75 6.56348 2.75ZM15.8125 4.125C15.4312 4.125 15.125 4.43115 15.125 4.8125C15.125 5.19385 15.4312 5.5 15.8125 5.5C16.1938 5.5 16.5 5.19385 16.5 4.8125C16.5 4.43115 16.1938 4.125 15.8125 4.125ZM10.3125 5.5C7.66455 5.5 5.5 7.66455 5.5 10.3125C5.5 12.9604 7.66455 15.125 10.3125 15.125C12.9604 15.125 15.125 12.9604 15.125 10.3125C15.125 7.66455 12.9604 5.5 10.3125 5.5ZM10.3125 6.875C12.2192 6.875 13.75 8.40576 13.75 10.3125C13.75 12.2192 12.2192 13.75 10.3125 13.75C8.40576 13.75 6.875 12.2192 6.875 10.3125C6.875 8.40576 8.40576 6.875 10.3125 6.875Z" fill="white"/>
</svg>
