<svg width="36" height="36" viewBox="0 0 36 36" fill="none" xmlns="http://www.w3.org/2000/svg">
<path d="M0 5.75977V8.63977H12.96V10.0798H0V11.5198H10.8V12.9598H0V14.3998H8.64V15.8398H0V17.2798H6.48V18.7198H0V26.6398C0 27.8295 0.970312 28.7998 2.16 28.7998H5.1075C5.45063 30.8416 7.22531 32.3998 9.36 32.3998C11.4947 32.3998 13.2694 30.8416 13.6125 28.7998H22.32V7.85227C22.32 6.73852 21.3413 5.75977 20.2275 5.75977H0ZM23.76 10.7998V28.7998H24.5475C24.8906 30.8388 26.6625 32.3998 28.8 32.3998C30.9375 32.3998 32.7066 30.8388 33.0525 28.7998H33.84C34.9509 28.7998 36 27.7507 36 26.6398V19.7323C36 18.3204 34.9819 16.8101 34.8525 16.6273L31.8825 12.6448C31.3284 11.9529 30.1922 10.7998 28.8 10.7998H23.76ZM27.36 12.2398H28.8C29.3681 12.2398 30.0938 12.7404 30.735 13.5448L33.6825 17.4823C33.8991 17.7945 34.4222 18.6748 34.5375 19.4398H28.08C27.7566 19.4398 27.36 19.0432 27.36 18.7198V12.2398ZM9.36 25.1998C10.9603 25.1998 12.24 26.4795 12.24 28.0798C12.24 29.6801 10.9603 30.9598 9.36 30.9598C7.75969 30.9598 6.48 29.6801 6.48 28.0798C6.48 26.4795 7.75969 25.1998 9.36 25.1998ZM28.8 25.1998C30.3891 25.1998 31.68 26.4907 31.68 28.0798C31.68 29.6688 30.3891 30.9598 28.8 30.9598C27.2109 30.9598 25.92 29.6688 25.92 28.0798C25.92 26.4907 27.2109 25.1998 28.8 25.1998Z" fill="#F23F34"/>
</svg>
