<svg width="24" height="36" viewBox="0 0 24 36" fill="none" xmlns="http://www.w3.org/2000/svg">
<path d="M12.0005 0.719971C5.64984 0.719971 0.480469 5.88935 0.480469 12.24C0.480469 22.4015 11.0133 34.5206 11.4605 35.0325C11.5983 35.19 11.7923 35.28 12.0005 35.28C12.2227 35.2659 12.4027 35.19 12.5405 35.0325C12.9877 34.5122 23.5205 22.185 23.5205 12.24C23.5205 5.88935 18.3511 0.719971 12.0005 0.719971ZM12.0005 8.63997C14.3855 8.63997 16.3205 10.575 16.3205 12.96C16.3205 15.345 14.3855 17.28 12.0005 17.28C9.61547 17.28 7.68047 15.345 7.68047 12.96C7.68047 10.575 9.61547 8.63997 12.0005 8.63997Z" fill="#C4C4C4"/>
</svg>
