<svg width="32" height="32" viewBox="0 0 32 32" fill="none" xmlns="http://www.w3.org/2000/svg">
<path d="M15.7195 0.824707C7.59746 0.824707 0.999512 7.42266 0.999512 15.5447C0.999512 23.2916 7.00355 29.6474 14.6058 30.2185C14.6207 30.2197 14.6357 30.221 14.6508 30.2222C15.0043 30.2477 15.3596 30.2647 15.7195 30.2647C16.0794 30.2647 16.4348 30.2477 16.7883 30.2222C16.8033 30.221 16.8183 30.2197 16.8333 30.2185C24.4355 29.6474 30.4395 23.2916 30.4395 15.5447C30.4395 7.42266 23.8416 0.824707 15.7195 0.824707ZM15.7195 2.10471C23.1498 2.10471 29.1595 8.11442 29.1595 15.5447C29.1595 19.213 27.6906 22.5311 25.3133 24.9547C24.2962 24.2141 23.0393 23.7723 21.9133 23.3772C20.5795 22.91 19.3177 22.4671 18.9683 21.6972C18.9132 21.0399 18.9181 20.5266 18.9233 19.9372L18.9245 19.6872C19.4928 19.1464 20.2075 18.005 20.452 16.951C20.8744 16.7257 21.3909 16.1856 21.5458 14.8922C21.6232 14.2503 21.4405 13.7531 21.1845 13.4197C21.5301 12.2325 22.2177 9.22705 21.0133 7.28721C20.5038 6.46737 19.7351 5.95012 18.7245 5.74596C18.1568 5.04324 17.0856 4.65971 15.6533 4.65971C13.4766 4.70003 11.8809 5.36672 10.9133 6.64096C9.77214 8.14496 9.55652 10.4173 10.2708 13.3985C10.0064 13.7319 9.81579 14.2362 9.89451 14.891C10.05 16.1844 10.5646 16.7244 10.987 16.9497C11.2315 18.0051 11.9456 19.1464 12.5145 19.6872L12.5158 19.931C12.5209 20.523 12.5258 21.0374 12.4708 21.6972C12.12 22.469 10.8522 22.9167 9.51201 23.3897C8.39272 23.7849 7.14328 24.2274 6.12826 24.9585C3.74909 22.5346 2.27951 19.2146 2.27951 15.5447C2.27951 8.11442 8.28922 2.10471 15.7195 2.10471Z" fill="#F23F34"/>
</svg>
