<svg width="22" height="22" viewBox="0 0 22 22" fill="none" xmlns="http://www.w3.org/2000/svg">
<path d="M11 0.439941C7.11902 0.439941 3.95996 3.599 3.95996 7.47994C3.95996 13.6898 10.3967 21.0959 10.67 21.4087C10.7542 21.5049 10.8728 21.5599 11 21.5599C11.1357 21.5513 11.2457 21.5049 11.33 21.4087C11.6032 21.0907 18.04 13.5574 18.04 7.47994C18.04 3.599 14.8809 0.439941 11 0.439941ZM11 5.27994C12.4575 5.27994 13.64 6.46244 13.64 7.91994C13.64 9.37744 12.4575 10.5599 11 10.5599C9.54246 10.5599 8.35996 9.37744 8.35996 7.91994C8.35996 6.46244 9.54246 5.27994 11 5.27994Z" fill="#F23F34"/>
</svg>
