<svg width="26" height="26" viewBox="0 0 26 26" fill="none" xmlns="http://www.w3.org/2000/svg">
<path d="M13.0002 0.52002C8.41274 0.52002 4.68018 4.25258 4.68018 8.84002C4.68018 16.1793 12.2857 24.934 12.6091 25.3032C12.7079 25.4155 12.8504 25.48 13.0002 25.48C13.0007 25.48 13.0017 25.48 13.0023 25.48C13.1531 25.4795 13.2955 25.4135 13.3943 25.2996C13.7178 24.9241 21.3202 16.0228 21.3202 8.84002C21.3202 4.25258 17.5876 0.52002 13.0002 0.52002ZM17.0078 9.72766L13.3678 13.3677C13.2664 13.4691 13.1333 13.52 13.0002 13.52C12.8671 13.52 12.7339 13.4691 12.6325 13.3677C12.4292 13.1643 12.4292 12.8357 12.6325 12.6324L15.3849 9.88002H9.36018C9.07262 9.88002 8.84018 9.64706 8.84018 9.36002C8.84018 9.07298 9.07262 8.84002 9.36018 8.84002H15.3849L12.6325 6.08766C12.4292 5.88434 12.4292 5.5557 12.6325 5.35238C12.8359 5.14906 13.1645 5.14906 13.3678 5.35238L17.0078 8.99238C17.2111 9.1957 17.2111 9.52434 17.0078 9.72766Z" fill="#F23F34"/>
</svg>
