<svg width="26" height="25" viewBox="0 0 26 25" fill="none" xmlns="http://www.w3.org/2000/svg">
<path d="M12.1975 0C5.47313 0 0 5.47313 0 12.1975C0 18.9218 5.47313 24.3949 12.1975 24.3949C14.7944 24.3949 17.1951 23.5629 19.1637 22.1774C19.3844 22.0223 19.5343 21.786 19.5807 21.5203C19.627 21.2547 19.566 20.9815 19.4109 20.7609C19.2558 20.5403 19.0195 20.3903 18.7539 20.3439C18.4882 20.2976 18.215 20.3587 17.9944 20.5137C16.3466 21.6734 14.3616 22.362 12.1975 22.362C6.57185 22.362 2.03291 17.8231 2.03291 12.1975C2.03291 6.57185 6.57185 2.03291 12.1975 2.03291C14.3616 2.03291 16.3466 2.72148 17.9944 3.88119C18.1037 3.95797 18.2269 4.01248 18.3573 4.04161C18.4876 4.07074 18.6223 4.07392 18.7539 4.05097C18.8854 4.02802 19.0111 3.97938 19.1238 3.90784C19.2366 3.83631 19.3341 3.74326 19.4109 3.63402C19.4877 3.52479 19.5422 3.4015 19.5713 3.27119C19.6005 3.14089 19.6036 3.00612 19.5807 2.87459C19.5577 2.74306 19.5091 2.61733 19.4376 2.5046C19.366 2.39186 19.273 2.29432 19.1637 2.21754C17.1951 0.832045 14.7944 0 12.1975 0ZM15.2552 7.10526C15.4574 7.10531 15.655 7.16566 15.8227 7.27861C15.9904 7.39155 16.1206 7.55195 16.1967 7.73929C16.2728 7.92663 16.2913 8.13241 16.2498 8.33032C16.2083 8.52823 16.1088 8.70927 15.9639 8.8503L13.6332 11.181H24.3933C24.528 11.1791 24.6617 11.204 24.7867 11.2542C24.9117 11.3044 25.0255 11.379 25.1214 11.4736C25.2173 11.5682 25.2935 11.6808 25.3455 11.8051C25.3975 11.9294 25.4242 12.0627 25.4242 12.1975C25.4242 12.3322 25.3975 12.4655 25.3455 12.5898C25.2935 12.7141 25.2173 12.8268 25.1214 12.9213C25.0255 13.0159 24.9117 13.0905 24.7867 13.1407C24.6617 13.1909 24.528 13.2158 24.3933 13.2139H13.6332L15.9639 15.5446C16.0614 15.6383 16.1393 15.7505 16.193 15.8746C16.2466 15.9987 16.275 16.1323 16.2764 16.2676C16.2777 16.4028 16.2521 16.5369 16.201 16.6621C16.1499 16.7873 16.0743 16.9011 15.9787 16.9967C15.883 17.0923 15.7693 17.1679 15.6441 17.219C15.5189 17.2702 15.3847 17.2958 15.2495 17.2944C15.1143 17.293 14.9807 17.2647 14.8565 17.211C14.7324 17.1574 14.6202 17.0795 14.5266 16.9819L10.5501 13.0055C10.4255 12.9105 10.3247 12.788 10.2553 12.6476C10.1859 12.5071 10.1499 12.3526 10.1501 12.196C10.1503 12.0393 10.1866 11.8849 10.2564 11.7446C10.3261 11.6044 10.4273 11.4822 10.5521 11.3875L14.5266 7.41297C14.6213 7.3156 14.7346 7.2382 14.8597 7.18535C14.9848 7.1325 15.1193 7.10526 15.2552 7.10526Z" fill="#F23F34"/>
</svg>
