<svg width="26" height="25" viewBox="0 0 26 25" fill="none" xmlns="http://www.w3.org/2000/svg">
<path d="M12.1975 0C5.47313 0 0 5.47313 0 12.1975C0 18.9218 5.47313 24.3949 12.1975 24.3949C14.7944 24.3949 17.1951 23.5629 19.1637 22.1774C19.3844 22.0223 19.5343 21.786 19.5807 21.5203C19.627 21.2547 19.566 20.9815 19.4109 20.7609C19.2558 20.5403 19.0195 20.3903 18.7539 20.3439C18.4882 20.2976 18.215 20.3587 17.9944 20.5137C16.3466 21.6734 14.3616 22.362 12.1975 22.362C6.57185 22.362 2.03291 17.8231 2.03291 12.1975C2.03291 6.57185 6.57185 2.03291 12.1975 2.03291C14.3616 2.03291 16.3466 2.72148 17.9944 3.88119C18.1037 3.95797 18.2269 4.01248 18.3573 4.04161C18.4876 4.07074 18.6223 4.07392 18.7539 4.05097C18.8854 4.02802 19.0111 3.97938 19.1238 3.90784C19.2366 3.83631 19.3341 3.74326 19.4109 3.63402C19.4877 3.52479 19.5422 3.4015 19.5713 3.27119C19.6005 3.14089 19.6036 3.00612 19.5807 2.87459C19.5577 2.74306 19.5091 2.61733 19.4376 2.5046C19.366 2.39186 19.273 2.29432 19.1637 2.21754C17.1951 0.832045 14.7944 0 12.1975 0ZM20.3192 7.10526C20.117 7.10531 19.9194 7.16566 19.7516 7.27861C19.5839 7.39155 19.4537 7.55195 19.3776 7.73929C19.3015 7.92663 19.283 8.13241 19.3245 8.33032C19.366 8.52823 19.4655 8.70927 19.6104 8.8503L21.9411 11.181H11.181C11.0463 11.1791 10.9126 11.204 10.7876 11.2542C10.6626 11.3044 10.5488 11.379 10.4529 11.4736C10.357 11.5682 10.2808 11.6809 10.2288 11.8051C10.1768 11.9294 10.1501 12.0627 10.1501 12.1975C10.1501 12.3322 10.1768 12.4655 10.2288 12.5898C10.2808 12.7141 10.357 12.8268 10.4529 12.9213C10.5488 13.0159 10.6626 13.0905 10.7876 13.1407C10.9126 13.1909 11.0463 13.2158 11.181 13.2139H21.9411L19.6104 15.5446C19.5129 15.6383 19.435 15.7505 19.3813 15.8746C19.3277 15.9987 19.2993 16.1323 19.298 16.2676C19.2966 16.4028 19.3222 16.5369 19.3733 16.6621C19.4244 16.7873 19.5 16.9011 19.5956 16.9967C19.6913 17.0923 19.805 17.1679 19.9302 17.219C20.0554 17.2702 20.1896 17.2958 20.3248 17.2944C20.46 17.293 20.5936 17.2647 20.7178 17.211C20.8419 17.1574 20.9541 17.0795 21.0478 16.9819L25.0242 13.0055C25.1488 12.9105 25.2497 12.788 25.319 12.6476C25.3884 12.5071 25.4244 12.3526 25.4242 12.196C25.4241 12.0393 25.3877 11.8849 25.3179 11.7446C25.2482 11.6044 25.147 11.4822 25.0223 11.3875L21.0478 7.41297C20.953 7.3156 20.8398 7.2382 20.7146 7.18535C20.5895 7.1325 20.455 7.10526 20.3192 7.10526Z" fill="#F23F34"/>
</svg>
