<svg width="1920" height="560" viewBox="0 0 1920 560" fill="none" xmlns="http://www.w3.org/2000/svg">
<path opacity="0.3" d="M361.368 497.644H-47V483.789H361.368V456.436C361.368 453.897 364.117 452.31 366.316 453.58L426.681 488.431C428.44 489.447 428.44 491.986 426.681 493.002L366.316 527.853C364.117 529.123 361.368 527.536 361.368 524.997V497.644Z" fill="url(#paint0_linear)"/>
<path opacity="0.3" fill-rule="evenodd" clip-rule="evenodd" d="M-47 538.876H277.583V526.559C277.583 525.035 279.233 524.083 280.552 524.845L307.601 540.461C308.92 541.223 308.92 543.127 307.601 543.889L280.552 559.506C279.233 560.267 277.583 559.315 277.583 557.792V545.474H-47V538.876Z" fill="url(#paint1_linear)"/>
<path opacity="0.3" fill-rule="evenodd" clip-rule="evenodd" d="M-47 435.3H223.486V422.982C223.486 421.459 225.135 420.506 226.455 421.268L253.503 436.885C254.823 437.646 254.823 439.551 253.503 440.313L226.455 455.929C225.135 456.691 223.486 455.739 223.486 454.215V441.897H-47V435.3Z" fill="url(#paint2_linear)"/>
<path opacity="0.3" fill-rule="evenodd" clip-rule="evenodd" d="M-47 457.401H205.014V451.813C205.014 450.797 206.113 450.163 206.993 450.67L219.528 457.907C220.407 458.415 220.407 459.685 219.528 460.193L206.993 467.43C206.113 467.937 205.014 467.303 205.014 466.287V460.699H-47V457.401Z" fill="url(#paint3_linear)"/>
<path opacity="0.3" fill-rule="evenodd" clip-rule="evenodd" d="M-47 518.755H249.875V513.167C249.875 512.152 250.975 511.517 251.854 512.025L264.389 519.262C265.269 519.769 265.269 521.039 264.389 521.547L251.854 528.784C250.975 529.292 249.875 528.657 249.875 527.641V522.054H-47V518.755Z" fill="url(#paint4_linear)"/>
<path opacity="0.3" d="M2078.37 76.6436H1670V62.7894H2078.37V35.4363C2078.37 32.8971 2081.12 31.31 2083.32 32.5797L2143.68 67.4312C2145.44 68.4469 2145.44 70.9862 2143.68 72.0019L2083.32 106.853C2081.12 108.123 2078.37 106.536 2078.37 103.997V76.6436Z" fill="url(#paint5_linear)"/>
<path opacity="0.3" fill-rule="evenodd" clip-rule="evenodd" d="M1670 117.876H1994.58V105.559C1994.58 104.035 1996.23 103.083 1997.55 103.845L2024.6 119.461C2025.92 120.223 2025.92 122.127 2024.6 122.889L1997.55 138.506C1996.23 139.267 1994.58 138.315 1994.58 136.792V124.474H1670V117.876Z" fill="url(#paint6_linear)"/>
<path opacity="0.3" fill-rule="evenodd" clip-rule="evenodd" d="M1670 14.3H1940.49V1.98212C1940.49 0.458559 1942.14 -0.493671 1943.45 0.26811L1970.5 15.8846C1971.82 16.6464 1971.82 18.5509 1970.5 19.3127L1943.45 34.9292C1942.14 35.691 1940.49 34.7387 1940.49 33.2152V20.8973H1670V14.3Z" fill="url(#paint7_linear)"/>
<path opacity="0.3" fill-rule="evenodd" clip-rule="evenodd" d="M1670 36.4007H1922.01V30.8131C1922.01 29.7974 1923.11 29.1626 1923.99 29.6704L1936.53 36.9074C1937.41 37.4152 1937.41 38.6849 1936.53 39.1927L1923.99 46.4296C1923.11 46.9375 1922.01 46.3027 1922.01 45.287V39.6993H1670V36.4007Z" fill="url(#paint8_linear)"/>
<path opacity="0.3" fill-rule="evenodd" clip-rule="evenodd" d="M1670 97.755H1966.88V92.1674C1966.88 91.1517 1967.97 90.5168 1968.85 91.0247L1981.39 98.2616C1982.27 98.7695 1982.27 100.039 1981.39 100.547L1968.85 107.784C1967.97 108.292 1966.88 107.657 1966.88 106.641V101.054H1670V97.755Z" fill="url(#paint9_linear)"/>
<path opacity="0.3" d="M1985 339.368H1471H1366V360.368H1471H1985V401.829C1985 405.678 1989.17 408.084 1992.5 406.16L2084 353.332C2086.67 351.792 2086.67 347.943 2084 346.404L1992.5 293.576C1989.17 291.652 1985 294.057 1985 297.906V339.368Z" fill="url(#paint10_linear)"/>
<path opacity="0.3" fill-rule="evenodd" clip-rule="evenodd" d="M1366 276.868H1858V295.539C1858 297.848 1860.5 299.292 1862.5 298.137L1903.5 274.466C1905.5 273.311 1905.5 270.424 1903.5 269.269L1862.5 245.598C1860.5 244.443 1858 245.887 1858 248.196V266.868H1366V276.868Z" fill="url(#paint11_linear)"/>
<path opacity="0.3" fill-rule="evenodd" clip-rule="evenodd" d="M1366 433.868H1776V452.539C1776 454.848 1778.5 456.292 1780.5 455.137L1821.5 431.466C1823.5 430.311 1823.5 427.424 1821.5 426.269L1780.5 402.598C1778.5 401.443 1776 402.887 1776 405.196V423.868H1366V433.868Z" fill="url(#paint12_linear)"/>
<path opacity="0.3" fill-rule="evenodd" clip-rule="evenodd" d="M1366 400.367H1748V408.837C1748 410.377 1749.67 411.339 1751 410.569L1770 399.599C1771.33 398.83 1771.33 396.905 1770 396.135L1751 385.166C1749.67 384.396 1748 385.358 1748 386.898V395.367H1366V400.367Z" fill="url(#paint13_linear)"/>
<path opacity="0.3" fill-rule="evenodd" clip-rule="evenodd" d="M1366 307.367H1816V315.837C1816 317.377 1817.67 318.339 1819 317.569L1838 306.599C1839.33 305.83 1839.33 303.905 1838 303.135L1819 292.166C1817.67 291.396 1816 292.358 1816 293.898V302.367H1366V307.367Z" fill="url(#paint14_linear)"/>
<path opacity="0.3" d="M267 136.368H-247H-352V157.368H-247H267V198.83C267 202.679 271.167 205.084 274.5 203.16L366 150.332C368.667 148.793 368.667 144.944 366 143.404L274.5 90.5765C271.167 88.652 267 91.0576 267 94.9066V136.368Z" fill="url(#paint15_linear)"/>
<path opacity="0.3" fill-rule="evenodd" clip-rule="evenodd" d="M-319 102.868H173V121.539C173 123.848 175.5 125.292 177.5 124.137L218.5 100.466C220.5 99.3109 220.5 96.4241 218.5 95.2694L177.5 71.5981C175.5 70.4434 173 71.8868 173 74.1962V92.8675H-319V102.868Z" fill="url(#paint16_linear)"/>
<path opacity="0.3" fill-rule="evenodd" clip-rule="evenodd" d="M-230 223.868H180V242.539C180 244.849 182.5 246.292 184.5 245.137L225.5 221.466C227.5 220.311 227.5 217.424 225.5 216.27L184.5 192.598C182.5 191.444 180 192.887 180 195.196V213.868H-230V223.868Z" fill="url(#paint17_linear)"/>
<path opacity="0.3" fill-rule="evenodd" clip-rule="evenodd" d="M-335 250.934H47V259.404C47 260.943 48.6667 261.906 50 261.136L69 250.166C70.3333 249.396 70.3333 247.472 69 246.702L50 235.732C48.6667 234.962 47 235.925 47 237.464V245.934H-335V250.934Z" fill="url(#paint18_linear)"/>
<path opacity="0.3" fill-rule="evenodd" clip-rule="evenodd" d="M-318 66.9338H132V75.4034C132 76.943 133.667 77.9053 135 77.1355L154 66.1658C155.333 65.396 155.333 63.4715 154 62.7017L135 51.7321C133.667 50.9623 132 51.9245 132 53.4641V61.9338H-318V66.9338Z" fill="url(#paint19_linear)"/>
<defs>
<linearGradient id="paint0_linear" x1="436.356" y1="490.7" x2="-47" y2="490.7" gradientUnits="userSpaceOnUse">
<stop stop-color="#C2C2C2"/>
<stop offset="1" stop-color="#ADADAD" stop-opacity="0"/>
</linearGradient>
<linearGradient id="paint1_linear" x1="315.244" y1="542.16" x2="-79.9861" y2="542.16" gradientUnits="userSpaceOnUse">
<stop stop-color="#C2C2C2"/>
<stop offset="1" stop-color="#ADADAD" stop-opacity="0"/>
</linearGradient>
<linearGradient id="paint2_linear" x1="260.499" y1="438.583" x2="-79.9861" y2="438.583" gradientUnits="userSpaceOnUse">
<stop stop-color="#C2C2C2"/>
<stop offset="1" stop-color="#ADADAD" stop-opacity="0"/>
</linearGradient>
<linearGradient id="paint3_linear" x1="224.918" y1="459.047" x2="-63.493" y2="459.047" gradientUnits="userSpaceOnUse">
<stop stop-color="#C2C2C2"/>
<stop offset="1" stop-color="#ADADAD" stop-opacity="0"/>
</linearGradient>
<linearGradient id="paint4_linear" x1="270.316" y1="520.402" x2="-63.493" y2="520.402" gradientUnits="userSpaceOnUse">
<stop stop-color="#C2C2C2"/>
<stop offset="1" stop-color="#ADADAD" stop-opacity="0"/>
</linearGradient>
<linearGradient id="paint5_linear" x1="2153.36" y1="69.6998" x2="1670" y2="69.6998" gradientUnits="userSpaceOnUse">
<stop stop-color="#C2C2C2"/>
<stop offset="1" stop-color="#ADADAD" stop-opacity="0"/>
</linearGradient>
<linearGradient id="paint6_linear" x1="2032.24" y1="121.16" x2="1637.01" y2="121.16" gradientUnits="userSpaceOnUse">
<stop stop-color="#C2C2C2"/>
<stop offset="1" stop-color="#ADADAD" stop-opacity="0"/>
</linearGradient>
<linearGradient id="paint7_linear" x1="1977.5" y1="17.5835" x2="1637.01" y2="17.5835" gradientUnits="userSpaceOnUse">
<stop stop-color="#C2C2C2"/>
<stop offset="1" stop-color="#ADADAD" stop-opacity="0"/>
</linearGradient>
<linearGradient id="paint8_linear" x1="1941.92" y1="38.0473" x2="1653.51" y2="38.0473" gradientUnits="userSpaceOnUse">
<stop stop-color="#C2C2C2"/>
<stop offset="1" stop-color="#ADADAD" stop-opacity="0"/>
</linearGradient>
<linearGradient id="paint9_linear" x1="1987.32" y1="99.4016" x2="1653.51" y2="99.4016" gradientUnits="userSpaceOnUse">
<stop stop-color="#C2C2C2"/>
<stop offset="1" stop-color="#ADADAD" stop-opacity="0"/>
</linearGradient>
<linearGradient id="paint10_linear" x1="2098.67" y1="349.903" x2="1366" y2="349.903" gradientUnits="userSpaceOnUse">
<stop stop-color="#C2C2C2"/>
<stop offset="1" stop-color="#ADADAD" stop-opacity="0"/>
</linearGradient>
<linearGradient id="paint11_linear" x1="1915.09" y1="271.884" x2="1316" y2="271.884" gradientUnits="userSpaceOnUse">
<stop stop-color="#C2C2C2"/>
<stop offset="1" stop-color="#ADADAD" stop-opacity="0"/>
</linearGradient>
<linearGradient id="paint12_linear" x1="1832.1" y1="428.884" x2="1316" y2="428.884" gradientUnits="userSpaceOnUse">
<stop stop-color="#C2C2C2"/>
<stop offset="1" stop-color="#ADADAD" stop-opacity="0"/>
</linearGradient>
<linearGradient id="paint13_linear" x1="1778.17" y1="397.876" x2="1341" y2="397.876" gradientUnits="userSpaceOnUse">
<stop stop-color="#C2C2C2"/>
<stop offset="1" stop-color="#ADADAD" stop-opacity="0"/>
</linearGradient>
<linearGradient id="paint14_linear" x1="1846.98" y1="304.876" x2="1341" y2="304.876" gradientUnits="userSpaceOnUse">
<stop stop-color="#C2C2C2"/>
<stop offset="1" stop-color="#ADADAD" stop-opacity="0"/>
</linearGradient>
<linearGradient id="paint15_linear" x1="380.665" y1="146.904" x2="-352" y2="146.904" gradientUnits="userSpaceOnUse">
<stop stop-color="#C2C2C2"/>
<stop offset="1" stop-color="#ADADAD" stop-opacity="0"/>
</linearGradient>
<linearGradient id="paint16_linear" x1="230.086" y1="97.8845" x2="-369" y2="97.8845" gradientUnits="userSpaceOnUse">
<stop stop-color="#C2C2C2"/>
<stop offset="1" stop-color="#ADADAD" stop-opacity="0"/>
</linearGradient>
<linearGradient id="paint17_linear" x1="236.104" y1="218.885" x2="-280" y2="218.885" gradientUnits="userSpaceOnUse">
<stop stop-color="#C2C2C2"/>
<stop offset="1" stop-color="#ADADAD" stop-opacity="0"/>
</linearGradient>
<linearGradient id="paint18_linear" x1="77.1706" y1="248.442" x2="-360" y2="248.442" gradientUnits="userSpaceOnUse">
<stop stop-color="#C2C2C2"/>
<stop offset="1" stop-color="#ADADAD" stop-opacity="0"/>
</linearGradient>
<linearGradient id="paint19_linear" x1="162.984" y1="64.4422" x2="-343" y2="64.4422" gradientUnits="userSpaceOnUse">
<stop stop-color="#C2C2C2"/>
<stop offset="1" stop-color="#ADADAD" stop-opacity="0"/>
</linearGradient>
</defs>
</svg>
