<svg width="32" height="32" viewBox="0 0 32 32" fill="none" xmlns="http://www.w3.org/2000/svg">
<path d="M24.9799 30.0801C24.9699 30.0801 24.9599 30.0801 24.9499 30.0801C20.1399 29.9226 14.5049 25.2601 10.6224 21.3751C6.73492 17.4901 2.07242 11.8526 1.92242 7.06511C1.86742 5.38511 5.98992 2.39761 6.03242 2.36761C7.10242 1.62261 8.28992 1.88761 8.77742 2.56261C9.10742 3.02011 12.2324 7.75511 12.5724 8.29261C12.9249 8.85011 12.8724 9.68011 12.4324 10.5126C12.1899 10.9751 11.3849 12.3901 11.0074 13.0501C11.4149 13.6301 12.4924 15.0526 14.7174 17.2776C16.9449 19.5026 18.3649 20.5826 18.9474 20.9901C19.6074 20.6126 21.0224 19.8076 21.4849 19.5651C22.3049 19.1301 23.1299 19.0751 23.6924 19.4201C24.2674 19.7726 28.9899 22.9126 29.4249 23.2151C29.7899 23.4726 30.0249 23.9126 30.0724 24.4251C30.1174 24.9426 29.9574 25.4901 29.6249 25.9676C29.5974 26.0076 26.6449 30.0801 24.9799 30.0801Z" fill="#F23F34"/>
</svg>
