<svg width="22" height="22" viewBox="0 0 22 22" fill="none" xmlns="http://www.w3.org/2000/svg">
<path d="M11.1223 2.44434C7.74753 2.44434 4.2373 3.20488 4.2373 3.20488L4.23444 3.20775C3.90228 3.27424 3.60338 3.45366 3.3885 3.71553C3.17363 3.97741 3.05602 4.30559 3.05566 4.64434V9.04433C3.05566 16.6695 10.4048 19.8567 10.4048 19.8567C10.6239 19.9797 10.871 20.0443 11.1223 20.0443C11.3727 20.0438 11.6187 19.9792 11.837 19.8567H11.8399C11.8406 19.8567 19.189 16.6695 19.189 9.04433V4.64434C19.1892 4.30469 19.0715 3.97552 18.856 3.713C18.6405 3.45048 18.3405 3.27089 18.0074 3.20488C18.0074 3.20488 14.4971 2.44434 11.1223 2.44434ZM15.5223 6.84434C15.7099 6.84434 15.8975 6.91581 16.0408 7.05918C16.3276 7.34591 16.3276 7.80942 16.0408 8.09616L10.4964 13.6406C10.3586 13.7784 10.1723 13.8554 9.97793 13.8554C9.7836 13.8554 9.59657 13.7784 9.45944 13.6406L6.92715 11.1083C6.64042 10.8215 6.64042 10.358 6.92715 10.0713C7.21388 9.78455 7.67739 9.78455 7.96413 10.0713L9.97793 12.0851L15.0038 7.05918C15.1472 6.91581 15.3348 6.84434 15.5223 6.84434Z" fill="#08A4FC"/>
</svg>
