<svg width="82" height="167" viewBox="0 0 82 167" fill="none" xmlns="http://www.w3.org/2000/svg">
<path opacity="0.2" d="M74.2871 50.1805L74.2874 50.1823L81.424 95.3717C81.4241 95.3727 81.4242 95.3737 81.4244 95.3747C81.9479 98.9585 79.7078 102.157 76.3924 102.66C73.0665 103.115 69.9337 100.692 69.3612 97.1594C69.3612 97.1591 69.3611 97.1587 69.3611 97.1584L61.8672 49.1819L60.8732 49.2591V159.089C60.8732 162.63 57.8972 165.55 54.2359 165.55H50.4123C46.751 165.55 43.7749 162.63 43.7749 159.089V104.1V103.6H43.2749H38.7375H38.2375V104.1V159.089C38.2375 162.63 35.2615 165.55 31.6002 165.55H27.7766C24.1153 165.55 21.1392 162.63 21.1392 159.089V49.2591L20.1452 49.1819L12.6512 97.1594C12.6512 97.1598 12.6511 97.1602 12.651 97.1605C12.0774 100.747 8.94271 103.162 5.62344 102.661C2.30058 102.158 0.0164128 98.9054 0.587328 95.3792L0.587795 95.3762L7.62321 50.1812L7.62325 50.181C8.75648 42.8771 15.8794 36.8817 23.5451 36.8817H58.3653C66.0324 36.8817 73.1539 42.8286 74.2871 50.1805ZM57.6628 16.7916C57.6628 25.7789 50.213 33.0831 41 33.0831C31.787 33.0831 24.3372 25.7789 24.3372 16.7916C24.3372 7.80424 31.787 0.5 41 0.5C50.213 0.5 57.6628 7.80424 57.6628 16.7916Z" stroke="#373737"/>
</svg>
