<svg width="36" height="36" viewBox="0 0 36 36" fill="none" xmlns="http://www.w3.org/2000/svg">
<path d="M17.9879 14.4102C17.8009 14.4072 17.6224 14.3316 17.4901 14.1993L13.1701 9.87926C13.101 9.81291 13.0459 9.73345 13.0079 9.64551C12.9699 9.55758 12.9498 9.46295 12.9488 9.36716C12.9478 9.27137 12.966 9.17635 13.0022 9.08766C13.0384 8.99898 13.0919 8.9184 13.1597 8.85067C13.2274 8.78293 13.308 8.72939 13.3967 8.69318C13.4854 8.65697 13.5804 8.63883 13.6762 8.6398C13.772 8.64078 13.8666 8.66085 13.9545 8.69886C14.0425 8.73686 14.1219 8.79203 14.1883 8.86113L17.2792 11.9521V2.1702C17.2778 2.07479 17.2955 1.98006 17.3311 1.89153C17.3666 1.80299 17.4195 1.7224 17.4864 1.65446C17.5534 1.58651 17.6333 1.53256 17.7213 1.49573C17.8093 1.45891 17.9038 1.43994 17.9992 1.43994C18.0946 1.43994 18.1891 1.45891 18.2771 1.49573C18.3651 1.53256 18.445 1.58651 18.512 1.65446C18.5789 1.7224 18.6318 1.80299 18.6673 1.89153C18.7029 1.98006 18.7205 2.07479 18.7192 2.1702V11.9521L21.8101 8.86113C21.8765 8.79203 21.9559 8.73686 22.0439 8.69886C22.1318 8.66085 22.2264 8.64078 22.3222 8.6398C22.418 8.63883 22.513 8.65697 22.6017 8.69318C22.6904 8.72939 22.771 8.78293 22.8387 8.85067C22.9065 8.9184 22.96 8.99898 22.9962 9.08766C23.0324 9.17635 23.0506 9.27137 23.0496 9.36716C23.0486 9.46295 23.0285 9.55758 22.9905 9.64551C22.9525 9.73345 22.8974 9.81291 22.8283 9.87926L18.5083 14.1993C18.4401 14.2675 18.3589 14.3213 18.2695 14.3575C18.1801 14.3938 18.0844 14.4117 17.9879 14.4102ZM10.0862 10.0758C9.99713 10.0764 9.90891 10.0936 9.82607 10.1264L4.06607 12.2864C3.96264 12.3209 3.86838 12.3785 3.79043 12.4547C3.71248 12.531 3.65286 12.6239 3.61607 12.7266L0.108887 18.3389C0.052381 18.4296 0.0167742 18.5318 0.00464943 18.638C-0.0074753 18.7441 0.00418615 18.8517 0.0387878 18.9528C0.0733895 19.0539 0.130064 19.1461 0.204699 19.2225C0.279335 19.299 0.37006 19.358 0.470293 19.395L3.5992 20.5481V28.8C3.59933 28.9472 3.64456 29.0908 3.72879 29.2115C3.81302 29.3322 3.9322 29.4241 4.07029 29.475L17.7503 34.515C17.911 34.5742 18.0874 34.5742 18.2481 34.515L31.9281 29.475C32.0662 29.4241 32.1854 29.3322 32.2696 29.2115C32.3538 29.0908 32.3991 28.9472 32.3992 28.8V20.5481L35.5281 19.395C35.6283 19.358 35.7191 19.299 35.7937 19.2225C35.8683 19.1461 35.925 19.0539 35.9596 18.9528C35.9942 18.8517 36.0059 18.7441 35.9938 18.638C35.9816 18.5318 35.946 18.4296 35.8895 18.3389L32.3851 12.7336C32.3509 12.6356 32.2958 12.5461 32.2237 12.4713C32.1516 12.3966 32.0642 12.3383 31.9675 12.3005C31.9591 12.2971 31.9507 12.2938 31.9422 12.2907C31.9389 12.2892 31.9356 12.2878 31.9323 12.2864L26.1723 10.1264C26.0824 10.0912 25.9862 10.0745 25.8897 10.0772C25.7224 10.0825 25.5622 10.1458 25.4365 10.2564C25.3109 10.3669 25.2277 10.5178 25.2012 10.6831C25.1748 10.8483 25.2067 11.0177 25.2915 11.1619C25.3764 11.3062 25.5088 11.4164 25.6661 11.4736L29.6148 12.9544L17.9992 17.2336L6.38357 12.9544L10.3323 11.4736C10.4922 11.4163 10.6266 11.3043 10.7118 11.1574C10.7971 11.0105 10.8277 10.8383 10.7983 10.671C10.7688 10.5038 10.6812 10.3523 10.5509 10.2434C10.4206 10.1345 10.256 10.0751 10.0862 10.0758ZM4.62014 13.8375L16.9206 18.3685L14.0997 22.8825L1.79779 18.3516L4.62014 13.8375ZM31.3783 13.8375L34.2006 18.3516L21.8987 22.8825L19.0778 18.3685L31.3783 13.8375ZM17.2792 20.5088V32.8064L5.0392 28.298V21.0783L14.1503 24.435C14.3055 24.4921 14.4756 24.4941 14.6321 24.4406C14.7885 24.3871 14.9218 24.2813 15.0095 24.1411L17.2792 20.5088ZM18.7192 20.5088L20.9889 24.1411C21.0766 24.2813 21.2099 24.3871 21.3663 24.4406C21.5228 24.4941 21.6929 24.4921 21.8481 24.435L30.9592 21.0783V28.298L18.7192 32.8064V20.5088Z" fill="#F23F34"/>
</svg>
