<svg width="36" height="36" viewBox="0 0 36 36" fill="none" xmlns="http://www.w3.org/2000/svg">
<path d="M18.2 4C12.6776 4 6.93359 5.24453 6.93359 5.24453L6.92891 5.24922C6.38537 5.35802 5.89626 5.65162 5.54465 6.08014C5.19303 6.50866 5.00058 7.04569 5 7.6V14.8C5 27.2776 17.0258 32.493 17.0258 32.493C17.3844 32.6942 17.7888 32.7999 18.2 32.8C18.6097 32.7991 19.0123 32.6934 19.3695 32.493H19.3742C19.3754 32.493 31.4 27.2776 31.4 14.8V7.6C31.4003 7.04422 31.2077 6.50557 30.855 6.07599C30.5024 5.64641 30.0116 5.35254 29.4664 5.24453C29.4664 5.24453 23.7224 4 18.2 4ZM25.4 11.2C25.7069 11.2 26.0138 11.317 26.2484 11.5516C26.7176 12.0208 26.7176 12.7792 26.2484 13.2484L17.1758 22.3211C16.9502 22.5467 16.6453 22.6727 16.3273 22.6727C16.0093 22.6727 15.7033 22.5467 15.4789 22.3211L11.3352 18.1773C10.866 17.7081 10.866 16.9497 11.3352 16.4805C11.8044 16.0113 12.5628 16.0113 13.032 16.4805L16.3273 19.7758L24.5516 11.5516C24.7862 11.317 25.0931 11.2 25.4 11.2Z" fill="#08A4FC"/>
</svg>
