<svg width="36" height="36" viewBox="0 0 36 36" fill="none" xmlns="http://www.w3.org/2000/svg">
<path d="M17.9996 3.6001C10.0609 3.6001 3.59961 10.0614 3.59961 18.0001C3.59961 25.9388 10.0609 32.4001 17.9996 32.4001C25.9383 32.4001 32.3996 25.9388 32.3996 18.0001C32.3996 10.0614 25.9383 3.6001 17.9996 3.6001ZM17.9996 6.0001C24.6412 6.0001 29.9996 11.3585 29.9996 18.0001C29.9996 24.6417 24.6412 30.0001 17.9996 30.0001C11.358 30.0001 5.99961 24.6417 5.99961 18.0001C5.99961 11.3585 11.358 6.0001 17.9996 6.0001ZM12.5996 15.6001C12.1222 15.6001 11.6644 15.7897 11.3268 16.1273C10.9893 16.4649 10.7996 16.9227 10.7996 17.4001C10.7996 17.8775 10.9893 18.3353 11.3268 18.6729C11.6644 19.0105 12.1222 19.2001 12.5996 19.2001C13.077 19.2001 13.5348 19.0105 13.8724 18.6729C14.21 18.3353 14.3996 17.8775 14.3996 17.4001C14.3996 16.9227 14.21 16.4649 13.8724 16.1273C13.5348 15.7897 13.077 15.6001 12.5996 15.6001ZM23.3996 15.6001C22.9222 15.6001 22.4644 15.7897 22.1268 16.1273C21.7893 16.4649 21.5996 16.9227 21.5996 17.4001C21.5996 17.8775 21.7893 18.3353 22.1268 18.6729C22.4644 19.0105 22.9222 19.2001 23.3996 19.2001C23.877 19.2001 24.3348 19.0105 24.6724 18.6729C25.01 18.3353 25.1996 17.8775 25.1996 17.4001C25.1996 16.9227 25.01 16.4649 24.6724 16.1273C24.3348 15.7897 23.877 15.6001 23.3996 15.6001ZM14.3926 22.7907C14.1437 22.8047 13.9054 22.8958 13.7107 23.0514C13.516 23.2069 13.3745 23.4193 13.306 23.6589C13.2374 23.8986 13.2452 24.1536 13.3282 24.3886C13.4112 24.6236 13.5653 24.827 13.7691 24.9704C14.7343 25.6718 16.1796 26.4001 17.9996 26.4001C19.8196 26.4001 21.2655 25.6725 22.2301 24.9704C22.3576 24.8776 22.4655 24.7607 22.5478 24.6261C22.63 24.4916 22.685 24.3423 22.7095 24.1865C22.734 24.0308 22.7276 23.8717 22.6906 23.7184C22.6537 23.5652 22.5869 23.4207 22.4941 23.2932C22.4012 23.1658 22.2842 23.0579 22.1497 22.9757C22.0152 22.8934 21.8658 22.8385 21.71 22.8141C21.5542 22.7896 21.3952 22.7961 21.2419 22.8331C21.0887 22.8701 20.9442 22.9369 20.8168 23.0298C20.1326 23.5277 19.1796 24.0001 17.9996 24.0001C16.8196 24.0001 15.8661 23.5284 15.1801 23.0298C14.9866 22.8846 14.7538 22.8013 14.5121 22.7907C14.4723 22.7887 14.4324 22.7887 14.3926 22.7907Z" fill="#1BBA02"/>
</svg>
