<svg width="36" height="36" viewBox="0 0 36 36" fill="none" xmlns="http://www.w3.org/2000/svg">
<path d="M17.981 1.18374C17.6631 1.18871 17.3602 1.31958 17.1388 1.54763C16.9173 1.77569 16.7954 2.08229 16.7997 2.40015V3.66108C9.8184 4.24163 4.24119 9.81884 3.66065 16.8001H2.39971C2.24069 16.7979 2.08282 16.8273 1.93526 16.8866C1.78769 16.9459 1.65339 17.0339 1.54015 17.1456C1.4269 17.2572 1.33698 17.3903 1.2756 17.537C1.21422 17.6837 1.18262 17.8411 1.18262 18.0001C1.18262 18.1592 1.21422 18.3166 1.2756 18.4633C1.33698 18.61 1.4269 18.7431 1.54015 18.8547C1.65339 18.9664 1.78769 19.0544 1.93526 19.1137C2.08282 19.173 2.24069 19.2024 2.39971 19.2001H3.66065C4.24119 26.1815 9.8184 31.7587 16.7997 32.3392V33.6001C16.7975 33.7592 16.8268 33.917 16.8861 34.0646C16.9454 34.2122 17.0335 34.3465 17.1451 34.4597C17.2568 34.573 17.3898 34.6629 17.5365 34.7243C17.6832 34.7856 17.8407 34.8172 17.9997 34.8172C18.1587 34.8172 18.3162 34.7856 18.4629 34.7243C18.6096 34.6629 18.7426 34.573 18.8543 34.4597C18.966 34.3465 19.054 34.2122 19.1133 34.0646C19.1726 33.917 19.202 33.7592 19.1997 33.6001V32.3392C26.181 31.7587 31.7582 26.1815 32.3388 19.2001H33.5997C33.7587 19.2024 33.9166 19.173 34.0642 19.1137C34.2117 19.0544 34.346 18.9664 34.4593 18.8547C34.5725 18.7431 34.6624 18.61 34.7238 18.4633C34.7852 18.3166 34.8168 18.1592 34.8168 18.0001C34.8168 17.8411 34.7852 17.6837 34.7238 17.537C34.6624 17.3903 34.5725 17.2572 34.4593 17.1456C34.346 17.0339 34.2117 16.9459 34.0642 16.8866C33.9166 16.8273 33.7587 16.7979 33.5997 16.8001H32.3388C31.7582 9.81884 26.181 4.24163 19.1997 3.66108V2.40015C19.2019 2.2396 19.1719 2.08024 19.1114 1.93151C19.0509 1.78279 18.9611 1.64771 18.8475 1.53428C18.7339 1.42086 18.5986 1.33139 18.4498 1.27118C18.3009 1.21097 18.1415 1.18123 17.981 1.18374ZM16.7997 6.05874V7.20015C16.7975 7.35916 16.8268 7.51704 16.8861 7.6646C16.9454 7.81216 17.0335 7.94647 17.1451 8.05971C17.2568 8.17295 17.3898 8.26288 17.5365 8.32425C17.6832 8.38563 17.8407 8.41724 17.9997 8.41724C18.1587 8.41724 18.3162 8.38563 18.4629 8.32425C18.6096 8.26288 18.7426 8.17295 18.8543 8.05971C18.966 7.94647 19.054 7.81216 19.1133 7.6646C19.1726 7.51704 19.202 7.35916 19.1997 7.20015V6.05874C24.8793 6.6199 29.38 11.1206 29.9411 16.8001H28.7997C28.6407 16.7979 28.4828 16.8273 28.3353 16.8866C28.1877 16.9459 28.0534 17.0339 27.9401 17.1456C27.8269 17.2572 27.737 17.3903 27.6756 17.537C27.6142 17.6837 27.5826 17.8411 27.5826 18.0001C27.5826 18.1592 27.6142 18.3166 27.6756 18.4633C27.737 18.61 27.8269 18.7431 27.9401 18.8547C28.0534 18.9664 28.1877 19.0544 28.3353 19.1137C28.4828 19.173 28.6407 19.2024 28.7997 19.2001H29.9411C29.38 24.8797 24.8793 29.3804 19.1997 29.9416V28.8001C19.2019 28.6396 19.1719 28.4802 19.1114 28.3315C19.0509 28.1828 18.9611 28.0477 18.8475 27.9343C18.7339 27.8209 18.5986 27.7314 18.4498 27.6712C18.3009 27.611 18.1415 27.5812 17.981 27.5837C17.6631 27.5887 17.3602 27.7196 17.1388 27.9476C16.9173 28.1757 16.7954 28.4823 16.7997 28.8001V29.9416C11.1202 29.3804 6.61947 24.8797 6.0583 19.2001H7.19971C7.35872 19.2024 7.5166 19.173 7.66416 19.1137C7.81172 19.0544 7.94603 18.9664 8.05927 18.8547C8.17251 18.7431 8.26244 18.61 8.32382 18.4633C8.38519 18.3166 8.4168 18.1592 8.4168 18.0001C8.4168 17.8411 8.38519 17.6837 8.32382 17.537C8.26244 17.3903 8.17251 17.2572 8.05927 17.1456C7.94603 17.0339 7.81172 16.9459 7.66416 16.8866C7.5166 16.8273 7.35872 16.7979 7.19971 16.8001H6.0583C6.61947 11.1206 11.1202 6.6199 16.7997 6.05874Z" fill="#F23F34"/>
</svg>
