<svg width="26" height="26" viewBox="0 0 26 26" fill="none" xmlns="http://www.w3.org/2000/svg">
<path d="M10.9201 1.56006C6.03289 1.56006 2.08008 5.51287 2.08008 10.4001C2.08008 15.2872 6.03289 19.2401 10.9201 19.2401C12.6649 19.2401 14.2798 18.7282 15.6488 17.8588L22.0351 24.2451L24.2451 22.0351L17.9401 15.7463C19.0735 14.2594 19.7601 12.4171 19.7601 10.4001C19.7601 5.51287 15.8073 1.56006 10.9201 1.56006ZM10.9201 3.64006C14.6637 3.64006 17.6801 6.65646 17.6801 10.4001C17.6801 14.1437 14.6637 17.1601 10.9201 17.1601C7.17648 17.1601 4.16008 14.1437 4.16008 10.4001C4.16008 6.65646 7.17648 3.64006 10.9201 3.64006Z" fill="#323232"/>
</svg>
