<svg width="36" height="36" viewBox="0 0 36 36" fill="none" xmlns="http://www.w3.org/2000/svg">
<path d="M17.9998 0.720215C14.0286 0.720215 10.7998 3.94896 10.7998 7.92021V9.36021H5.10732L2.06982 36.0002H33.9298L30.8923 9.36021H26.6398V13.6802C26.6398 14.8727 25.6723 15.8402 24.4798 15.8402C24.3195 15.8402 24.1564 15.829 24.0073 15.7952C23.0426 15.5787 22.3198 14.7124 22.3198 13.6802C22.3198 12.7437 22.9245 11.9533 23.7598 11.6552V13.6802C23.7598 14.0768 24.0805 14.4002 24.4798 14.4002C24.8792 14.4002 25.1998 14.0768 25.1998 13.6802V7.92021C25.1998 3.94896 21.9711 0.720215 17.9998 0.720215ZM17.9998 2.16021C21.1751 2.16021 23.7598 4.7449 23.7598 7.92021V9.36021H13.6798V13.6802C13.6798 14.8727 12.7123 15.8402 11.5198 15.8402C11.3595 15.8402 11.1964 15.829 11.0473 15.7952C10.0798 15.5787 9.35982 14.7124 9.35982 13.6802C9.35982 12.7437 9.96451 11.9533 10.7998 11.6552V13.6802C10.7998 14.0768 11.1233 14.4002 11.5198 14.4002C11.9164 14.4002 12.2398 14.0768 12.2398 13.6802V7.92021C12.2398 4.7449 14.8245 2.16021 17.9998 2.16021Z" fill="#F23F34"/>
</svg>
