<svg width="36" height="36" viewBox="0 0 36 36" fill="none" xmlns="http://www.w3.org/2000/svg">
<g clip-path="url(#clip0)">
<path d="M5.02865 5.04004C3.83777 5.04004 2.86865 6.00916 2.86865 7.20004V28.8C2.86865 29.9909 3.83777 30.96 5.02865 30.96H24.4687V29.52H5.02865C4.63193 29.52 4.30865 29.1968 4.30865 28.8V10.8H31.6687V15.3886C31.9653 15.529 32.2492 15.6985 32.4983 15.916C32.7028 15.9117 32.9063 15.9286 33.1087 15.961V7.20004C33.1087 6.00916 32.1395 5.04004 30.9487 5.04004H5.02865ZM5.74865 7.20004C6.14609 7.20004 6.46865 7.5226 6.46865 7.92004C6.46865 8.31748 6.14609 8.64004 5.74865 8.64004C5.35121 8.64004 5.02865 8.31748 5.02865 7.92004C5.02865 7.5226 5.35121 7.20004 5.74865 7.20004ZM7.90865 7.20004C8.30609 7.20004 8.62865 7.5226 8.62865 7.92004C8.62865 8.31748 8.30609 8.64004 7.90865 8.64004C7.51121 8.64004 7.18865 8.31748 7.18865 7.92004C7.18865 7.5226 7.51121 7.20004 7.90865 7.20004ZM10.0687 7.20004C10.4661 7.20004 10.7887 7.5226 10.7887 7.92004C10.7887 8.31748 10.4661 8.64004 10.0687 8.64004C9.67121 8.64004 9.34865 8.31748 9.34865 7.92004C9.34865 7.5226 9.67121 7.20004 10.0687 7.20004ZM30.1583 16.4771C29.4333 16.4771 28.7654 16.8388 28.3794 17.3968C27.7134 17.211 26.9579 17.376 26.3783 17.8735C25.8218 18.3508 25.5459 19.0385 25.6049 19.7325C24.9771 20.0061 24.513 20.6019 24.3322 21.4271C24.2466 22.1103 24.4909 22.8115 24.9496 23.2918C24.6393 23.9578 24.6482 24.7189 24.996 25.3294C25.3366 25.9234 25.9486 26.3188 26.6146 26.4052C26.778 27.1043 27.2785 27.6944 27.9604 27.9493C28.1929 28.0364 28.4329 28.08 28.6719 28.08C29.1234 28.08 29.5737 27.928 29.9769 27.6357C30.3657 27.9201 30.7955 28.0688 31.2383 28.0688C31.4277 28.0688 31.7393 28.0683 32.0244 27.9394C32.7156 27.6694 33.1915 27.1064 33.3449 26.4066C33.9828 26.3245 34.5841 25.9615 34.9916 25.3913C35.006 25.3718 35.0188 25.3517 35.031 25.3308C35.3622 24.7512 35.3874 24.0324 35.121 23.3902C35.7596 22.9445 36.0758 22.2498 35.9858 21.4369C35.983 21.411 35.9789 21.3869 35.9732 21.361C35.8076 20.6201 35.3577 20.0573 34.709 19.7593C34.7766 19.0558 34.5014 18.3559 33.9383 17.8735C33.3789 17.394 32.6573 17.2432 31.9344 17.4361C31.5269 16.84 30.8747 16.4771 30.1583 16.4771ZM34.5487 27.54C34.5105 27.5566 34.4743 27.579 34.4347 27.5949C34.0481 28.3487 33.4029 28.9372 32.5785 29.2669C32.0234 29.5067 31.494 29.5074 31.2369 29.5074C30.8071 29.5074 30.3823 29.4253 29.9783 29.2669C29.56 29.4332 29.119 29.52 28.6733 29.52H28.6719C28.2565 29.52 27.8472 29.4454 27.4541 29.2978C26.8378 29.0675 26.3083 28.6733 25.9087 28.1714V35.28C25.9087 35.5392 26.0482 35.7784 26.2743 35.9058C26.4996 36.034 26.7767 36.0313 26.9999 35.8974L30.2287 33.9596L33.4588 35.8974C33.5733 35.9665 33.7012 36 33.8287 36C33.9511 36 34.0743 35.9685 34.1844 35.9058C34.4098 35.7784 34.5487 35.5392 34.5487 35.28V27.54Z" fill="#F23F34"/>
</g>
<defs>
<clipPath id="clip0">
<rect width="36" height="36" fill="white"/>
</clipPath>
</defs>
</svg>
