<svg width="22" height="22" viewBox="0 0 22 22" fill="none" xmlns="http://www.w3.org/2000/svg">
<path d="M10.9883 0.723234C10.7941 0.72627 10.609 0.806248 10.4736 0.945613C10.3383 1.08498 10.2638 1.27235 10.2664 1.46659V2.23717C6.00008 2.59194 2.59178 6.00024 2.23701 10.2666H1.46643C1.36926 10.2652 1.27278 10.2832 1.1826 10.3194C1.09243 10.3556 1.01035 10.4094 0.941146 10.4777C0.871941 10.5459 0.816988 10.6272 0.77948 10.7169C0.741972 10.8065 0.722656 10.9027 0.722656 10.9999C0.722656 11.0971 0.741972 11.1933 0.77948 11.283C0.816988 11.3726 0.871941 11.4539 0.941146 11.5222C1.01035 11.5904 1.09243 11.6442 1.1826 11.6804C1.27278 11.7167 1.36926 11.7346 1.46643 11.7333H2.23701C2.59178 15.9996 6.00008 19.4079 10.2664 19.7627V20.5333C10.2651 20.6304 10.283 20.7269 10.3192 20.8171C10.3555 20.9073 10.4093 20.9893 10.4775 21.0585C10.5457 21.1278 10.6271 21.1827 10.7167 21.2202C10.8064 21.2577 10.9026 21.277 10.9998 21.277C11.097 21.277 11.1932 21.2577 11.2828 21.2202C11.3725 21.1827 11.4538 21.1278 11.522 21.0585C11.5903 20.9893 11.644 20.9073 11.6803 20.8171C11.7165 20.7269 11.7345 20.6304 11.7331 20.5333V19.7627C15.9995 19.4079 19.4077 15.9996 19.7625 11.7333H20.5331C20.6303 11.7346 20.7268 11.7167 20.8169 11.6804C20.9071 11.6442 20.9892 11.5904 21.0584 11.5222C21.1276 11.4539 21.1825 11.3726 21.2201 11.283C21.2576 11.1933 21.2769 11.0971 21.2769 10.9999C21.2769 10.9027 21.2576 10.8065 21.2201 10.7169C21.1825 10.6272 21.1276 10.5459 21.0584 10.4777C20.9892 10.4094 20.9071 10.3556 20.8169 10.3194C20.7268 10.2832 20.6303 10.2652 20.5331 10.2666H19.7625C19.4077 6.00024 15.9995 2.59194 11.7331 2.23717V1.46659C11.7344 1.36848 11.7161 1.2711 11.6791 1.18021C11.6421 1.08932 11.5873 1.00677 11.5179 0.937455C11.4484 0.86814 11.3658 0.813465 11.2748 0.776668C11.1838 0.739872 11.0864 0.721702 10.9883 0.723234ZM10.2664 3.7024V4.39993C10.2651 4.4971 10.283 4.59358 10.3192 4.68376C10.3555 4.77394 10.4093 4.85601 10.4775 4.92521C10.5457 4.99442 10.6271 5.04937 10.7167 5.08688C10.8064 5.12439 10.9026 5.1437 10.9998 5.1437C11.097 5.1437 11.1932 5.12439 11.2828 5.08688C11.3725 5.04937 11.4538 4.99442 11.522 4.92521C11.5903 4.85601 11.644 4.77394 11.6803 4.68376C11.7165 4.59358 11.7345 4.4971 11.7331 4.39993V3.7024C15.2039 4.04533 17.9544 6.79576 18.2973 10.2666H17.5998C17.5026 10.2652 17.4061 10.2832 17.3159 10.3194C17.2258 10.3556 17.1437 10.4094 17.0745 10.4777C17.0053 10.5459 16.9503 10.6272 16.9128 10.7169C16.8753 10.8065 16.856 10.9027 16.856 10.9999C16.856 11.0971 16.8753 11.1933 16.9128 11.283C16.9503 11.3726 17.0053 11.4539 17.0745 11.5222C17.1437 11.5904 17.2258 11.6442 17.3159 11.6804C17.4061 11.7167 17.5026 11.7346 17.5998 11.7333H18.2973C17.9544 15.2041 15.2039 17.9545 11.7331 18.2975V17.5999C11.7344 17.5018 11.7161 17.4044 11.6791 17.3135C11.6421 17.2227 11.5873 17.1401 11.5179 17.0708C11.4484 17.0015 11.3658 16.9468 11.2748 16.91C11.1838 16.8732 11.0864 16.855 10.9883 16.8566C10.7941 16.8596 10.609 16.9396 10.4736 17.0789C10.3383 17.2183 10.2638 17.4057 10.2664 17.5999V18.2975C6.7956 17.9545 4.04517 15.2041 3.70224 11.7333H4.39977C4.49694 11.7346 4.59342 11.7167 4.6836 11.6804C4.77378 11.6442 4.85585 11.5904 4.92506 11.5222C4.99426 11.4539 5.04921 11.3726 5.08672 11.283C5.12423 11.1933 5.14355 11.0971 5.14355 10.9999C5.14355 10.9027 5.12423 10.8065 5.08672 10.7169C5.04921 10.6272 4.99426 10.5459 4.92506 10.4777C4.85585 10.4094 4.77378 10.3556 4.6836 10.3194C4.59342 10.2832 4.49694 10.2652 4.39977 10.2666H3.70224C4.04517 6.79576 6.7956 4.04533 10.2664 3.7024Z" fill="#F23F34"/>
</svg>
