<svg width="36" height="36" viewBox="0 0 36 36" fill="none" xmlns="http://www.w3.org/2000/svg">
<path d="M2.0475 9.35986C0.916875 9.35986 0 10.2796 0 11.4074V30.2399C0 31.3677 1.02938 32.3999 2.16 32.3999H5.1075C5.45063 34.4417 7.2225 35.9999 9.36 35.9999C11.4975 35.9999 13.2694 34.4417 13.6125 32.3999H20.2725C21.4003 32.3999 22.32 31.4802 22.32 30.3524V11.4524C22.32 10.2992 21.4116 9.35986 20.295 9.35986H2.0475ZM23.76 14.3999V32.3999C24.1059 34.4389 25.9425 35.9999 28.08 35.9999C30.2175 35.9999 31.9894 34.4389 32.3325 32.3999H33.84C34.9706 32.3999 36 31.3705 36 30.2399V23.3099C36 21.8614 34.9566 20.3821 34.83 20.2049L31.8375 16.1999C31.1513 15.373 30.0741 14.3999 28.8 14.3999H23.76ZM27.36 17.9999H31.3875L33.6825 21.0599C33.9272 21.4058 34.56 22.4661 34.56 23.3099V23.7599H27.36C26.64 23.7599 25.92 23.0399 25.92 22.3199V19.4399C25.92 18.6439 26.64 17.9999 27.36 17.9999ZM9.36 28.7999C10.9491 28.7999 12.24 30.0908 12.24 31.6799C12.24 33.2689 10.9491 34.5599 9.36 34.5599C7.77094 34.5599 6.48 33.2689 6.48 31.6799C6.48 30.0908 7.77094 28.7999 9.36 28.7999ZM28.08 28.7999C29.6691 28.7999 30.96 30.0908 30.96 31.6799C30.96 33.2689 29.6691 34.5599 28.08 34.5599C26.4909 34.5599 25.2 33.2689 25.2 31.6799C25.2 30.0908 26.4909 28.7999 28.08 28.7999Z" fill="#F23F34"/>
</svg>
