<svg width="36" height="36" viewBox="0 0 36 36" fill="none" xmlns="http://www.w3.org/2000/svg">
<path d="M17.9879 1.44003C17.8009 1.44301 17.6224 1.51866 17.4901 1.65096L13.1701 5.97096C13.101 6.03731 13.0459 6.11677 13.0079 6.20471C12.9699 6.29264 12.9498 6.38727 12.9488 6.48306C12.9478 6.57885 12.966 6.67387 13.0022 6.76256C13.0384 6.85124 13.0919 6.93182 13.1597 6.99955C13.2274 7.06729 13.308 7.12083 13.3967 7.15704C13.4854 7.19325 13.5804 7.21139 13.6762 7.21042C13.772 7.20945 13.8666 7.18937 13.9545 7.15136C14.0425 7.11336 14.1219 7.05819 14.1883 6.98909L17.2792 3.89815V13.68C17.2778 13.7754 17.2955 13.8702 17.3311 13.9587C17.3666 14.0472 17.4195 14.1278 17.4864 14.1958C17.5534 14.2637 17.6333 14.3177 17.7213 14.3545C17.8093 14.3913 17.9038 14.4103 17.9992 14.4103C18.0946 14.4103 18.1891 14.3913 18.2771 14.3545C18.3651 14.3177 18.445 14.2637 18.512 14.1958C18.5789 14.1278 18.6318 14.0472 18.6673 13.9587C18.7029 13.8702 18.7205 13.7754 18.7192 13.68V3.89815L21.8101 6.98909C21.8765 7.05819 21.9559 7.11336 22.0439 7.15136C22.1318 7.18937 22.2264 7.20945 22.3222 7.21042C22.418 7.21139 22.513 7.19325 22.6017 7.15704C22.6904 7.12083 22.771 7.06729 22.8387 6.99955C22.9065 6.93182 22.96 6.85124 22.9962 6.76256C23.0324 6.67387 23.0506 6.57885 23.0496 6.48306C23.0486 6.38727 23.0285 6.29264 22.9905 6.20471C22.9525 6.11677 22.8974 6.03731 22.8283 5.97096L18.5083 1.65096C18.4401 1.58275 18.3589 1.52893 18.2695 1.49269C18.1801 1.45646 18.0844 1.43855 17.9879 1.44003ZM10.0862 10.0758C9.99713 10.0764 9.90891 10.0936 9.82607 10.1264L4.06607 12.2864C3.96263 12.3209 3.86838 12.3785 3.79043 12.4547C3.71248 12.531 3.65286 12.6239 3.61607 12.7266L0.108887 18.3389C0.052381 18.4296 0.0167742 18.5318 0.00464943 18.638C-0.0074753 18.7441 0.00418615 18.8517 0.0387878 18.9528C0.0733895 19.0539 0.130064 19.1461 0.204699 19.2225C0.279335 19.299 0.37006 19.358 0.470293 19.395L3.5992 20.5481V28.8C3.59933 28.9472 3.64456 29.0908 3.72879 29.2115C3.81302 29.3322 3.9322 29.4241 4.07029 29.475L17.7503 34.515C17.911 34.5742 18.0874 34.5742 18.2481 34.515L31.9281 29.475C32.0662 29.4241 32.1854 29.3322 32.2696 29.2115C32.3538 29.0908 32.3991 28.9472 32.3992 28.8V20.5481L35.5281 19.395C35.6283 19.358 35.7191 19.299 35.7937 19.2225C35.8683 19.1461 35.925 19.0539 35.9596 18.9528C35.9942 18.8517 36.0059 18.7441 35.9938 18.638C35.9816 18.5318 35.946 18.4296 35.8895 18.3389L32.3851 12.7336C32.3509 12.6356 32.2958 12.5461 32.2237 12.4713C32.1516 12.3966 32.0642 12.3383 31.9675 12.3005C31.9591 12.2971 31.9507 12.2938 31.9422 12.2907C31.9389 12.2892 31.9356 12.2878 31.9323 12.2864L26.1723 10.1264C26.0824 10.0912 25.9862 10.0745 25.8897 10.0772C25.7224 10.0825 25.5622 10.1458 25.4365 10.2564C25.3109 10.3669 25.2277 10.5178 25.2012 10.6831C25.1748 10.8483 25.2067 11.0177 25.2915 11.1619C25.3764 11.3062 25.5088 11.4164 25.6661 11.4736L29.6148 12.9544L17.9992 17.2336L6.38357 12.9544L10.3323 11.4736C10.4922 11.4163 10.6266 11.3043 10.7118 11.1574C10.7971 11.0105 10.8277 10.8383 10.7983 10.671C10.7688 10.5038 10.6812 10.3523 10.5509 10.2434C10.4206 10.1345 10.256 10.0751 10.0862 10.0758ZM4.62014 13.8375L16.9206 18.3685L14.0997 22.8825L1.79779 18.3516L4.62014 13.8375ZM31.3783 13.8375L34.2006 18.3516L21.8987 22.8825L19.0778 18.3685L31.3783 13.8375ZM17.2792 20.5088V32.8064L5.0392 28.298V21.0783L14.1503 24.435C14.3055 24.4921 14.4756 24.4941 14.6321 24.4406C14.7885 24.3871 14.9218 24.2813 15.0095 24.1411L17.2792 20.5088ZM18.7192 20.5088L20.9889 24.1411C21.0766 24.2813 21.2099 24.3871 21.3663 24.4406C21.5228 24.4941 21.6929 24.4921 21.8481 24.435L30.9592 21.0783V28.298L18.7192 32.8064V20.5088Z" fill="#F23F34"/>
</svg>
