<svg width="22" height="22" viewBox="0 0 22 22" fill="none" xmlns="http://www.w3.org/2000/svg">
<path d="M13.6109 14.3121C13.5455 13.6023 13.5713 13.1073 13.5713 12.4593C13.8927 12.2909 14.4685 11.2166 14.5648 10.3091C14.8174 10.2885 15.2162 10.0427 15.333 9.06991C15.3949 8.54741 15.1457 8.25351 14.9927 8.1607C15.4035 6.92491 16.2577 3.1007 13.4149 2.70538C13.121 2.19148 12.3716 1.93195 11.3988 1.93195C7.50242 2.00413 7.0332 4.87445 7.88742 8.1607C7.73445 8.25351 7.48523 8.54741 7.54711 9.06991C7.6657 10.0427 8.06273 10.2885 8.31539 10.3091C8.41164 11.2166 9.00977 12.2909 9.33289 12.4593C9.33289 13.1073 9.35695 13.6023 9.29164 14.3121C8.52164 16.3849 3.3207 15.8023 3.08008 19.8001H19.8001C19.5595 15.8023 14.3809 16.3849 13.6109 14.3121Z" fill="#F23F34"/>
</svg>
