<svg width="36" height="36" viewBox="0 0 36 36" fill="none" xmlns="http://www.w3.org/2000/svg">
<path d="M22.2722 23.4196C22.1653 22.258 22.2075 21.448 22.2075 20.3877C22.7335 20.1121 23.6757 18.3543 23.8332 16.8693C24.2466 16.8355 24.8991 16.4333 25.0903 14.8414C25.1916 13.9864 24.7838 13.5055 24.5335 13.3536C25.2057 11.3314 26.6035 5.07363 21.9516 4.42676C21.4707 3.58582 20.2444 3.16113 18.6525 3.16113C12.2766 3.27926 11.5088 7.97613 12.9066 13.3536C12.6563 13.5055 12.2485 13.9864 12.3497 14.8414C12.5438 16.4333 13.1935 16.8355 13.6069 16.8693C13.7644 18.3543 14.7432 20.1121 15.2719 20.3877C15.2719 21.448 15.3113 22.258 15.2044 23.4196C13.9444 26.8114 5.43379 25.858 5.04004 32.3999H32.4C32.0063 25.858 23.5322 26.8114 22.2722 23.4196Z" fill="#F23F34"/>
</svg>
