<svg width="26" height="26" viewBox="0 0 26 26" fill="none" xmlns="http://www.w3.org/2000/svg">
<path d="M16.0861 16.9143C16.0089 16.0754 16.0394 15.4904 16.0394 14.7246C16.4192 14.5255 17.0997 13.256 17.2134 12.1835C17.512 12.1591 17.9833 11.8687 18.1214 10.719C18.1945 10.1015 17.9 9.75414 17.7192 9.64445C18.2047 8.18398 19.2142 3.66445 15.8545 3.19727C15.5072 2.58992 14.6216 2.2832 13.4719 2.2832C8.86703 2.36852 8.3125 5.7607 9.32203 9.64445C9.14125 9.75414 8.84672 10.1015 8.91984 10.719C9.06 11.8687 9.52922 12.1591 9.82781 12.1835C9.94156 13.256 10.6484 14.5255 11.0303 14.7246C11.0303 15.4904 11.0588 16.0754 10.9816 16.9143C10.0716 19.364 3.925 18.6754 3.64062 23.4001H23.4006C23.1163 18.6754 16.9961 19.364 16.0861 16.9143Z" fill="#F23F34"/>
</svg>
