<svg width="23" height="24" viewBox="0 0 23 24" fill="none" xmlns="http://www.w3.org/2000/svg">
<path d="M8.92008 0.560059C4.03289 0.560059 0.0800781 4.51287 0.0800781 9.40006C0.0800781 14.2872 4.03289 18.2401 8.92008 18.2401C10.6649 18.2401 12.2798 17.7282 13.6488 16.8588L20.0351 23.2451L22.2451 21.0351L15.9401 14.7463C17.0735 13.2594 17.7601 11.4171 17.7601 9.40006C17.7601 4.51287 13.8073 0.560059 8.92008 0.560059ZM8.92008 2.64006C12.6637 2.64006 15.6801 5.65646 15.6801 9.40006C15.6801 13.1437 12.6637 16.1601 8.92008 16.1601C5.17648 16.1601 2.16008 13.1437 2.16008 9.40006C2.16008 5.65646 5.17648 2.64006 8.92008 2.64006Z" fill="white"/>
</svg>
