<svg width="28" height="30" viewBox="0 0 28 30" fill="none" xmlns="http://www.w3.org/2000/svg">
<path d="M17.2722 20.4196C17.1653 19.258 17.2075 18.448 17.2075 17.3877C17.7335 17.1121 18.6757 15.3543 18.8332 13.8693C19.2466 13.8355 19.8991 13.4333 20.0903 11.8414C20.1916 10.9864 19.7838 10.5055 19.5335 10.3536C20.2057 8.33144 21.6035 2.07363 16.9516 1.42676C16.4707 0.58582 15.2444 0.161133 13.6525 0.161133C7.2766 0.279258 6.50879 4.97613 7.9066 10.3536C7.65629 10.5055 7.24848 10.9864 7.34973 11.8414C7.54379 13.4333 8.19348 13.8355 8.60691 13.8693C8.76441 15.3543 9.74316 17.1121 10.2719 17.3877C10.2719 18.448 10.3113 19.258 10.2044 20.4196C8.94441 23.8114 0.433789 22.858 0.0400391 29.3999H27.4C27.0063 22.858 18.5322 23.8114 17.2722 20.4196Z" fill="#F23F34"/>
</svg>
