<svg width="22" height="32" viewBox="0 0 22 32" fill="none" xmlns="http://www.w3.org/2000/svg">
<path d="M10.9998 0.640137C5.35477 0.640137 0.759766 5.23514 0.759766 10.8801C0.759766 19.9126 10.1223 30.6851 10.5198 31.1401C10.6423 31.2801 10.8148 31.3601 10.9998 31.3601C11.1973 31.3476 11.3573 31.2801 11.4798 31.1401C11.8773 30.6776 21.2398 19.7201 21.2398 10.8801C21.2398 5.23514 16.6448 0.640137 10.9998 0.640137ZM10.9998 7.68014C13.1198 7.68014 14.8398 9.40014 14.8398 11.5201C14.8398 13.6401 13.1198 15.3601 10.9998 15.3601C8.87977 15.3601 7.15977 13.6401 7.15977 11.5201C7.15977 9.40014 8.87977 7.68014 10.9998 7.68014Z" fill="#F23F34"/>
</svg>
