<svg width="12" height="18" viewBox="0 0 12 18" fill="none" xmlns="http://www.w3.org/2000/svg">
<path d="M5.99999 0.359863C2.82468 0.359863 0.23999 2.94455 0.23999 6.11986C0.23999 11.2006 5.5064 17.2602 5.72999 17.5161C5.7989 17.5949 5.89593 17.6399 5.99999 17.6399C6.11108 17.6328 6.20109 17.5949 6.26999 17.5161C6.49359 17.256 11.76 11.0924 11.76 6.11986C11.76 2.94455 9.1753 0.359863 5.99999 0.359863ZM5.99999 4.31986C7.19249 4.31986 8.15999 5.28736 8.15999 6.47986C8.15999 7.67236 7.19249 8.63986 5.99999 8.63986C4.80749 8.63986 3.83999 7.67236 3.83999 6.47986C3.83999 5.28736 4.80749 4.31986 5.99999 4.31986Z" fill="#C4C4C4"/>
</svg>
