<svg width="22" height="22" viewBox="0 0 22 22" fill="none" xmlns="http://www.w3.org/2000/svg">
<path d="M20.9747 16.1342C20.1511 14.6519 18.0295 12.8708 17.1536 12.0958C16.9139 11.8836 16.8882 11.5165 17.1064 11.2818C18.7779 9.4856 20.1149 7.42173 20.5751 6.1746C20.7781 5.62368 20.3578 5.0416 19.7656 5.0416H18.0455C17.4786 5.0416 17.1467 5.2451 16.9886 5.56914C15.5994 8.41585 14.4077 9.64785 13.5736 10.3679C13.1065 10.7712 12.3782 10.4371 12.3782 9.82339C12.3782 8.64089 12.3782 7.11235 12.3782 6.02839C12.3782 5.50268 11.9483 5.07735 11.418 5.07735L8.27568 5.0416C7.88013 5.0416 7.65418 5.48939 7.89159 5.80335L8.41043 6.54814C8.60568 6.80618 8.71109 7.12014 8.71109 7.44235L8.70834 10.7964C8.70834 11.3799 8.00113 11.665 7.5813 11.2561C6.16093 9.87289 4.92847 7.04818 4.4848 5.69748C4.35647 5.30652 3.99026 5.04252 3.57501 5.0416L1.88055 5.03748C1.24484 5.03748 0.780093 5.64018 0.952885 6.24702C2.50113 11.6815 5.67784 16.8515 11.3392 17.412C11.897 17.467 12.3782 17.0178 12.3782 16.4619V14.6991C12.3782 14.1936 12.7747 13.7591 13.2843 13.7463C13.3022 13.7458 13.3201 13.7458 13.338 13.7458C14.8353 13.7458 16.5124 15.9252 17.0991 16.9445C17.2677 17.2378 17.583 17.4166 17.9241 17.4166H20.2033C20.8684 17.4166 21.2951 16.7112 20.9747 16.1342Z" fill="white"/>
</svg>
