<svg width="26" height="26" viewBox="0 0 26 26" fill="none" xmlns="http://www.w3.org/2000/svg">
<path d="M25.7461 1.113C25.5877 1.01956 25.3927 1.0155 25.2322 1.10284L19.7417 4.09894L13.2173 1.08659C13.0752 1.02159 12.9086 1.02363 12.7684 1.09472L6.76 4.09894L0.751563 1.09472C0.591094 1.0155 0.400156 1.02363 0.245781 1.11706C0.0934378 1.21253 0 1.37909 0 1.55988V21.3199C0 21.5169 0.111719 21.6977 0.288438 21.785L6.52844 24.905C6.67469 24.9782 6.84531 24.9782 6.99359 24.905L13.0102 21.8967L19.5427 24.9132C19.6117 24.9436 19.6848 24.9599 19.76 24.9599C19.8453 24.9599 19.9306 24.9396 20.0098 24.8969L25.7298 21.7769C25.8964 21.6855 26 21.5108 26 21.3199V1.55988C26 1.37706 25.9025 1.20644 25.7461 1.113ZM22.2239 8.54534C22.4677 8.39503 22.7886 8.46816 22.9389 8.71394C23.0384 8.87238 23.1298 9.03894 23.2152 9.21566C23.3411 9.47363 23.2334 9.78441 22.9755 9.91034C22.9003 9.94488 22.8252 9.96113 22.748 9.96113C22.555 9.96113 22.3702 9.85347 22.2808 9.66863C22.2097 9.52644 22.1366 9.39034 22.0553 9.26034C21.905 9.01659 21.9802 8.69769 22.2239 8.54534ZM20.1723 6.97722C20.3105 6.72534 20.6273 6.63394 20.8792 6.77206C21.0437 6.86347 21.2062 6.963 21.3647 7.07066C21.6003 7.23316 21.6612 7.55613 21.5008 7.79378C21.3992 7.94206 21.2367 8.02128 21.0702 8.02128C20.9686 8.02128 20.867 7.99081 20.7777 7.92988C20.6477 7.8405 20.5136 7.75925 20.3775 7.68409C20.1256 7.54394 20.0342 7.22706 20.1723 6.97722ZM3.41453 6.70909C3.32312 6.768 3.22156 6.79644 3.12203 6.79644C2.95953 6.79644 2.80516 6.71925 2.71172 6.56894L2.67516 6.508C2.52687 6.26222 2.60609 5.94331 2.85187 5.79503C3.09562 5.64675 3.41656 5.72597 3.56484 5.97175C3.71719 6.2155 3.65828 6.55675 3.41453 6.70909ZM4.02594 7.58253C4.24531 7.39769 4.57437 7.42409 4.75922 7.64347C4.86891 7.77347 4.97859 7.89738 5.08625 8.01113C5.28328 8.22034 5.27312 8.54941 5.06391 8.74644C4.96438 8.84191 4.83641 8.88863 4.70844 8.88863C4.56828 8.88863 4.43016 8.83378 4.32859 8.72409C4.20875 8.59613 4.08687 8.46003 3.965 8.31581C3.78016 8.09644 3.80656 7.76738 4.02594 7.58253ZM5.72 21.3199C4.85875 21.3199 4.16 20.6211 4.16 19.7599C4.16 18.8986 4.85875 18.1999 5.72 18.1999C6.58125 18.1999 7.28 18.8986 7.28 19.7599C7.28 20.6211 6.58125 21.3199 5.72 21.3199ZM7.29422 10.0424C7.21703 10.2516 7.01797 10.3816 6.80672 10.3816C6.74578 10.3816 6.68484 10.3714 6.62594 10.3491C6.44719 10.2841 6.26844 10.2028 6.09172 10.1114C5.83578 9.97941 5.73828 9.66456 5.87031 9.41066C6.00437 9.15472 6.31719 9.05519 6.57109 9.18925C6.71125 9.26034 6.84937 9.32331 6.98547 9.37206C7.25562 9.47363 7.39375 9.77222 7.29422 10.0424ZM8.70187 19.0205C8.54953 19.0611 8.39312 19.1058 8.23266 19.1586C8.17984 19.1769 8.125 19.185 8.07219 19.185C7.85281 19.185 7.64969 19.0449 7.57656 18.8255C7.48719 18.5533 7.6375 18.2588 7.90969 18.1694C8.09047 18.1105 8.26516 18.0597 8.43781 18.015C8.71609 17.946 9.00047 18.1085 9.07359 18.3868C9.14672 18.663 8.98016 18.9474 8.70187 19.0205ZM9.52047 10.345C9.33562 10.408 9.15078 10.4608 8.96187 10.5014C8.92531 10.5096 8.88672 10.5136 8.85016 10.5136C8.6125 10.5136 8.39719 10.3491 8.34234 10.1053C8.28141 9.82503 8.45812 9.54675 8.73844 9.48581C8.88875 9.45331 9.035 9.41066 9.18125 9.36191C9.45344 9.26847 9.75 9.41269 9.84344 9.68284C9.93484 9.95503 9.79062 10.2516 9.52047 10.345ZM11.1475 18.8336C11.1292 18.8336 11.1109 18.8336 11.0947 18.8316C10.9362 18.8153 10.7758 18.8032 10.6112 18.7991C10.3248 18.7889 10.0994 18.5492 10.1095 18.2628C10.1177 17.9744 10.3553 17.7307 10.6458 17.7591C10.8327 17.7652 11.0175 17.7774 11.1983 17.7957C11.4847 17.8261 11.6939 18.08 11.6634 18.3664C11.637 18.6346 11.4116 18.8336 11.1475 18.8336ZM11.44 10.3999C10.5787 10.3999 9.88 9.70113 9.88 8.83988C9.88 7.97863 10.5787 7.27988 11.44 7.27988C12.3012 7.27988 13 7.97863 13 8.83988C13 9.70113 12.3012 10.3999 11.44 10.3999ZM14.1659 19.0733C14.0948 19.2927 13.8897 19.4328 13.6703 19.4328C13.6175 19.4328 13.5647 19.4247 13.5098 19.4064C13.3494 19.3557 13.1869 19.3028 13.0244 19.2541C12.7481 19.1708 12.5938 18.8803 12.677 18.6061C12.7603 18.3319 13.0508 18.1755 13.325 18.2588C13.4936 18.3116 13.6622 18.3644 13.8308 18.4193C14.103 18.5066 14.2533 18.7991 14.1659 19.0733ZM13.9791 7.44034C13.843 7.53175 13.7089 7.63128 13.5708 7.73284C13.4773 7.80191 13.3697 7.83441 13.262 7.83441C13.1036 7.83441 12.9452 7.76128 12.8436 7.62519C12.673 7.39363 12.7217 7.06863 12.9512 6.898C13.0995 6.78831 13.2458 6.68269 13.392 6.58316C13.6277 6.42066 13.9506 6.48159 14.1152 6.71722C14.2756 6.95488 14.2147 7.27784 13.9791 7.44034ZM15.5777 5.70769C15.7564 5.70769 15.9311 5.70972 16.1098 5.71378C16.3962 5.71988 16.6237 5.95753 16.6177 6.24394C16.6116 6.52831 16.38 6.75378 16.0977 6.75378C16.0936 6.75378 16.0895 6.75378 16.0875 6.75378C15.9148 6.74972 15.7483 6.74769 15.5878 6.74769C15.2994 6.74769 15.0617 6.51409 15.0617 6.22769C15.0617 5.94128 15.2892 5.70769 15.5777 5.70769ZM16.1708 20.1377C16.1383 20.1377 16.1078 20.1357 16.0733 20.1296C15.8925 20.095 15.7158 20.0564 15.5411 20.0138C15.2628 19.9468 15.0902 19.6664 15.1572 19.3882C15.2242 19.1078 15.5066 18.9393 15.7848 19.0042C15.9433 19.0408 16.1038 19.0774 16.2683 19.1078C16.5506 19.1607 16.7355 19.4328 16.6827 19.7152C16.6339 19.965 16.4166 20.1377 16.1708 20.1377ZM18.2569 5.90269C18.4356 5.93316 18.6144 5.96769 18.7931 6.00831C19.0734 6.07128 19.2502 6.34753 19.1892 6.62784C19.1344 6.87159 18.9191 7.03613 18.6814 7.03613C18.6428 7.03613 18.6062 7.03206 18.5677 7.02394C18.4052 6.98738 18.2447 6.95691 18.0822 6.92847C17.7998 6.87972 17.6089 6.61159 17.6577 6.32925C17.7064 6.04488 17.9745 5.85597 18.2569 5.90269ZM18.8561 20.1742C18.6672 20.2108 18.4783 20.2393 18.2914 20.2575C18.2752 20.2596 18.2569 20.2616 18.2386 20.2616C17.9745 20.2616 17.7491 20.0605 17.7227 19.7924C17.6922 19.508 17.9014 19.2521 18.1878 19.2236C18.3422 19.2074 18.4986 19.185 18.653 19.1546C18.9373 19.0936 19.2075 19.2805 19.2644 19.5628C19.3192 19.8432 19.1364 20.1174 18.8561 20.1742ZM20.8 20.2799C19.9387 20.2799 19.24 19.5811 19.24 18.7199C19.24 17.8586 19.9387 17.1599 20.8 17.1599C21.6612 17.1599 22.36 17.8586 22.36 18.7199C22.36 19.5811 21.6612 20.2799 20.8 20.2799ZM23.1136 16.7333C23.0323 16.908 22.947 17.0746 22.8556 17.233C22.7602 17.4016 22.5834 17.495 22.4027 17.495C22.3153 17.495 22.228 17.4747 22.1467 17.428C21.8969 17.2858 21.8095 16.9689 21.9517 16.7191C22.0289 16.583 22.102 16.4428 22.1711 16.2946C22.2909 16.0346 22.5997 15.9228 22.8617 16.0427C23.1217 16.1646 23.2355 16.4733 23.1136 16.7333ZM23.7616 14.6208C23.7169 14.8747 23.4975 15.0535 23.2497 15.0535C23.2192 15.0535 23.1908 15.0494 23.1603 15.0453C22.8759 14.9966 22.687 14.7264 22.7358 14.4441C22.7642 14.2857 22.7866 14.1232 22.8069 13.9586C22.8414 13.6722 23.0953 13.4691 23.3858 13.5016C23.6702 13.5361 23.8733 13.7941 23.8408 14.0785C23.8184 14.2653 23.792 14.4461 23.7616 14.6208ZM23.4102 12.4636C23.398 12.4636 23.3858 12.4636 23.3736 12.4636C23.1034 12.4636 22.8739 12.2544 22.8556 11.9802C22.8434 11.8136 22.8272 11.6532 22.8048 11.4968C22.7683 11.2124 22.9673 10.9503 23.2517 10.9118C23.5361 10.8752 23.7981 11.0743 23.8367 11.3586C23.8611 11.5353 23.8794 11.7182 23.8916 11.9071C23.9139 12.1935 23.6966 12.4433 23.4102 12.4636Z" fill="#F23F34"/>
</svg>
