<svg width="22" height="22" viewBox="0 0 22 22" fill="none" xmlns="http://www.w3.org/2000/svg">
<path d="M10.9999 0.880005C5.41987 0.880005 0.879948 5.41992 0.879948 11C0.879948 12.7424 1.33007 14.4558 2.18367 15.9676L0.896228 20.5612C0.853988 20.7121 0.894908 20.874 1.00403 20.9862C1.08807 21.0729 1.20247 21.12 1.31995 21.12C1.35515 21.12 1.39079 21.1156 1.42555 21.1072L6.21979 19.9197C7.68367 20.7055 9.33235 21.12 10.9999 21.12C16.58 21.12 21.1199 16.5801 21.1199 11C21.1199 5.41992 16.58 0.880005 10.9999 0.880005ZM16.0907 14.571C15.8743 15.1703 14.8359 15.7172 14.3369 15.7907C13.889 15.8563 13.3223 15.8844 12.7001 15.6891C12.323 15.5703 11.839 15.4128 11.2191 15.1483C8.61295 14.0369 6.91103 11.4457 6.78079 11.2746C6.65099 11.1034 5.71995 9.88373 5.71995 8.62136C5.71995 7.359 6.39095 6.73816 6.62943 6.4812C6.86791 6.22424 7.14907 6.16 7.32243 6.16C7.49579 6.16 7.66871 6.1622 7.82051 6.16924C7.98023 6.17717 8.19451 6.10896 8.40527 6.60968C8.62175 7.1236 9.14139 8.38596 9.20563 8.51488C9.27075 8.64336 9.31387 8.79341 9.22763 8.96457C9.14139 9.13573 9.09827 9.24265 8.96803 9.39268C8.83779 9.54272 8.69523 9.72708 8.57819 9.84236C8.44795 9.9704 8.31287 10.109 8.46423 10.366C8.61559 10.6229 9.13699 11.4629 9.90963 12.1431C10.9018 13.017 11.7391 13.288 11.9987 13.4165C12.2583 13.545 12.4101 13.5234 12.5615 13.3522C12.7129 13.1806 13.2109 12.6029 13.3839 12.3464C13.5568 12.0899 13.7301 12.1321 13.9686 12.2179C14.2071 12.3033 15.4844 12.9237 15.744 13.0522C16.0036 13.1806 16.177 13.2449 16.2421 13.3518C16.3072 13.4583 16.3072 13.9722 16.0907 14.571Z" fill="#F23F34"/>
</svg>
