<svg width="26" height="26" viewBox="0 0 26 26" fill="none" xmlns="http://www.w3.org/2000/svg">
<path d="M5.72008 17.2537L7.80008 15.1737V5.72008H5.72008V17.2537ZM2.08008 20.8937L4.68008 18.2937V5.72008H2.08008V20.8937ZM10.9201 17.937L8.57696 20.2801H10.9201V17.937ZM8.84008 14.1337L10.9201 12.0537V5.72008H8.84008V14.1337ZM22.3637 2.0806L2.0806 22.3637C2.08268 23.1682 2.69836 23.8239 3.48252 23.904L23.904 3.48252C23.8239 2.69836 23.1682 2.08216 22.3637 2.0806ZM15.0801 5.72008V7.89368L17.2537 5.72008H15.0801ZM11.9601 11.0137L14.0401 8.93368V5.72008H11.9601V11.0137ZM23.9201 4.93696L21.3201 7.53696V20.2801H23.9201V4.93696ZM18.2937 4.68008L20.8937 2.08008H3.64008C2.78 2.08008 2.08008 2.78 2.08008 3.64008V4.68008H18.2937ZM7.53696 21.3201L4.93696 23.9201H22.3601C23.2202 23.9201 23.9201 23.2202 23.9201 22.3601V21.3201H7.53696ZM20.2801 8.57696L18.2001 10.657V20.2801H20.2801V8.57696ZM14.0401 14.817L11.9601 16.897V20.2801H14.0401V14.817ZM17.1601 11.697L15.0801 13.777V20.2801H17.1601V11.697Z" fill="#F23F34"/>
</svg>
